<svg id="Capa_1" enable-background="new 0 0 512.01 512.01" height="512" viewBox="0 0 512.01 512.01" width="512" xmlns="http://www.w3.org/2000/svg"><g><g><path d="m177.723 405.717-10 61.119 10 37.673h140l10-37.673-10-61.119c-19.764-14.03-43.917-22.283-70-22.283s-50.235 8.253-70 22.283z" fill="#c6c6c6"/></g><g><path d="m286.332 389.743c-12.127-4.08-25.106-6.309-38.609-6.309-26.083 0-50.236 8.253-70 22.283l-10 61.119 10 37.673h26.116c0-53.254 34.598-98.613 82.493-114.766z" fill="#9aa3b1"/></g><g><path d="m317.723 405.717v98.792h29.096c12.566 0 22.098-11.469 19.642-23.793-6.144-30.834-24.004-57.442-48.738-74.999z" fill="#9aa3b1"/></g><g><path d="m177.723 405.717v98.792h-29.096c-12.566 0-22.098-11.469-19.642-23.793 6.144-30.834 24.004-57.442 48.738-74.999z" fill="#67788c"/></g><g><path d="m247.723 436.836c22.477 0 40.698-18.221 40.698-40.698 0-1.969-.148-3.903-.418-5.798-2.403-.851-4.835-1.628-7.302-2.325-10.485-2.978-21.547-4.581-32.978-4.581-14.115 0-27.672 2.438-40.28 6.902-.271 1.896-.419 3.831-.419 5.801.001 22.478 18.222 40.699 40.699 40.699z" fill="#9aa3b1"/></g><g><path d="m228.156 431.828c14.556-19.325 34.753-34.174 58.123-42.068-1.843-.622-3.697-1.214-5.578-1.745-10.485-2.978-21.547-4.581-32.978-4.581-14.115 0-27.672 2.438-40.28 6.902-.271 1.896-.419 3.831-.419 5.801.001 15.385 8.539 28.772 21.132 35.691z" fill="#7e8b9e"/></g><g><path d="m122.723 464.563h75c11.046 0 20-8.954 20-20v-70h-45c-38.66 0-70 31.34-70 70 0 11.045 8.954 20 20 20z" fill="#7e8b9e"/></g><g><path d="m372.723 464.563h-75c-11.046 0-20-8.954-20-20v-70h45c38.66 0 70 31.34 70 70 0 11.045-8.954 20-20 20z" fill="#7e8b9e"/></g><g><g><circle cx="247.723" cy="251.138" fill="#c6c6c6" r="145"/></g></g><g><g><path d="m152.723 251.138c0-71.555 51.833-130.998 120-142.846-8.122-1.412-16.474-2.154-25-2.154-80.081 0-145 64.919-145 145s64.919 145 145 145c8.526 0 16.878-.743 25-2.154-68.166-11.848-120-71.291-120-142.846z" fill="#9aa3b1"/></g></g><g><path d="m299.509 74.027 22.436-54.166c4.227-10.205 15.926-15.051 26.131-10.824 10.205 4.227 15.051 15.926 10.824 26.131l-22.436 54.166c-4.227 10.205-15.926 15.051-26.131 10.824-10.205-4.227-15.051-15.926-10.824-26.131z" fill="#67788c"/></g><g><g><g><ellipse cx="168.166" cy="300.132" fill="#fff" rx="29.355" ry="23.377"/></g><g><ellipse cx="327.28" cy="300.132" fill="#fff" rx="29.355" ry="23.377"/></g></g><g><path d="m185.274 285.128c-4.142 0-7.5-3.358-7.5-7.5v-12c0-4.142 3.358-7.5 7.5-7.5s7.5 3.358 7.5 7.5v12c0 4.142-3.358 7.5-7.5 7.5z"/></g><g><path d="m310.172 285.128c-4.142 0-7.5-3.358-7.5-7.5v-12c0-4.142 3.358-7.5 7.5-7.5s7.5 3.358 7.5 7.5v12c0 4.142-3.358 7.5-7.5 7.5z"/></g></g><g><path d="m247.723 266.289c-9.627 0-17.969 6.669-20.089 16.06l-10.325 45.746c-4.401 19.498 10.425 38.043 30.414 38.043 19.989 0 34.814-18.545 30.414-38.043l-10.325-45.746c-2.12-9.391-10.462-16.06-20.089-16.06z" fill="#9aa3b1"/></g><g><g><path d="m182.595 33.563c-33.137 0-60 26.863-60 60s26.863 60 60 60 60-26.863 60-60-26.863-60-60-60zm.001 90c-16.542 0-30-13.458-30-30s13.458-30 30-30 30 13.458 30 30-13.458 30-30 30z" fill="#9aa3b1"/></g></g><g><path d="m324.185 66.718c-36.156-14.976-128.536-7.995-189.018 71.29-3.966 5.199-1.881 12.757 4.161 15.26l127.186 52.682 127.186 52.682c6.041 2.502 12.86-1.367 13.732-7.848 13.295-98.831-47.092-169.09-83.247-184.066z" fill="#9aa3b1"/></g><g><path d="m304.629 61.667c-43.352-6.25-117.966 8.834-169.462 76.34-3.966 5.199-1.881 12.757 4.161 15.26l127.186 52.682 127.186 52.682c-86.429-47.867-100.807-170.004-89.071-196.964z" fill="#7e8b9e"/></g><g><circle cx="230.829" cy="123.563" fill="#67788c" r="20"/></g><g><path d="m247.723 373.638c11.819 0 22.831-5.295 30.211-14.526 7.38-9.232 10.121-21.139 7.519-32.668l-10.325-45.746c-2.912-12.9-14.181-21.909-27.405-21.909s-24.493 9.009-27.405 21.909l-10.325 45.746c-2.602 11.529.138 23.436 7.519 32.668 7.38 9.231 18.392 14.526 30.211 14.526zm-23.098-43.892 10.325-45.746c1.357-6.013 6.609-10.212 12.773-10.212s11.416 4.199 12.773 10.212l10.325 45.746c1.593 7.058-.084 14.347-4.603 19.999-4.518 5.652-11.259 8.893-18.495 8.893s-13.977-3.241-18.495-8.893c-4.518-5.651-6.195-12.941-4.603-19.999z"/><path d="m396.949 135.24c-1.794-3.734-6.277-5.304-10.009-3.511-3.733 1.794-5.305 6.275-3.511 10.009 15.899 33.077 21.628 70.438 16.569 108.045-.137 1.02-.811 1.548-1.2 1.772-.404.232-1.23.561-2.229.146l-254.372-105.363c-.999-.414-1.351-1.229-1.472-1.679-.117-.434-.22-1.284.404-2.102 32.485-42.584 72.136-60.655 99.679-68.316 36.183-10.065 65.982-6.609 80.506-.593 11.939 4.945 30.71 18.875 47.588 43.14 2.365 3.401 7.04 4.24 10.44 1.875s4.24-7.04 1.875-10.44c-9.156-13.163-19.751-24.743-30.528-33.628l15.142-36.555c2.811-6.786 2.811-14.261 0-21.047-2.812-6.786-8.097-12.072-14.883-14.883s-14.26-2.811-21.047 0c-6.786 2.811-12.072 8.096-14.883 14.883l-15.168 36.62c-16.908-1.619-37.514-.388-59.381 5.194-12.171-20.326-33.869-32.742-57.871-32.742-37.22 0-67.5 30.28-67.5 67.5 0 14.727 4.8 28.947 13.595 40.61-2.895 4.211-3.792 9.404-2.448 14.388.633 2.35 1.74 4.475 3.194 6.314-19.469 23.857-31.081 52.532-33.671 83.31-.347 4.127 2.717 7.755 6.845 8.103.214.018.426.027.637.027 3.857 0 7.136-2.958 7.465-6.872 2.395-28.463 13.375-54.92 31.763-76.754l242.232 100.335c-6.049 70.76-65.45 125.612-136.987 125.612-69.446 0-128.123-51.901-136.488-120.728-.5-4.111-4.238-7.037-8.35-6.541-4.112.5-7.04 4.238-6.541 8.35 4.941 40.655 25.707 75.984 55.671 100.133-13.099 3.612-25.071 10.645-34.788 20.611-14.19 14.555-22.005 33.767-22.005 54.098 0 15.164 12.336 27.5 27.5 27.5h.563c-.62 2.384-1.177 4.785-1.657 7.189-1.604 8.047.471 16.312 5.692 22.676 5.257 6.408 13.023 10.083 21.306 10.083h198.191c8.284 0 16.049-3.675 21.306-10.083 5.221-6.363 7.295-14.628 5.692-22.676-.479-2.406-1.045-4.804-1.665-7.188h.572c15.164 0 27.5-12.336 27.5-27.5 0-20.357-7.833-39.587-22.054-54.148-9.71-9.942-21.665-16.955-34.742-20.56 30.76-24.807 51.746-61.348 55.996-103.057 2.376-.259 4.706-1.004 6.856-2.241 4.729-2.722 7.859-7.377 8.585-12.773 5.452-40.518-.743-80.818-17.914-116.543zm-68.074-112.509c1.278-3.085 3.68-5.487 6.765-6.765 3.085-1.277 6.482-1.278 9.567 0 3.084 1.278 5.487 3.68 6.765 6.765s1.278 6.482 0 9.567l-13.782 33.273c-3.767-2.327-7.497-4.276-11.135-5.783-3.502-1.451-7.52-2.716-11.975-3.752zm-131.152 449.331c15.164 0 27.5-12.336 27.5-27.5v-5.836c6.883 3.631 14.612 5.61 22.5 5.61 7.893 0 15.619-1.979 22.5-5.609v5.835c0 15.164 12.336 27.5 27.5 27.5h12.5v24.947h-125v-24.947zm72.5-70.079v18.555c-6.14 5.686-14.037 8.798-22.5 8.798-8.456 0-16.358-3.112-22.5-8.798v-18.568c7.355 1.093 14.868 1.667 22.5 1.667 7.639.001 15.152-.565 22.5-1.654zm-160 42.579c0-33.677 26.022-60.834 59.476-62.41 12.496 7.451 26.121 13.159 40.524 16.812v45.598c0 6.893-5.607 12.5-12.5 12.5h-75c-6.893 0-12.5-5.607-12.5-12.5zm28.695 47.851c-2.36-2.877-3.3-6.606-2.578-10.23.677-3.397 1.519-6.788 2.51-10.12h31.372v24.947h-21.596c-3.773 0-7.312-1.676-9.708-4.597zm220.188-10.231c.722 3.625-.217 7.354-2.578 10.231-2.396 2.921-5.936 4.597-9.709 4.597h-21.596v-24.947h31.362c.992 3.334 1.844 6.72 2.521 10.119zm26.117-37.62c0 6.893-5.607 12.5-12.5 12.5h-75c-6.893 0-12.5-5.607-12.5-12.5v-45.588c14.43-3.654 28.056-9.369 40.543-16.819 32.914 1.598 59.457 29.281 59.457 62.407zm-225.127-350.999c0-12.407 10.093-22.5 22.5-22.5 5.124 0 9.964 1.726 13.864 4.792-12.038 6.401-23.979 14.331-35.446 24.03-.597-2.034-.918-4.153-.918-6.322zm22.5-52.5c17.349 0 33.148 8.341 42.896 22.208-4.858 1.66-9.749 3.541-14.649 5.662-7.073-8.137-17.269-12.87-28.247-12.87-20.678 0-37.5 16.822-37.5 37.5 0 6.028 1.417 11.85 4.133 17.116-3.64 3.596-7.219 7.38-10.716 11.382-5.461-8.44-8.417-18.312-8.417-28.498 0-28.949 23.551-52.5 52.5-52.5z"/><path d="m203.329 123.563c0 15.164 12.336 27.5 27.5 27.5s27.5-12.336 27.5-27.5-12.336-27.5-27.5-27.5-27.5 12.336-27.5 27.5zm40 0c0 6.893-5.607 12.5-12.5 12.5s-12.5-5.607-12.5-12.5 5.607-12.5 12.5-12.5 12.5 5.607 12.5 12.5z"/></g></g></svg>