<svg id="Capa_1" enable-background="new 0 0 512 512" height="512" viewBox="0 0 512 512" width="512" xmlns="http://www.w3.org/2000/svg"><g><g><path d="m56.648 203.5c-9.544 33.438-17.118 66.401-11.859 72.139 11.233 12.255 36.081-9.957 36.081-9.957s-12.684 56.467 0 64.616 44.854-25.552 44.854-25.552h260.553s32.17 33.702 44.854 25.552 0-64.616 0-64.616 24.848 22.213 36.081 9.957c5.259-5.738-2.315-38.701-11.859-72.139z" fill="#e0bb5f"/></g><g><path d="m156.904 504.5c-12.566 0-22.098-11.469-19.643-23.793 11.054-55.475 60.014-97.282 118.738-97.282s107.684 41.808 118.738 97.282c2.456 12.324-7.076 23.793-19.643 23.793z" fill="#89d47f"/></g><g><path d="m280.993 386.03c-8.065-1.705-16.426-2.605-24.993-2.605-58.6 0-107.629 41.885-118.724 97.271-2.469 12.326 7.069 23.804 19.64 23.804h28.008c.001-58.166 41.276-106.909 96.069-118.47z" fill="#5ec783"/></g><g><g><circle cx="256" cy="251.128" fill="#f7ef87" r="145"/></g></g><g><g><path d="m161 251.128c0-71.555 51.833-130.998 120-142.846-8.122-1.412-16.474-2.154-25-2.154-80.081 0-145 64.919-145 145s64.919 145 145 145c8.526 0 16.878-.743 25-2.154-68.167-11.848-120-71.29-120-142.846z" fill="#efd176"/></g></g><g><g><g><ellipse cx="176.355" cy="300.096" fill="#eda1ab" rx="29.387" ry="23.403"/></g><g><ellipse cx="335.645" cy="300.096" fill="#eda1ab" rx="29.387" ry="23.403"/></g><g><path d="m279.694 282.115c0-14.643-10.608-16.019-23.693-16.019-13.086 0-23.694 1.376-23.694 16.019s10.608 26.513 23.694 26.513c13.085 0 23.693-11.87 23.693-26.513z" fill="#4e5660"/></g></g><g><path d="m181.268 279.656c-4.142 0-7.5-3.358-7.5-7.5v-12c0-4.142 3.358-7.5 7.5-7.5s7.5 3.358 7.5 7.5v12c0 4.142-3.358 7.5-7.5 7.5z"/></g><g><path d="m256 316.128c-17.2 0-31.193-15.258-31.193-34.013 0-23.519 21.859-23.519 31.193-23.519s31.193 0 31.193 23.519c0 18.755-13.993 34.013-31.193 34.013zm0-42.532c-15.539 0-16.193 2.611-16.193 8.519 0 10.484 7.264 19.013 16.193 19.013s16.193-8.529 16.193-19.013c0-5.907-.655-8.519-16.193-8.519z"/></g><g><path d="m330.732 279.656c-4.143 0-7.5-3.358-7.5-7.5v-12c0-4.142 3.357-7.5 7.5-7.5s7.5 3.358 7.5 7.5v12c0 4.142-3.357 7.5-7.5 7.5z"/></g></g><g><path d="m256 7.5c46.532 0 210 79.755 210 114.989s-210 32.936-210 32.936z" fill="#d2996f"/></g><g><path d="m409.814 120.706c-11.692-25.701-27.807-50.334-47.895-73.215-2.085-2.375-4.239-4.749-6.445-7.115-39.936-18.868-79.974-32.876-99.474-32.876v147.926s101.651 1.112 163.507-10.077c-2.751-8.249-5.974-16.469-9.693-24.643z" fill="#c18053"/></g><g><path d="m256 7.5c-28.825 0-145.13 90.238-145.13 207.55h145.13 145.13c0-117.312-116.305-207.55-145.13-207.55z" fill="#d2996f"/></g><g><path d="m225.703 20.413c-44.847 28.931-114.833 103.631-114.833 194.637h130.162v-31.55c-35.347-23.993-60.272-132.852-15.329-163.087z" fill="#c18053"/></g><g><path d="m484.5 223.5h-457c-11.046 0-20-8.954-20-20 0-11.046 8.954-20 20-20h457c11.046 0 20 8.954 20 20 0 11.046-8.954 20-20 20z" fill="#e1b89a"/></g><g><path d="m221.032 203.5c0-11.046 8.954-20 20-20h-213.532c-11.046 0-20 8.954-20 20s8.954 20 20 20h213.532c-11.046 0-20-8.954-20-20z" fill="#d2996f"/></g><g><path d="m356 396.128v20l11.389 16.62c3.636 5.306 1.366 12.56-4.602 14.959-17.69 7.109-21.99 27.607-46.789 27.607-30.001 0-30.001-30-60.002-30-30 0-30 30-59.999 30-24.797 0-29.097-20.498-46.785-27.607-5.968-2.399-8.238-9.653-4.602-14.959l11.39-16.62v-20z" fill="#f7ef87"/></g><g><path d="m232.489 396.128h-76.489v20l-11.39 16.621c-3.636 5.306-1.366 12.56 4.602 14.959 17.688 7.109 21.988 27.607 46.785 27.607 30 0 30-30 59.999-30-12.983 0-23.507-10.524-23.507-23.507z" fill="#efd176"/></g><g><path d="m356 416.128h-200c-11.046 0-20-8.954-20-20 0-11.046 8.954-20 20-20h200c11.046 0 20 8.954 20 20 0 11.046-8.954 20-20 20z" fill="#e1b89a"/></g><g><path d="m212.489 396.128c0-11.046 8.954-20 20-20h-76.489c-11.046 0-20 8.954-20 20 0 11.046 8.954 20 20 20h76.489c-11.045 0-20-8.954-20-20z" fill="#d2996f"/></g><path d="m484.5 176h-79.955c-1.392-6.681-3.149-13.358-5.244-20.017 51.222-6.465 74.199-16.882 74.199-33.494 0-10.877-9.544-23.556-29.177-38.761-15.655-12.125-37.235-25.471-62.406-38.596-41.685-21.737-98.869-45.132-125.917-45.132-16.96 0-50.256 21.722-79.17 51.65-20.915 21.647-57.234 66.19-69.364 124.35h-79.966c-15.164 0-27.5 12.336-27.5 27.5s12.336 27.5 27.5 27.5h14.088c-9.143 38.018-6.205 45.477-2.328 49.707 8.73 9.524 21.116 6.475 30.965 1.376-.577 3.763-1.131 7.868-1.571 12.069-2.526 24.112-.009 37.206 8.162 42.456 2.521 1.62 5.395 2.428 8.614 2.428 8.939 0 20.552-6.25 34.69-18.66 1.146 2.248 2.331 4.477 3.591 6.668 9.117 15.854 21.066 29.951 35.109 41.585h-2.82c-15.164 0-27.5 12.336-27.5 27.5 0 10.763 6.219 20.096 15.248 24.61l-5.325 7.771c-3.009 4.392-3.851 9.831-2.31 14.923.721 2.382 1.934 4.526 3.507 6.357-4.419 9.386-7.685 19.27-9.714 29.452-1.604 8.047.471 16.312 5.692 22.676 5.257 6.408 13.022 10.083 21.306 10.083h198.191c8.284 0 16.05-3.675 21.307-10.083 5.221-6.364 7.295-14.628 5.691-22.675-2.029-10.182-5.301-20.059-9.721-29.446 1.576-1.832 2.791-3.978 3.513-6.364 1.542-5.092.7-10.532-2.31-14.924l-5.325-7.77c9.03-4.514 15.249-13.847 15.249-24.61 0-15.164-12.337-27.5-27.5-27.5h-2.819c14.044-11.634 25.993-25.732 35.11-41.587 1.259-2.19 2.444-4.419 3.589-6.665 14.135 12.41 25.746 18.661 34.687 18.661 3.22 0 6.096-.809 8.618-2.43 8.17-5.25 10.687-18.343 8.161-42.455-.44-4.2-.995-8.307-1.571-12.069 9.847 5.098 22.233 8.149 30.964-1.377 3.877-4.23 6.817-11.684-2.327-49.707h14.089c15.164 0 27.5-12.336 27.5-27.5s-12.336-27.5-27.5-27.5zm-296.882-113.928c29.673-30.714 58.779-47.072 68.382-47.072 12.55 0 56.807 26.963 93.157 76.391 2.453 3.338 7.148 4.053 10.485 1.599s4.053-7.148 1.599-10.485c-15.321-20.833-32.962-38.947-49.783-52.863 19.634 7.501 41.755 17.439 63.523 28.79 24.394 12.72 45.195 25.568 60.157 37.155 22.235 17.22 23.361 25.431 23.361 26.902 0 .115-1.793 11.485-64.317 19.014-4.421-11.269-9.828-22.459-16.22-33.498-2.075-3.584-6.662-4.807-10.249-2.732-3.584 2.076-4.808 6.664-2.731 10.249 11.499 19.858 19.619 40.167 24.208 60.478h-266.371c11.979-52.985 45.394-93.843 64.799-113.928zm-102.625 261.948c-.456-.576-3.915-5.829-1.29-29.518 1.556-14.036 4.455-27.047 4.484-27.177.713-3.177-.709-6.449-3.516-8.102s-6.361-1.302-8.794.861c-7.637 6.794-20.612 14.281-25.1 10.905-.405-1.913-1.088-10.313 6.254-39.989h47.795c-.876 6.653-1.327 13.394-1.327 20.128 0 18.826 3.497 37.436 10.195 54.844-17.104 15.784-26.852 18.793-28.701 18.048zm267.055 99.608 9.155 13.359c.551.805.481 1.585.326 2.099-.134.444-.513 1.25-1.538 1.662-8.413 3.38-14.194 9.162-19.296 14.263-7.153 7.153-12.804 12.803-24.697 12.803s-17.544-5.65-24.697-12.803c-7.662-7.662-17.197-17.197-35.305-17.197-18.106 0-27.642 9.535-35.303 17.197-7.153 7.153-12.803 12.803-24.696 12.803-11.892 0-17.542-5.65-24.695-12.803-5.101-5.101-10.881-10.882-19.293-14.263-1.026-.413-1.405-1.218-1.539-1.662-.155-.513-.225-1.293.327-2.098l9.155-13.36zm12.758 68.775c-2.396 2.922-5.936 4.597-9.71 4.597h-198.192c-3.774 0-7.313-1.675-9.709-4.597-2.36-2.877-3.3-6.606-2.578-10.23 1.658-8.318 4.262-16.407 7.732-24.136 2.872 2.115 5.492 4.725 8.346 7.58 7.662 7.662 17.196 17.197 35.302 17.197s27.642-9.535 35.303-17.197c7.153-7.153 12.803-12.803 24.696-12.803 11.894 0 17.544 5.65 24.698 12.803 7.661 7.662 17.196 17.197 35.304 17.197 18.106 0 27.642-9.535 35.304-17.196 2.856-2.856 5.477-5.468 8.351-7.583 3.471 7.73 6.073 15.818 7.73 24.138.722 3.624-.217 7.353-2.577 10.23zm-37.357-123.775h-56.449c-4.143 0-7.5 3.358-7.5 7.5s3.357 7.5 7.5 7.5h85c6.893 0 12.5 5.607 12.5 12.5s-5.607 12.5-12.5 12.5h-200c-6.893 0-12.5-5.607-12.5-12.5s5.607-12.5 12.5-12.5h85c4.142 0 7.5-3.358 7.5-7.5s-3.358-7.5-7.5-7.5h-56.449c-41.362-25.205-66.051-69.115-66.051-117.5 0-6.744.5-13.492 1.471-20.128h272.058c.971 6.635 1.471 13.383 1.471 20.128 0 48.386-24.689 92.295-66.051 117.5zm133.773-97.639c-4.481 3.375-17.462-4.11-25.093-10.898-2.43-2.173-5.985-2.525-8.796-.875-2.811 1.651-4.233 4.929-3.521 8.109.029.13 2.93 13.141 4.484 27.177 2.624 23.677-.829 28.937-1.288 29.517-1.857.745-11.608-2.268-28.704-18.045 6.698-17.409 10.195-36.019 10.195-54.845 0-6.736-.45-13.477-1.326-20.128h47.794c7.344 29.677 6.659 38.076 6.255 39.988zm23.278-54.989h-457c-6.893 0-12.5-5.607-12.5-12.5s5.607-12.5 12.5-12.5h457c6.893 0 12.5 5.607 12.5 12.5s-5.607 12.5-12.5 12.5z"/></g></svg>