<svg id="Capa_1" enable-background="new 0 0 512 512" height="512" viewBox="0 0 512 512" width="512" xmlns="http://www.w3.org/2000/svg"><g><g><path d="m401.122 215.05h-145.13-145.13s-47.314 136.461-36.081 148.716 36.081-9.957 36.081-9.957-12.684 56.467 0 64.616 44.854-25.552 44.854-25.552l10 61.236h90.277 90.277l10-61.236s32.17 33.702 44.854 25.552 0-64.616 0-64.616 24.848 22.213 36.081 9.957c11.231-12.255-36.083-148.716-36.083-148.716z" fill="#e26e7e"/></g><g><path d="m374.73 480.707c-11.054-55.475-60.014-97.282-118.738-97.282s-107.684 41.808-118.738 97.282c-2.456 12.324 7.076 23.793 19.643 23.793h64.216l34.879-20 34.879 20h64.216c12.567 0 22.099-11.469 19.643-23.793z" fill="#89d47f"/></g><g><path d="m221.113 422.78h69.759v81.72h-69.759z" fill="#efd176"/></g><g><path d="m278.926 385.602c-7.427-1.424-15.092-2.177-22.934-2.177-58.724 0-107.684 41.808-118.738 97.282-2.456 12.324 7.076 23.793 19.643 23.793h23.877c0-59.03 42.247-108.184 98.152-118.898z" fill="#5ec783"/></g><g><path d="m222.992 432.78-15.174-58.167h96.335l-15.161 58.167z" fill="#e2cd9c"/></g><g><path d="m287.577 459.581c27.323-23.708 32.64-62.417 32.726-84.968h-16.15l-48.167 58.167 16.663 24.867c3.367 5.026 10.36 5.898 14.928 1.934z" fill="#f7ef87"/></g><g><path d="m224.394 459.581c-27.323-23.708-32.64-62.417-32.726-84.968h16.15l48.167 58.167-16.663 24.867c-3.366 5.026-10.359 5.898-14.928 1.934z" fill="#f7ef87"/></g><g><circle cx="401.119" cy="251.131" fill="#efdfb4" r="36.081"/></g><g><circle cx="110.861" cy="251.131" fill="#e2cd9c" r="36.081"/></g><g><circle cx="255.992" cy="251.128" fill="#fcf2d0" r="145"/></g><g><path d="m160.992 251.128c0-71.555 51.833-130.998 120-142.846-8.122-1.412-16.474-2.154-25-2.154-80.081 0-145 64.919-145 145s64.919 145 145 145c8.526 0 16.878-.743 25-2.154-68.167-11.848-120-71.29-120-142.846z" fill="#efdfb4"/></g><g><path d="m393.928 7.5h-275.872c-11.82 0-21.061 10.195-19.904 21.958l17.84 181.315h280l17.84-181.315c1.157-11.763-8.085-21.958-19.904-21.958z" fill="#89d47f"/></g><g><path d="m198.056 7.5h-80c-11.82 0-21.061 10.195-19.904 21.958l17.84 181.315h280l12.638-128.45c-1.312-.131-2.634-.203-3.964-.203h-168.417c-30.027 0-55.156-22.778-58.096-52.661-1.158-11.764 8.084-21.959 19.903-21.959z" fill="#5ec783"/></g><g><path d="m97.366 123.098 8.626 87.675h300l8.626-87.675c.579-5.881-4.042-10.979-9.952-10.979h-297.349c-5.909 0-10.53 5.098-9.951 10.979z" fill="#f7ef87"/></g><g><path d="m318.492 150.951h-101.588c-3.858 0-7.086-2.926-7.464-6.766l-2.075-21.087c-.579-5.881 4.042-10.979 9.952-10.979h-110c-5.91 0-10.531 5.098-9.952 10.979l8.626 87.675h110l-3.6-36.588c-.434-4.411 3.032-8.234 7.464-8.234h98.636c4.142 0 7.5-3.358 7.5-7.5.001-4.142-3.357-7.5-7.499-7.5z" fill="#efd176"/></g><g><g><path d="m368.035 115.621c-11.766 28.407-10.546 59.03.929 85.553 2.193 5.069 8.142 7.534 13.278 5.5 26.869-10.64 49.385-31.431 61.152-59.838s10.546-59.03-.929-85.553c-2.193-5.069-8.142-7.534-13.278-5.5-26.869 10.64-49.385 31.431-61.152 59.838z" fill="#e26e7e"/></g></g><g><g><path d="m255.991 238.109c-117.225 0-186.986-33.006-189.898-34.41-9.948-4.8-14.123-16.756-9.323-26.704 4.795-9.938 16.73-14.114 26.672-9.338 1.234.581 65.685 30.452 172.549 30.452 108.177 0 171.888-30.133 172.519-30.438 9.949-4.795 21.904-.625 26.704 9.323s.625 21.904-9.323 26.704c-2.913 1.406-72.674 34.411-189.9 34.411z" fill="#89d47f"/></g></g><g><path d="m255.992 238.109c-11.046 0-20-8.954-20-20s8.954-20 20-20c-106.864 0-171.315-29.871-172.549-30.452-9.941-4.776-21.877-.601-26.672 9.338-4.8 9.948-.625 21.904 9.323 26.704 2.912 1.405 72.672 34.41 189.898 34.41z" fill="#5ec783"/></g><g><g><g><ellipse cx="176.435" cy="310.122" fill="#eda1ab" rx="29.355" ry="23.377"/></g><g><ellipse cx="335.549" cy="310.122" fill="#eda1ab" rx="29.355" ry="23.377"/></g></g><g><path d="m279.685 292.115c0-14.643-10.608-16.019-23.693-16.019-13.086 0-23.693 1.376-23.693 16.019s10.608 26.513 23.693 26.513 23.693-11.87 23.693-26.513z" fill="#4e5660"/></g><g><path d="m207.306 264.111-24.065-6.448c-3.994-1.074-8.113 1.302-9.186 5.303-1.072 4.001 1.302 8.114 5.303 9.186l7.079 1.897c-.252.751-.395 1.552-.395 2.387v10.366c0 4.143 3.358 7.5 7.5 7.5s7.5-3.357 7.5-7.5v-8.84l2.381.638c.65.175 1.303.258 1.946.258 3.311 0 6.342-2.21 7.24-5.561 1.073-4.001-1.301-8.114-5.303-9.186z"/><path d="m337.928 262.966c-1.072-4.001-5.187-6.377-9.186-5.303l-24.065 6.448c-4.001 1.071-6.375 5.185-5.304 9.186.898 3.351 3.928 5.561 7.24 5.561.643 0 1.296-.083 1.946-.258l2.381-.638v8.84c0 4.143 3.358 7.5 7.5 7.5s7.5-3.357 7.5-7.5v-10.366c0-.836-.143-1.637-.395-2.387l7.079-1.897c4.002-1.072 6.376-5.185 5.304-9.186z"/><path d="m255.992 268.597c-9.334 0-31.193 0-31.193 23.519 0 18.755 13.993 34.013 31.193 34.013s31.193-15.258 31.193-34.013c0-23.519-21.859-23.519-31.193-23.519zm0 42.531c-8.929 0-16.193-8.529-16.193-19.013 0-5.907.655-8.519 16.193-8.519s16.193 2.611 16.193 8.519c0 10.484-7.264 19.013-16.193 19.013z"/></g></g><g><path d="m302.178 422.365c-16.029 0-46.186 22.709-46.186 22.709s-30.157-22.709-46.186-22.709-16.029 61.28 0 61.28 46.186-22.709 46.186-22.709 30.157 22.709 46.186 22.709c16.029.001 16.029-61.28 0-61.28z" fill="#e26e7e"/></g><g><circle cx="255.992" cy="453.005" fill="#e8899e" r="20.225"/></g><path d="m461.968 173.736c-3.387-7.021-9.391-11.945-16.278-14.185 1.693-3.206 3.244-6.493 4.633-9.846 12.166-29.37 11.819-61.83-.975-91.401-3.782-8.741-14.064-13.003-22.923-9.494-2.473.979-4.895 2.039-7.273 3.164l2.143-21.781c.759-7.709-1.79-15.422-6.992-21.161-5.202-5.74-12.629-9.032-20.376-9.032h-275.871c-7.747 0-15.173 3.292-20.376 9.031-5.202 5.739-7.75 13.452-6.992 21.161l7.573 76.974c-1.437.869-2.763 1.934-3.911 3.2-3.311 3.652-4.933 8.561-4.45 13.466l3.938 40.024c-4.598-1.781-7.039-2.907-7.15-2.959-13.645-6.556-30.096-.795-36.675 12.839-6.589 13.657-.839 30.128 12.82 36.719.865.417 7.502 3.558 19.381 7.804-9.298 8.098-14.936 19.966-14.936 32.872 0 12.627 5.404 24.012 14.014 31.979-5.897 20.193-10.194 36.938-12.773 49.787-4.8 23.927-3.18 31.67.73 35.936 8.731 9.526 21.117 6.476 30.966 1.377-.577 3.763-1.131 7.868-1.571 12.069-2.526 24.112-.009 37.206 8.161 42.455 8.322 5.348 20.037 2.049 35.811-10.085 2.851-2.194 5.558-4.461 7.979-6.588l3.046 18.652c-11.691 15.372-19.914 33.309-23.744 52.528-1.604 8.048.471 16.313 5.692 22.677 5.257 6.407 13.022 10.082 21.306 10.082h198.191c8.284 0 16.049-3.675 21.306-10.082 5.221-6.364 7.295-14.629 5.692-22.677-3.831-19.222-12.054-37.159-23.744-52.53l3.046-18.65c2.42 2.127 5.127 4.394 7.979 6.588 15.773 12.134 27.487 15.435 35.811 10.085 8.17-5.249 10.688-18.343 8.162-42.455-.44-4.201-.995-8.306-1.571-12.068 9.85 5.098 22.234 8.148 30.965-1.378 3.917-4.273 5.536-12.042.704-36.066-2.581-12.835-6.869-29.534-12.746-49.659 8.609-7.967 14.011-19.351 14.011-31.977 0-12.969-5.622-24.804-14.915-32.879 11.868-4.242 18.5-7.381 19.364-7.798 6.616-3.192 11.592-8.77 14.014-15.704 2.421-6.936 1.996-14.398-1.196-21.014zm-30.02-110.98c1.38-.548 3.044.142 3.634 1.505 11.168 25.812 11.481 54.118.883 79.704-2.266 5.473-5.015 10.746-8.179 15.711-1.017.35-2.026.755-3.018 1.234-.243.116-9.939 4.644-27.925 10.131l16.639-40.17c1.585-3.827-.232-8.214-4.059-9.799-3.828-1.588-8.214.232-9.799 4.059l-21.124 50.999c-3.017.76-6.171 1.517-9.462 2.266-4.321-20.205-2.488-40.793 5.428-59.905 10.597-25.587 30.834-45.381 56.982-55.735zm-326.483 57.684c.278-.307.888-.821 1.853-.821h181.835c4.142 0 7.5-3.357 7.5-7.5s-3.358-7.5-7.5-7.5h-176.07l-7.467-75.896c-.35-3.556.779-6.972 3.178-9.618 2.399-2.647 5.688-4.105 9.262-4.105h275.871c3.573 0 6.862 1.458 9.262 4.105 2.399 2.646 3.528 6.063 3.178 9.618l-3.183 32.352c-16.273 11.033-29.41 25.892-38.343 43.543h-45.688c-4.142 0-7.5 3.357-7.5 7.5s3.358 7.5 7.5 7.5h39.38c-6.854 19.959-8.111 41.086-3.674 61.857-26.43 5.096-59.713 9.133-98.867 9.133-68.312 0-119.189-12.481-146.539-21.265l-4.623-46.981c-.095-.958.357-1.615.635-1.922zm44.827 267.251c-.075.079-7.611 7.935-16.502 14.822-12.141 9.406-17.784 10.001-18.808 9.63-.465-.59-3.908-5.865-1.287-29.516 1.556-14.036 4.455-27.047 4.484-27.177.713-3.178-.71-6.449-3.516-8.102-2.805-1.65-6.36-1.302-8.794.861-7.644 6.8-20.633 14.289-25.111 10.896-.634-2.709-1.336-15.295 13.718-67.603 4.761 1.939 9.939 3.056 15.359 3.182 3.187 10.726 7.546 21.095 13.027 30.879 1.375 2.454 3.924 3.835 6.55 3.835 1.241 0 2.5-.309 3.659-.958 3.613-2.024 4.902-6.596 2.877-10.209-11.42-20.383-17.457-43.587-17.457-67.104 0-7.208.561-14.406 1.669-21.485 32.833 8.223 78.865 15.966 135.83 15.966 56.963 0 102.993-7.742 135.826-15.965 1.108 7.077 1.675 14.276 1.675 21.484 0 75.817-61.682 137.5-137.5 137.5-39.727 0-77.503-17.183-103.646-47.142-2.723-3.122-7.461-3.443-10.582-.721-3.121 2.724-3.443 7.461-.72 10.582 12.43 14.245 27.237 25.876 43.564 34.526.244 3.308.62 6.977 1.178 10.902-6.961 4.546-13.42 9.73-19.312 15.453l-3.358-20.566c-.458-2.807-2.466-5.112-5.183-5.954-2.713-.84-5.674-.071-7.64 1.984zm-44.166-108.378c-13.513-2.263-23.846-14.035-23.846-28.182 0-12.001 7.44-22.616 18.605-26.77 1.53.458 3.107.919 4.724 1.382-1.399 8.354-2.118 16.864-2.118 25.386.001 9.484.898 18.922 2.635 28.184zm173.527 159.258c12.861-7.324 19.43-8.583 22.101-8.696 1.792 1.619 4.946 9.753 4.946 23.13 0 13.378-3.154 21.512-4.946 23.131-2.669-.113-9.238-1.371-22.101-8.696 2.576-4.208 4.064-9.151 4.064-14.435s-1.488-10.227-4.064-14.434zm26.974-22.994c-1.375-.457-2.852-.712-4.449-.712-7.642 0-18.028 3.781-30.919 11.23l22.533-27.211c6.07-1.554 11.995-3.473 17.75-5.732-.891 6.782-2.397 14.519-4.915 22.425zm-50.641 5.445-15.028-18.148c4.973.493 9.989.755 15.034.755 5.064 0 10.07-.254 15.009-.739zm12.731 31.983c0 7.017-5.708 12.726-12.725 12.726s-12.725-5.709-12.725-12.726 5.708-12.725 12.725-12.725 12.725 5.708 12.725 12.725zm-36.386 14.436c-12.87 7.328-19.435 8.582-22.101 8.695-1.792-1.62-4.946-9.754-4.946-23.131 0-13.376 3.154-21.51 4.946-23.13 2.666.113 9.231 1.367 22.101 8.695-2.576 4.207-4.064 9.15-4.064 14.435s1.488 10.228 4.064 14.436zm-22.525-52.576c-1.232 0-2.775.174-4.45.755-2.521-7.9-4.034-15.647-4.931-22.48 5.775 2.26 11.695 4.16 17.722 5.704l22.553 27.235c-12.883-7.439-23.26-11.214-30.894-11.214zm3.807 82.135h-56.716c-3.774 0-7.313-1.676-9.709-4.597-2.36-2.877-3.3-6.606-2.578-10.23 5.545-27.827 21.512-52.623 44.351-69.357 1.316 5.131 2.988 10.413 5.102 15.686-.12.317-.239.637-.354.969-2.208 6.33-3.424 14.688-3.424 23.534 0 18.438 5.128 38.141 19.522 38.141 1.2 0 2.473-.101 3.807-.287v6.141zm69.758 0h-54.759v-10.833c4.677-2.079 9.804-4.804 15.37-8.175 3.635 1.754 7.71 2.738 12.01 2.738s8.375-.984 12.011-2.739c5.565 3.37 10.693 6.098 15.369 8.177v10.832zm84.004-14.827c.722 3.624-.217 7.354-2.578 10.23-2.396 2.921-5.936 4.597-9.709 4.597h-56.716v-6.141c1.334.185 2.607.286 3.807.286 14.394 0 19.522-19.702 19.522-38.141 0-8.613-1.12-17.5-3.78-24.528 2.112-5.27 3.78-10.549 5.092-15.669 22.845 16.733 38.815 41.53 44.362 69.366zm63.85-123.066c-4.478 3.396-17.467-4.097-25.104-10.891-2.429-2.171-5.984-2.525-8.796-.875-2.811 1.65-4.233 4.929-3.52 8.109.029.13 2.929 13.141 4.484 27.177 2.62 23.639-.818 28.92-1.286 29.515-1.033.37-6.68-.232-18.809-9.629-8.891-6.888-16.426-14.743-16.5-14.82-1.965-2.058-4.926-2.827-7.643-1.986-2.718.842-4.726 3.148-5.185 5.956l-3.358 20.565c-5.894-5.725-12.357-10.91-19.321-15.457.563-3.95.936-7.624 1.178-10.911 35.707-18.992 63.011-51.762 74.778-91.174 5.422-.126 10.601-1.243 15.364-3.183 15.055 52.31 14.353 64.895 13.718 67.604zm-24.85-133.365c1.618-.464 3.196-.925 4.727-1.383 11.182 4.152 18.599 14.708 18.599 26.771 0 14.14-10.324 25.908-23.829 28.179 1.714-9.137 2.621-18.555 2.621-28.182-.001-8.519-.72-17.033-2.118-25.385zm36.259-28.799c-2.851 1.375-71.153 33.666-186.642 33.666-115.488 0-183.79-32.291-186.639-33.665-3.007-1.451-5.27-3.986-6.37-7.139s-.908-6.544.543-9.552c2.148-4.452 6.612-7.058 11.275-7.058 1.827 0 3.686.4 5.446 1.246 2.703 1.272 67.429 31.167 175.745 31.167 109.942 0 175.135-30.872 175.775-31.182 6.208-2.991 13.699-.38 16.692 5.826 2.995 6.21.381 13.697-5.825 16.691z"/></g></svg>