<svg id="Capa_1" enable-background="new 0 0 512 512" height="512" viewBox="0 0 512 512" width="512" xmlns="http://www.w3.org/2000/svg"><g><g><g><path d="m256 43.501c-88.366 0-160 71.634-160 160v15.245h320v-15.246c0-88.365-71.635-159.999-160-159.999z" fill="#282d35"/></g></g><g><path d="m349.298 46.145c-5.184-6.366-28.793-6.322-50.962-4.708-16.025-19.896-32.501-33.937-42.336-33.937s-26.312 14.041-42.336 33.937c-22.169-1.613-45.778-1.657-50.962 4.708-10.298 12.646-39.202 180.855 93.298 180.855s103.596-168.209 93.298-180.855z" fill="#4e5660"/></g><g><path d="m285.004 182.483c-48.356 0-87.556-39.2-87.556-87.557 0-15.517 6.55-34.662 16.233-53.509-.005.006-.01.013-.016.019-22.169-1.613-45.778-1.657-50.962 4.708-10.299 12.647-39.203 180.856 93.297 180.856 63.025 0 89.531-38.058 98.892-79.329-15.984 21.145-41.339 34.812-69.888 34.812z" fill="#383c43"/></g><g><path d="m369.914 245.355c-7.626 18.41 1.117 39.516 19.527 47.142s39.516-1.117 47.142-19.527 13.862-33.466 25.881-62.483-74.323-9.138-92.55 34.868z" fill="#fcf2d0"/></g><g><path d="m142.086 245.355c7.626 18.41-1.117 39.516-19.527 47.142s-39.516-1.117-47.142-19.527-13.862-33.466-25.881-62.483 74.322-9.138 92.55 34.868z" fill="#efdfb4"/></g><g><path d="m156.904 504.5c-12.566 0-22.098-11.469-19.643-23.793 11.054-55.475 60.014-97.282 118.738-97.282s107.684 41.808 118.738 97.282c2.456 12.324-7.076 23.793-19.643 23.793z" fill="#282d35"/></g><g><path d="m268.526 504.5h-25.052l-47.474-71.72h120z" fill="#d3596e"/></g><g><path d="m223 432.78-15.174-58.167h96.335l-15.161 58.167z" fill="#efdfb4"/></g><g><path d="m287.585 459.581c27.323-23.708 32.64-62.417 32.726-84.968h-16.15l-48.167 58.167 16.663 24.867c3.366 5.026 10.359 5.898 14.928 1.934z" fill="#e8899e"/></g><g><path d="m224.402 459.581c-27.323-23.708-32.64-62.417-32.726-84.968h16.15l48.167 58.167-16.663 24.867c-3.366 5.026-10.359 5.898-14.928 1.934z" fill="#e8899e"/></g><g><path d="m243.474 504.5-61.215-146.585c-2.932-7.021-12.319-8.326-17.055-2.371-25.342 31.868-23.313 77.542 4.755 107.037l39.891 41.919z" fill="#4e5660"/></g><g><path d="m188.397 372.612-6.138-14.697c-2.932-7.021-12.319-8.326-17.055-2.371-25.342 31.868-23.313 77.542 4.755 107.037l39.891 41.918h33.623l-39.891-41.918c-23.359-24.547-28.665-60.294-15.185-89.969z" fill="#383c43"/></g><g><path d="m268.526 504.5 61.215-146.585c2.932-7.021 12.319-8.326 17.055-2.371 25.342 31.868 23.313 77.542-4.755 107.037l-39.892 41.919z" fill="#4e5660"/></g><g><path d="m346.795 355.545c-4.736-5.955-14.123-4.65-17.055 2.371l-61.214 146.584h33.623l55.077-131.887c-2.717-5.982-6.18-11.722-10.431-17.068z" fill="#383c43"/></g><g><g><path d="m241.875 138.538c-40.954-11.542-98.331 6.06-126.419 76.799-2.956 11.641-4.508 23.843-4.455 36.416.337 79.84 67.37 145.549 147.202 144.36 79.066-1.178 142.797-65.639 142.797-144.984 0-12.353-1.549-24.343-4.456-35.792-28.088-70.738-85.465-88.341-126.419-76.799-9.253 2.608-18.998 2.608-28.25 0z" fill="#fff"/></g></g><g><g><path d="m161 251.128c0-47.344 22.696-89.38 57.796-115.841-37.302-.373-80.232 21.854-103.34 80.05-2.956 11.641-4.508 23.843-4.455 36.416.337 79.84 67.37 145.549 147.202 144.36 7.761-.116 15.372-.85 22.792-2.139-68.164-11.85-119.995-71.292-119.995-142.846z" fill="#fcf2d0"/></g></g><g><g><g><ellipse cx="176.443" cy="300.122" fill="#eda1ab" rx="29.355" ry="23.377"/></g><g><ellipse cx="335.556" cy="300.122" fill="#eda1ab" rx="29.355" ry="23.377"/></g></g><g><path d="m193.551 285.119c-4.142 0-7.5-3.357-7.5-7.5v-12c0-4.143 3.358-7.5 7.5-7.5s7.5 3.357 7.5 7.5v12c0 4.143-3.358 7.5-7.5 7.5z"/></g><g><path d="m318.449 285.119c-4.142 0-7.5-3.357-7.5-7.5v-12c0-4.143 3.358-7.5 7.5-7.5s7.5 3.357 7.5 7.5v12c0 4.143-3.358 7.5-7.5 7.5z"/></g><path d="m279.957 277.262c-.001-2.092-.865-4.172-2.565-5.654-3.124-2.721-7.86-2.396-10.582.727-2.729 3.132-6.669 4.928-10.81 4.928s-8.081-1.796-10.81-4.928c-2.721-3.122-7.459-3.447-10.582-.727-1.701 1.482-2.565 3.563-2.565 5.654h-.007v22c0 4.143 3.358 7.5 7.5 7.5s7.5-3.357 7.5-7.5v-8.411c2.868.922 5.888 1.411 8.964 1.411 3.077 0 6.096-.49 8.964-1.411v8.411c0 4.143 3.358 7.5 7.5 7.5s7.5-3.357 7.5-7.5v-22z"/></g><path d="m465.751 194.096c-8.383-6.86-25.256-5.667-42.516-.009-.811-14.641-3.513-29.035-8.07-42.906-1.292-3.936-5.531-6.078-9.466-4.784-3.935 1.293-6.077 5.53-4.785 9.466 4.671 14.219 7.202 29.046 7.542 44.126-2.885 1.361-5.712 2.821-8.442 4.367-9.727-21.406-22.8-38.955-38.561-51.867 4.473-18 5.778-36.856 5.249-53.879 8.821 9.297 16.422 19.644 22.687 30.914 1.371 2.467 3.927 3.857 6.562 3.857 1.233 0 2.483-.305 3.637-.945 3.621-2.013 4.924-6.579 2.912-10.199-9.722-17.49-22.373-32.956-37.599-45.995-2.31-17.461-6.317-30.571-9.786-34.831-4.281-5.256-14.05-10.235-53.427-7.719-11.503-13.822-30.657-33.692-45.688-33.692s-34.185 19.87-45.687 33.69c-39.375-2.518-49.146 2.463-53.427 7.719-3.475 4.267-7.483 17.382-9.793 34.846-34.877 29.868-55.795 72.263-58.331 117.841-17.272-5.655-34.165-6.847-42.527.011-2.604 2.135-8.17 8.286-3.629 19.25l25.881 62.482c6.881 16.612 22.865 26.932 40.151 26.932 1.296 0 2.601-.075 3.909-.193 7.714 21.18 20.215 40.634 36.964 57.067.776.761 1.562 1.509 2.35 2.252-8.986 15.627-13.091 33.827-11.577 51.891.701 8.364 2.612 16.552 5.585 24.324-7.691 12.725-13.057 26.546-15.964 41.129-1.604 8.048.471 16.313 5.692 22.677 5.258 6.407 13.023 10.082 21.307 10.082h198.191c8.284 0 16.049-3.675 21.306-10.082 5.221-6.364 7.295-14.629 5.692-22.677-2.907-14.586-8.275-28.406-15.966-41.129 2.933-7.668 4.834-15.738 5.557-23.981 1.58-18.007-2.434-36.193-11.314-51.826 1.426-1.341 2.838-2.704 4.22-4.105 15.813-16.036 27.654-34.978 35.032-55.602 1.271.111 2.54.185 3.8.185 17.269 0 33.189-10.282 40.089-26.942l25.881-62.482c4.547-10.976-1.032-17.128-3.641-19.263zm-252.631-145.179c2.451.173 4.841-.858 6.385-2.776 18.402-22.848 31.907-31.141 36.495-31.141s18.093 8.293 36.495 31.141c1.544 1.918 3.935 2.952 6.385 2.776 36.205-2.635 43.685 1.387 44.636 2.035 3.535 5.808 13.613 49.244 4.696 92.167-2.17-1.312-4.376-2.553-6.625-3.708-23.352-11.994-49.454-14.869-73.496-8.092-7.909 2.23-16.27 2.23-24.18 0-24.042-6.775-50.144-3.901-73.496 8.092-2.249 1.155-4.456 2.397-6.626 3.708-8.92-42.924 1.156-86.356 4.696-92.167.95-.648 8.428-4.671 44.635-2.035zm-67.827 49.709c-.527 17.017.781 35.866 5.253 53.862-15.761 12.912-28.834 30.459-38.56 51.865-2.727-1.543-5.554-3-8.438-4.359.865-38.068 15.796-74.012 41.745-101.368zm-62.947 171.474-25.881-62.482c-.421-1.017-.546-1.695-.569-2.034 1.466-1.04 7.722-2.256 19.058.204 10.612 2.302 22.047 6.963 32.001 12.986-2.334 10.805-3.5 21.883-3.453 33.011.052 12.266 1.588 24.318 4.506 35.968-11.074-.26-21.237-6.97-25.662-17.653zm103.653 116.234 12.731 30.485c1.202 2.878 3.989 4.611 6.924 4.611.963 0 1.943-.187 2.887-.581 3.822-1.597 5.627-5.989 4.031-9.812l-6.681-15.997c4.012 1.42 8.086 2.662 12.208 3.736l28.549 34.477-13.548 20.22c-.585.872-1.507 1.171-2.363 1.067l-6.605-15.816c-1.596-3.822-5.99-5.628-9.811-4.031-3.822 1.597-5.627 5.989-4.031 9.811l21.924 52.496h-19.148l-37.673-39.589c-22.274-23.407-26.724-57.617-11.907-85.571 7.133 5.523 14.664 10.362 22.513 14.494zm62.47 110.666-11.855-28.388c3.544-1.185 6.733-3.485 8.947-6.79l10.433-15.569 10.432 15.569c2.176 3.248 5.305 5.602 8.947 6.818l-11.843 28.36zm32.789-42.453c-.324.037-.607.01-.798-.027-.457-.088-1.101-.341-1.574-1.047l-13.548-20.219 28.427-34.328c4.14-1.051 8.227-2.268 12.249-3.66zm-25.264-33.526-15.025-18.145c4.98.498 10.007.752 15.068.752.758 0 1.519-.006 2.278-.018 4.262-.063 8.494-.312 12.692-.72zm-108.799 71.382c-2.36-2.877-3.3-6.606-2.578-10.23 1.932-9.694 5.101-19.005 9.446-27.813 3.046 4.766 6.535 9.263 10.463 13.391l27.835 29.249h-35.456c-3.775 0-7.314-1.676-9.71-4.597zm220.188-10.23c.722 3.624-.217 7.354-2.578 10.23-2.396 2.921-5.936 4.597-9.709 4.597h-35.456l27.834-29.249c3.928-4.127 7.417-8.625 10.464-13.393 4.344 8.807 7.513 18.119 9.445 27.815zm-30.776-24.762-37.674 39.589h-19.148l46.025-110.212c8.015-4.135 15.675-9.005 22.904-14.562 14.547 27.877 10.007 61.946-12.107 85.185zm-78.515-68.798c-36.607.555-71.44-13.545-98.075-39.676-26.617-26.112-41.361-60.638-41.515-97.217-.049-11.521 1.333-22.979 4.105-34.068 26.069-65.135 77.627-83.061 117.233-71.896 10.572 2.98 21.748 2.98 32.32 0 39.608-11.163 91.164 6.761 117.233 71.896 2.725 10.897 4.107 22.157 4.107 33.477 0 74.697-60.744 136.372-135.408 137.484zm197.443-180.996-25.881 62.483c-4.43 10.697-14.526 17.382-25.567 17.661 2.911-11.85 4.413-24.13 4.413-36.632 0-10.906-1.167-21.764-3.456-32.357 9.925-6.005 21.319-10.655 31.914-12.967 11.391-2.485 17.676-1.268 19.146-.223-.023.34-.148 1.019-.569 2.035z"/></g></svg>