<svg id="Capa_1" enable-background="new 0 0 512 512" height="512" viewBox="0 0 512 512" width="512" xmlns="http://www.w3.org/2000/svg"><g><g><path d="m316 154.757v-87.257h-120v87.257c-69.909 24.712-120 91.372-120 169.743 0 99.411 0 180 180 180s180-80.589 180-180c0-78.371-50.091-145.031-120-169.743z" fill="#908cd6"/></g><g><path d="m196.008 324.5c0-78.369 50.089-145.029 119.996-169.742-.001 0-.003-.001-.004-.001v-87.257h-120v87.257c-69.909 24.712-120 91.372-120 169.743 0 99.411 0 180 180 180 22.759 0 42.636-1.291 60.004-3.742-119.991-16.94-119.996-89.416-119.996-176.258z" fill="#6c6cc1"/></g><g><path d="m256 464.5c-67.356 0-108.109-11.598-124.588-35.454-15.412-22.313-15.412-60.42-15.412-104.546 0-77.196 62.804-140 140-140s140 62.804 140 140c0 44.126 0 82.233-15.412 104.546-16.479 23.856-57.232 35.454-124.588 35.454z" fill="#4e5660"/></g><g><path d="m196.008 324.5c0-56.458 26-106.835 66.671-139.837-2.214-.104-4.44-.163-6.679-.163-77.196 0-140 62.804-140 140 0 44.126 0 82.233 15.412 104.546 14.091 20.399 45.948 31.827 96.992 34.713-32.392-33.01-32.396-83.134-32.396-139.259z" fill="#383c43"/></g><g><path d="m336 316.576c0-45.257-37.58-81.737-83.237-79.936-41.203 1.625-74.804 35.009-76.678 76.201-1.564 34.386 18.598 64.246 47.915 77.059 0 17.378 14.088 31.466 31.466 31.466h1.067c17.378 0 31.466-14.088 31.466-31.466 28.251-12.346 48.001-40.522 48.001-73.324z" fill="#fff"/></g><g><path d="m240.085 312.842c1.412-31.044 20.848-57.645 47.973-69.568-10.741-4.704-22.708-7.13-35.295-6.634-41.203 1.625-74.804 35.009-76.678 76.202-1.564 34.386 18.598 64.246 47.915 77.059 0 17.378 14.088 31.466 31.466 31.466h1.067c17.378 0 31.466-14.088 31.466-31.466-29.316-12.813-49.478-42.673-47.914-77.059z" fill="#fcf2d0"/></g><g><path d="m232.314 315.882-24.065-6.448c-3.996-1.073-8.113 1.302-9.186 5.303-1.072 4.001 1.302 8.114 5.303 9.186l7.078 1.897c-.252.75-.394 1.551-.394 2.386v10.366c0 4.143 3.358 7.5 7.5 7.5s7.5-3.357 7.5-7.5v-8.839l2.381.638c.65.175 1.303.258 1.946.258 3.311 0 6.342-2.21 7.24-5.561 1.073-4.002-1.301-8.115-5.303-9.186z"/><path d="m312.936 314.736c-1.072-4.001-5.187-6.379-9.186-5.303l-24.065 6.448c-4.001 1.071-6.375 5.185-5.304 9.186.898 3.351 3.928 5.561 7.24 5.561.643 0 1.296-.083 1.946-.258l2.381-.638v8.839c0 4.143 3.358 7.5 7.5 7.5s7.5-3.357 7.5-7.5v-10.366c0-.835-.142-1.636-.394-2.386l7.078-1.897c4.002-1.071 6.376-5.185 5.304-9.186z"/></g><g><path d="m336 47.5h-160c-11.046 0-20-8.954-20-20 0-11.046 8.954-20 20-20h160c11.046 0 20 8.954 20 20 0 11.046-8.954 20-20 20z" fill="#b49cdc"/></g><g><path d="m256 27.5c0-11.046 8.954-20 20-20h-100c-11.046 0-20 8.954-20 20 0 11.046 8.954 20 20 20h100c-11.046 0-20-8.954-20-20z" fill="#908cd6"/></g><g><path d="m336 87.5h-160c-11.046 0-20-8.954-20-20 0-11.046 8.954-20 20-20h160c11.046 0 20 8.954 20 20 0 11.046-8.954 20-20 20z" fill="#908cd6"/></g><g><path d="m323.5 149.533v-54.533h12.5c15.164 0 27.5-12.337 27.5-27.5 0-7.875-3.332-14.982-8.655-20 5.323-5.018 8.655-12.125 8.655-20 0-15.163-12.336-27.5-27.5-27.5h-160c-15.164 0-27.5 12.337-27.5 27.5 0 7.875 3.332 14.982 8.655 20-5.323 5.018-8.655 12.125-8.655 20 0 15.163 12.336 27.5 27.5 27.5h12.5v54.533c-71.998 27.777-120 97.42-120 174.967 0 49.906 0 97.044 23.829 131.542 26.371 38.177 78.378 55.958 163.671 55.958s137.3-17.781 163.671-55.958c23.829-34.498 23.829-81.636 23.829-131.542 0-77.547-48.002-147.189-120-174.967zm-160-82.033c0-6.893 5.607-12.5 12.5-12.5h35.65c4.142 0 7.5-3.357 7.5-7.5s-3.358-7.5-7.5-7.5h-35.65c-6.893 0-12.5-5.607-12.5-12.5s5.607-12.5 12.5-12.5h160c6.893 0 12.5 5.607 12.5 12.5s-5.607 12.5-12.5 12.5h-94.35c-4.142 0-7.5 3.357-7.5 7.5s3.358 7.5 7.5 7.5h94.35c6.893 0 12.5 5.607 12.5 12.5s-5.607 12.5-12.5 12.5h-160c-6.893 0-12.5-5.607-12.5-12.5zm243.829 380.017c-23.319 33.759-71.405 49.483-151.329 49.483s-128.01-15.724-151.329-49.483c-21.171-30.65-21.171-73.454-21.171-123.017 0-72.984 46.215-138.357 115-162.672 2.997-1.06 5-3.893 5-7.071v-59.757h105v59.757c0 3.179 2.003 6.012 5 7.071 68.785 24.314 115 89.688 115 162.672 0 49.563 0 92.367-21.171 123.017z"/><path d="m256 177c-81.332 0-147.5 66.168-147.5 147.5 0 45.38 0 84.572 16.741 108.809 17.985 26.035 60.756 38.691 130.759 38.691s112.774-12.656 130.759-38.691c16.741-24.237 16.741-63.429 16.741-108.809 0-81.332-66.168-147.5-147.5-147.5zm118.417 247.783c-14.767 21.378-54.608 32.217-118.417 32.217s-103.65-10.839-118.417-32.217c-14.083-20.388-14.083-57.412-14.083-100.283 0-73.061 59.439-132.5 132.5-132.5s132.5 59.439 132.5 132.5c0 42.871 0 79.895-14.083 100.283z"/><path d="m321.474 269.988c-3.582 2.079-4.801 6.669-2.721 10.251 6.377 10.987 9.748 23.552 9.748 36.337 0 28.817-17.076 54.901-43.503 66.452-2.731 1.193-4.497 3.892-4.497 6.872 0 13.215-10.751 23.967-23.966 23.967h-1.067c-13.215 0-23.966-10.752-23.966-23.967 0-2.98-1.765-5.679-4.497-6.872-27.759-12.132-44.805-39.548-43.426-69.846 1.695-37.249 32.214-67.578 69.481-69.048 17.314-.684 34.322 4.829 47.854 15.524 3.249 2.569 7.966 2.018 10.535-1.233 2.568-3.25 2.016-7.966-1.234-10.534-16.338-12.912-36.845-19.57-57.747-18.745-44.987 1.774-81.829 38.388-83.875 83.354-.826 18.146 3.857 35.777 13.543 50.988 8.575 13.468 20.499 24.223 34.672 31.321 2.422 19.177 18.835 34.057 38.659 34.057h1.067c19.823 0 36.237-14.881 38.659-34.058 29.494-14.782 48.308-45.001 48.308-78.233 0-15.427-4.072-30.595-11.775-43.866-2.08-3.582-6.668-4.799-10.252-2.721z"/></g></g></svg>