<svg id="Capa_1" enable-background="new 0 0 512.021 512.021" height="512" viewBox="0 0 512.021 512.021" width="512" xmlns="http://www.w3.org/2000/svg"><g><g><g><g><path d="m165.127 108.413c12.917 31.184 37.635 54.008 67.131 65.689 5.638 2.233 12.169-.473 14.576-6.038 12.598-29.116 13.937-62.733 1.02-93.918-12.917-31.184-37.635-54.008-67.131-65.689-5.638-2.233-12.169.473-14.576 6.038-12.598 29.117-13.937 62.734-1.02 93.918z" fill="#89d47f"/></g></g></g><g><path d="m247.854 74.147c-6.465-15.607-15.885-29.119-27.381-40.189.038 1.038.079 2.075.079 3.122 0 35.298-21.586 65.544-52.272 78.287 13.555 27.627 36.723 47.942 63.978 58.735 5.638 2.233 12.169-.473 14.576-6.038 12.598-29.116 13.937-62.733 1.02-93.917z" fill="#5ec783"/></g><g><path d="m346.01 7.5c-66.274 0-120 53.726-120 120v67.33h60v-72.191c0-36.495 26.862-67.424 62.997-72.535 10.56-1.494 18.409-10.532 18.409-21.196.002-11.824-9.583-21.408-21.406-21.408z" fill="#d2996f"/></g><g><path d="m267.25 110.591c-16.739 0-30.5-12.745-32.112-29.06-5.877 14.159-9.128 29.684-9.128 45.969v67.33h60v-72.191c0-7.057 1.015-13.901 2.896-20.396-5.725 5.187-13.321 8.348-21.656 8.348z" fill="#c18053"/></g><g><path d="m474.945 230.031h-413.008v199.432c47.531 61.424 116.806 90.523 174.095 66.793.071-.029.142-.059.213-.089 12.68-5.284 26.851-5.284 39.531 0 .071.03.142.059.213.089 68.354 28.313 153.77-18.581 198.956-105.859z" fill="#e26e7e"/></g><g><path d="m153.885 369.528c-19.958-48.184-24.371-97.67-15.45-139.497h-76.498v199.432c47.531 61.424 116.806 90.523 174.095 66.793.071-.029.142-.059.213-.089 11.086-4.62 23.312-5.2 34.685-1.741-47.425-19.03-91.779-63.901-117.045-124.898z" fill="#d3596e"/></g><g><path d="m504.511 272.991v89.89c0 7.62-3.09 14.53-8.09 19.52-4.99 5-11.89 8.09-19.52 8.09-8.24 0-15.63-3.61-20.67-9.33-4.33-4.87-6.94-11.27-6.94-18.28v-85.71c0-7.63-3.09-14.53-8.09-19.52-4.99-5-11.89-8.09-19.52-8.09-15.25 0-27.61 12.36-27.61 27.61v10.29c0 7.62-3.09 14.53-8.09 19.52-5 5-11.91 8.09-19.53 8.09-15.24 0-27.61 12.36-27.61 27.61v58.326c0 7.63-3.09 14.53-8.09 19.52-4.99 5-11.9 8.09-19.52 8.09-15.25 0-27.61-12.36-27.61-27.61v-37.886c0-7.62-3.09-14.53-8.09-19.52-4.99-5-11.9-8.09-19.52-8.09-15.25 0-27.61 12.36-27.61 27.61v5.241c0 7.62-3.09 14.53-8.09 19.52-4.99 5-11.9 8.09-19.52 8.09-15.25 0-27.61-12.36-27.61-27.61v-81.751c0-7.63-3.09-14.53-8.09-19.53s-11.9-8.09-19.52-8.09c-15.25 0-27.62 12.37-27.62 27.62v29.93c0 7.62-3.09 14.53-8.09 19.53-4.99 5-11.89 8.09-19.52 8.09-15.25 0-27.61 12.36-27.61 27.61v51.11c0 7.01-2.61 13.41-6.94 18.28-.36.43-.75.84-1.15 1.24-4.99 5-11.89 8.09-19.52 8.09-15.25 0-27.61-12.36-27.61-27.61v-149.89c0-64.72 27.98-119.99 77.79-140.62 44.32-18.36 95.8-5.1 138.85 30.27 18.53 15.24 45.19 15.24 63.72 0 43.05-35.37 94.53-48.63 138.85-30.27 49.81 20.63 77.79 75.9 77.79 140.62z" fill="#b49cdc"/></g><g><path d="m193.634 142.057c-35.594-19.169-74.099-23.868-108.334-9.686-49.81 20.63-77.79 75.9-77.79 140.62v149.89c0 15.25 12.36 27.61 27.61 27.61 7.63 0 14.53-3.09 19.52-8.09.4-.4.79-.81 1.15-1.24 4.33-4.87 6.94-11.27 6.94-18.28v-51.11c0-15.25 12.36-27.61 27.61-27.61 7.63 0 14.53-3.09 19.52-8.09 5-5 8.09-11.91 8.09-19.53v-29.93c0-11.251 6.737-20.928 16.393-25.233 2.723-51.448 23.579-95.688 59.291-119.321z" fill="#908cd6"/></g><g><g><path d="m190.769 229.758c-6.252 0-12.196-2.703-16.313-7.419-2.724-3.121-2.402-7.858.718-10.583 3.122-2.722 7.858-2.401 10.583.718 1.267 1.452 3.094 2.284 5.013 2.284h.006c1.921-.002 3.749-.838 5.016-2.293 2.719-3.126 7.457-3.455 10.58-.736 3.126 2.718 3.455 7.455.736 10.58-4.112 4.729-10.061 7.443-16.318 7.449-.009 0-.016 0-.021 0z"/></g><g><path d="m321.179 229.635c-6.253 0-12.198-2.704-16.313-7.42-2.724-3.121-2.401-7.859.719-10.582 3.122-2.723 7.859-2.402 10.582.719 1.267 1.451 3.094 2.283 5.013 2.283h.006c1.92-.002 3.748-.838 5.015-2.293 2.719-3.126 7.457-3.456 10.58-.736 3.126 2.718 3.455 7.455.736 10.58-4.112 4.729-10.06 7.443-16.317 7.449-.009 0-.015 0-.021 0z"/></g><g><path d="m272.478 241.281c-2.093 0-4.175-.871-5.657-2.573-2.729-3.132-6.669-4.928-10.81-4.928s-8.08 1.796-10.81 4.928c-2.721 3.123-7.46 3.447-10.581.728-3.123-2.721-3.449-7.459-.728-10.581 5.578-6.402 13.641-10.074 22.118-10.074s16.54 3.672 22.118 10.074c2.722 3.122 2.396 7.86-.728 10.581-1.42 1.238-3.174 1.845-4.922 1.845z"/></g></g><path d="m429.591 125.442c-22.813-9.451-48.557-11.316-74.443-5.396-20.944 4.79-42.032 14.685-61.637 28.812v-26.219c0-32.559 24.311-60.549 56.548-65.109 14.172-2.004 24.859-14.309 24.859-28.622 0-15.94-12.968-28.908-28.908-28.908-40.59 0-78.187 19.528-101.902 50.94-14.358-22.165-35.538-39.522-60.623-49.456-9.362-3.707-20.225.795-24.223 10.033-13.965 32.278-14.344 67.709-1.065 99.766 1.459 3.524 3.082 6.97 4.845 10.337-2.056-.567-4.113-1.104-6.168-1.574-25.887-5.922-51.63-4.056-74.443 5.396-50.838 21.057-82.42 77.594-82.42 147.55v149.89c0 19.36 15.75 35.11 35.11 35.11 9.387 0 18.204-3.655 24.823-10.286.591-.592 1.077-1.115 1.52-1.637.759-.859 1.469-1.754 2.135-2.676 23.006 26.963 50.172 47.061 79.128 58.436 17.286 6.791 34.536 10.192 51.262 10.192 15.581 0 30.706-2.952 44.979-8.864l.161-.067c10.887-4.536 22.877-4.536 33.715-.02l.274.114c14.299 5.923 29.346 8.755 44.66 8.754 59.745-.004 123.452-43.125 161.686-114.049 8.419-.604 16.247-4.161 22.254-10.179 6.637-6.624 10.292-15.441 10.292-24.829v-89.89c.001-69.956-31.581-126.493-82.419-147.549zm-257.535-19.899c-11.711-28.272-11.365-59.55.974-88.068.802-1.851 3.063-2.787 4.933-2.043 24.3 9.622 44.423 27.111 57.007 49.407-3.346 5.908-6.254 12.123-8.647 18.625-1.431 3.888.561 8.198 4.447 9.629 3.887 1.43 8.198-.562 9.629-4.447 16.211-44.05 58.654-73.646 105.612-73.646 7.669 0 13.907 6.238 13.907 13.907 0 6.886-5.142 12.806-11.961 13.771-19.266 2.725-36.902 12.316-49.661 27.007s-19.785 33.496-19.785 52.954v37.504c-13.735 8.52-31.27 8.52-45.006-.004 0-.04.006-.078.006-.118v-32.522c0-3.687.181-7.411.537-11.071.401-4.122-2.615-7.79-6.738-8.191-4.127-.398-7.789 2.615-8.191 6.738-.403 4.141-.607 8.354-.607 12.524v21.358c-10.503-7.569-21.431-13.919-32.538-18.919-5.625-7.479-10.31-15.682-13.918-24.395zm324.955 257.338c0 5.375-2.091 10.423-5.898 14.223-3.789 3.797-8.837 5.888-14.212 5.888-5.759 0-11.241-2.475-15.065-6.813-3.253-3.658-5.044-8.381-5.044-13.297v-85.71c0-9.386-3.655-18.203-10.282-24.817-6.622-6.637-15.44-10.292-24.828-10.292-19.359 0-35.109 15.75-35.109 35.109v10.29c0 5.375-2.092 10.422-5.895 14.217-3.8 3.801-8.853 5.894-14.227 5.894-19.359 0-35.109 15.75-35.109 35.109v9.584c0 4.143 3.357 7.5 7.5 7.5s7.5-3.357 7.5-7.5v-9.584c0-11.088 9.021-20.109 20.109-20.109 9.381 0 18.2-3.653 24.828-10.281 6.638-6.624 10.293-15.442 10.293-24.829v-10.29c0-11.088 9.021-20.109 20.109-20.109 5.375 0 10.422 2.091 14.222 5.898 3.797 3.79 5.889 8.837 5.889 14.211v85.71c0 8.595 3.138 16.856 8.813 23.238 3.625 4.114 8.126 7.262 13.099 9.283-44.827 79.245-123.111 119.494-184.901 93.901l-.141-.059c-14.607-6.087-30.695-6.087-45.348.02l-.151.063c-51.486 21.325-116.774-3.519-163.237-61.842.2-1.518.306-3.056.306-4.604v-51.109c0-11.089 9.021-20.11 20.11-20.11 9.388 0 18.206-3.655 24.823-10.286 6.633-6.634 10.286-15.453 10.286-24.834v-29.93c0-11.095 9.026-20.12 20.121-20.12 5.367 0 10.416 2.093 14.216 5.894 3.801 3.8 5.894 8.853 5.894 14.227v81.75c0 19.36 15.75 35.11 35.11 35.11 9.388 0 18.206-3.655 24.817-10.281 6.637-6.624 10.292-15.441 10.292-24.829v-5.24c0-11.089 9.021-20.11 20.11-20.11 5.375 0 10.422 2.091 14.222 5.899 3.798 3.789 5.889 8.836 5.889 14.211v37.886c0 19.36 15.75 35.11 35.109 35.11 9.388 0 18.205-3.655 24.818-10.281 6.637-6.624 10.292-15.441 10.292-24.829v-18.742c0-4.143-3.357-7.5-7.5-7.5s-7.5 3.357-7.5 7.5v18.742c0 5.375-2.091 10.423-5.898 14.223-3.789 3.797-8.837 5.888-14.212 5.888-11.088 0-20.109-9.021-20.109-20.11v-37.886c0-9.388-3.655-18.205-10.282-24.817-6.623-6.638-15.44-10.293-24.828-10.293-19.36 0-35.11 15.75-35.11 35.11v5.24c0 5.375-2.091 10.423-5.898 14.223-3.789 3.797-8.836 5.888-14.211 5.888-11.089 0-20.11-9.021-20.11-20.11v-81.75c0-9.381-3.653-18.2-10.286-24.834-6.634-6.633-15.449-10.286-24.823-10.286-19.366 0-35.121 15.755-35.121 35.12v29.93c0 5.374-2.093 10.427-5.898 14.232-3.789 3.797-8.836 5.888-14.211 5.888-19.36 0-35.11 15.75-35.11 35.11v51.109c0 4.916-1.791 9.639-5.044 13.297-.049.054-.096.108-.143.164-.174.208-.398.448-.712.762-3.789 3.797-8.836 5.888-14.211 5.888-11.089 0-20.11-9.021-20.11-20.11v-149.89c0-63.773 28.033-115.001 73.16-133.691 39.86-16.511 88.913-5.621 131.216 29.135 21.223 17.453 52.028 17.451 73.245.002 42.303-34.757 91.357-45.65 131.219-29.136 45.127 18.689 73.16 69.917 73.16 133.69v89.884z"/></g></svg>