<svg id="Capa_1" enable-background="new 0 0 512 512" height="512" viewBox="0 0 512 512" width="512" xmlns="http://www.w3.org/2000/svg"><g><g><path d="m256 84.5c-115.98 0-210 94.02-210 210s94.02 210 210 210 210-94.02 210-210-94.02-210-210-210zm0 380c-93.738 0-170-76.262-170-170s76.262-170 170-170 170 76.262 170 170-76.262 170-170 170z" fill="#efd176"/></g><g><path d="m236 484.5c0-11.046 8.954-20 20-20-93.738 0-170-76.262-170-170s76.262-170 170-170c-11.046 0-20-8.954-20-20s8.954-20 20-20c-115.98 0-210 94.02-210 210s94.02 210 210 210c-11.046 0-20-8.954-20-20z" fill="#e0bb5f"/></g><g><path d="m120.171 57.506c-.678 5.88-.06 11.906 1.919 17.635l23.91 69.239 110 60.12 110-60.12 23.91-69.239c1.979-5.729 2.596-11.755 1.919-17.635l-135.829-25.003z" fill="#908cd6"/></g><g><path d="m153.068 57.506 29.745 106.994 48.459 26.485-10-133.479z" fill="#6c6cc1"/></g><g><path d="m358.932 57.506-20.444 101.911-57.76 31.568 10-133.479z" fill="#6c6cc1"/></g><g><path d="m486 127.513c0-11.046-8.954-20-20-20h-63.562-.121c-20.662 0-40.007 10.082-51.871 26.999-15.56 22.188-44.935 49.988-94.446 49.988-34.032 0-62.48-12.487-84.554-37.114-3.607-4.024-6.796-8.167-9.58-12.189-11.918-17.222-31.361-27.685-52.304-27.685h-63.562c-11.046 0-20 8.954-20 20 0 11.046 8.954 20 20 20h65.385c6.49 0 12.576 3.188 16.22 8.559 3.647 5.376 7.905 11.011 12.831 16.631 29.697 33.887 69.659 51.798 115.564 51.798s85.866-17.911 115.564-51.797c4.925-5.62 9.183-11.255 12.83-16.631 3.644-5.371 9.73-8.559 16.22-8.559h65.386c11.046 0 20-8.954 20-20z" fill="#f7ef87"/></g><g><path d="m313.016 194.04c-5.592-8.32-4.262-19.249 2.636-26.03-15.433 9.626-35.055 16.49-59.652 16.49-22.003 0-41.669-5.228-58.79-15.573 6.128 6.819 7.121 17.157 1.773 25.113-5.671 8.438-16.514 11.289-25.472 7.214 24.015 15.3 51.932 23.246 82.488 23.246 30.555 0 58.472-7.946 82.487-23.246-8.957 4.074-19.799 1.223-25.47-7.214z" fill="#efd176"/></g><g><circle cx="256" cy="204.5" fill="#f7ef87" r="40"/></g><g><path d="m391.829 57.506c-.645-5.594-2.461-11.055-5.427-15.999l-14.576-24.296c-3.615-6.024-10.125-9.711-17.15-9.711h-197.352c-7.026 0-13.536 3.687-17.15 9.711l-14.576 24.296c-2.966 4.944-4.782 10.406-5.427 15.999z" fill="#b49cdc"/></g><g><path d="m231.272 7.5h-48.204l-30 50.006h68.204z" fill="#908cd6"/></g><g><path d="m280.728 7.5h48.204l30 50.006h-68.204z" fill="#908cd6"/></g><path d="m493.5 127.513c0-15.163-12.337-27.5-27.5-27.5h-63.682c-4.579 0-9.101.452-13.516 1.313l8.197-23.735c4.597-13.31 3.078-27.868-4.166-39.941l-14.575-24.296c-4.942-8.238-13.978-13.354-23.582-13.354h-197.352c-9.604 0-18.641 5.116-23.582 13.353l-14.575 24.296c-7.244 12.073-8.763 26.632-4.166 39.941l8.21 23.775c-4.459-.887-9.026-1.353-13.648-1.353h-63.563c-15.163 0-27.5 12.337-27.5 27.5s12.337 27.5 27.5 27.5h43.107c-32.744 39.077-50.607 88.016-50.607 139.488 0 58.097 22.624 112.715 63.704 153.796 41.081 41.08 95.699 63.704 153.796 63.704s112.715-22.624 153.796-63.704c41.08-41.081 63.704-95.699 63.704-153.796 0-51.483-17.863-100.411-50.61-139.487h43.11c15.163 0 27.5-12.337 27.5-27.5zm-27.5-12.5c6.893 0 12.5 5.607 12.5 12.5s-5.607 12.5-12.5 12.5h-65.385c-9.01 0-17.395 4.43-22.427 11.849-3.798 5.598-7.925 10.946-12.265 15.898-17.538 20.011-38.597 34.071-62.714 41.941.187-1.709.291-3.443.291-5.2 0-7.145-1.596-13.921-4.434-20.006 28.267-10.557 46.728-30.284 57.522-45.675 10.453-14.906 27.549-23.806 45.73-23.806h63.682zm-278.766 37.393c-.003-.01-.004-.021-.007-.031l-24.289-87.369h51.375l7.948 106.097c-.238.24-.468.49-.701.735-12.579-4.064-24.07-10.577-34.326-19.432zm34.89-137.406-7 35.006h-48.81l21.001-35.006zm52.454 0 7.001 35.006h-51.158l7.001-35.006zm50.107 0 21.001 35.006h-48.81l-7-35.006zm.25 136.794c-9.153 7.943-20.605 15.234-34.647 19.885-.184-.192-.363-.388-.55-.577l3.45-46.052c.309-4.131-2.788-7.73-6.919-8.04-4.145-.298-7.73 2.788-8.04 6.919l-2.791 37.247c-5.938-2.674-12.514-4.176-19.438-4.176-6.925 0-13.501 1.502-19.439 4.177l-7.205-96.171h53.289l-2.149 28.68c-.309 4.131 2.788 7.73 6.919 8.04.191.014.38.021.568.021 3.888 0 7.176-3 7.472-6.939l2.233-29.801h51.375zm-101.435 52.706c0-17.921 14.579-32.5 32.5-32.5s32.5 14.579 32.5 32.5-14.579 32.5-32.5 32.5-32.5-14.579-32.5-32.5zm124.26-78.809 16.871-60.685h19.833c-.236 2.592-.774 5.172-1.642 7.688l-11.993 34.727c-8.799 4.37-16.683 10.562-23.069 18.27zm17.635-104.622 14.575 24.296c.897 1.496 1.662 3.049 2.301 4.641h-19.092l-21.001-35.006h12.498c4.366 0 8.472 2.325 10.719 6.069zm-218.79 0c2.246-3.744 6.353-6.069 10.719-6.069h12.498l-21.001 35.006h-19.093c.639-1.592 1.404-3.145 2.301-4.641zm-17.426 51.624c-.868-2.515-1.406-5.096-1.642-7.688h19.833l16.972 61.05c-6.425-7.793-14.324-14.056-23.119-18.486zm-95.679 54.82c0-6.893 5.607-12.5 12.5-12.5h63.563c18.293 0 35.54 9.141 46.137 24.453 3.204 4.628 6.623 8.978 10.162 12.926 13.409 14.961 29.185 25.797 46.981 32.303-2.78 6.033-4.343 12.738-4.343 19.805 0 1.76.104 3.496.291 5.207-24.121-7.871-45.18-21.939-62.715-41.948-4.343-4.955-8.47-10.304-12.265-15.897-5.033-7.42-13.417-11.85-22.427-11.85h-65.384c-6.893.001-12.5-5.607-12.5-12.499zm425 166.987c0 111.659-90.841 202.5-202.5 202.5s-202.5-90.841-202.5-202.5c0-52.25 19.779-101.689 55.722-139.487h2.163c4.031 0 7.774 1.97 10.014 5.271 2.411 3.553 4.958 7.003 7.593 10.347-32.602 33.359-50.492 77.11-50.492 123.869 0 41.566 14.724 82.017 41.459 113.899 1.483 1.769 3.609 2.681 5.751 2.681 1.7 0 3.41-.575 4.815-1.753 3.174-2.662 3.589-7.393.928-10.566-24.474-29.187-37.953-66.214-37.953-104.261 0-42.356 16.043-82.02 45.304-112.441 20.966 22.344 46.265 37.376 75.292 44.779 8.007 14.959 23.784 25.162 41.904 25.162 18.121 0 33.898-10.203 41.905-25.163 29.024-7.402 54.321-22.431 75.292-44.78 29.264 30.418 45.303 70.068 45.303 112.443 0 89.603-72.897 162.5-162.5 162.5-38.047 0-75.074-13.479-104.261-37.953-3.175-2.66-7.905-2.246-10.566.928s-2.246 7.904.928 10.566c31.882 26.735 72.333 41.459 113.899 41.459 97.874 0 177.5-79.626 177.5-177.5 0-46.78-17.888-90.513-50.492-123.869 2.634-3.343 5.181-6.793 7.593-10.349 2.238-3.3 5.981-5.27 10.014-5.27h2.161c35.947 37.799 55.724 87.226 55.724 139.488z"/></g></svg>