<svg id="Capa_1" enable-background="new 0 0 512 512" height="512" viewBox="0 0 512 512" width="512" xmlns="http://www.w3.org/2000/svg"><g><g><path d="m489.5 387.213h-7.579c.823-3.196 1.26-6.547 1.26-10 0-14.383-7.595-26.988-18.989-34.037 1.541-6.143 2.148-12.656 1.623-19.389-2.354-30.174-27.282-54.088-57.527-55.213-34.18-1.27-62.288 26.061-62.288 59.958v88.681h143.5c8.284 0 15-6.716 15-15s-6.716-15-15-15z" fill="#fcf2d0"/></g><g><path d="m22.5 223.155h7.579c-.823-3.196-1.26-6.547-1.26-10 0-14.383 7.595-26.988 18.989-34.037-1.541-6.143-2.148-12.656-1.623-19.389 2.354-30.174 27.282-54.088 57.527-55.213 34.18-1.27 62.288 26.061 62.288 59.958v88.681h-143.5c-8.284 0-15-6.716-15-15s6.716-15 15-15z" fill="#fcf2d0"/></g><g><path d="m147 134.278h218v164.379h-218z" fill="#9aa3b1"/></g><g><path d="m147 134.278h49v164.379h-49z" fill="#7e8b9e"/></g><g><path d="m256 7.5c-35.289 0-126.396 105.147-126.396 126.177s59.493 33.823 126.396 33.823 126.396-12.794 126.396-33.823-91.107-126.177-126.396-126.177z" fill="#908cd6"/></g><g><path d="m387 207.5h-22c-10.493 0-19 8.507-19 19v22c0 10.493-8.507 19-19 19h-22c-10.493 0-19-8.507-19-19v-22c0-10.493-8.507-19-19-19h-22c-10.493 0-19 8.507-19 19v22c0 10.493-8.507 19-19 19h-22c-10.493 0-19-8.507-19-19v-22c0-10.493-8.507-19-19-19h-22c-10.493 0-19 8.507-19 19v81c0 11.046 8.954 20 20 20v157c0 11.046 8.954 20 20 20h220c11.046 0 20-8.954 20-20v-157c11.046 0 20-8.954 20-20v-81c0-10.493-8.507-19-19-19z" fill="#c6c6c6"/></g><g><path d="m346 158.034c-103.936 0-157.039-105.027-124.284-134.038-40.566 30.456-92.112 93.863-92.112 109.681 0 21.03 59.493 33.823 126.396 33.823 34.283 0 66.617-3.361 90-9.466z" fill="#6c6cc1"/></g><g><path d="m196 307.5v-40h-11c-10.493 0-19-8.507-19-19v-22c0-10.493-8.507-19-19-19h-22c-10.493 0-19 8.507-19 19v81c0 11.046 8.954 20 20 20v157c0 11.046 8.954 20 20 20h60c-11.046 0-20-8.954-20-20v-117h200v-40h-170c-11.046 0-20-8.954-20-20z" fill="#9aa3b1"/></g><g><g><g><ellipse cx="176.355" cy="432.948" fill="#fff" rx="29.387" ry="23.403"/></g><g><ellipse cx="335.645" cy="432.948" fill="#fff" rx="29.387" ry="23.403"/></g><g><path d="m279.694 414.967c0-14.643-10.608-16.019-23.693-16.019-13.086 0-23.694 1.376-23.694 16.019s10.608 26.513 23.694 26.513c13.085 0 23.693-11.871 23.693-26.513z" fill="#4e5660"/></g></g><g><path d="m181.268 412.508c-4.142 0-7.5-3.357-7.5-7.5v-12c0-4.143 3.358-7.5 7.5-7.5s7.5 3.357 7.5 7.5v12c0 4.142-3.358 7.5-7.5 7.5z"/></g><g><path d="m256 448.979c-17.2 0-31.193-15.258-31.193-34.013 0-23.519 21.859-23.519 31.193-23.519s31.193 0 31.193 23.519c0 18.756-13.993 34.013-31.193 34.013zm0-42.531c-15.539 0-16.193 2.611-16.193 8.519 0 10.483 7.264 19.013 16.193 19.013s16.193-8.529 16.193-19.013c0-5.907-.655-8.519-16.193-8.519z"/></g><g><path d="m330.732 412.508c-4.143 0-7.5-3.357-7.5-7.5v-12c0-4.143 3.357-7.5 7.5-7.5s7.5 3.357 7.5 7.5v12c0 4.142-3.357 7.5-7.5 7.5z"/></g></g><path d="m490.615 379.74c.044-.841.066-1.684.066-2.527 0-14.769-6.691-28.373-18.138-37.341.933-5.487 1.185-11.073.748-16.668-2.534-32.486-27.852-58.223-59.792-61.744v-34.96c0-14.612-11.888-26.5-26.5-26.5h-14.5v-43.789c11.56-6.194 17.396-13.729 17.396-22.534 0-16.206-31.722-53.478-41.444-64.514-2.738-3.109-7.477-3.41-10.586-.671-3.107 2.738-3.408 7.478-.67 10.586 25.638 29.104 37.652 49.786 37.7 54.599 0 3.487-6.831 11.103-32.434 17.522-22.628 5.676-53.334 8.801-86.461 8.801-33.126 0-63.833-3.125-86.462-8.801-25.603-6.42-32.434-14.035-32.434-17.521.063-6.285 18.361-34.41 48.021-65.937 30.143-32.039 57.963-52.741 70.875-52.741 8.854 0 29.521 11.177 60.975 42.544 2.933 2.924 7.682 2.917 10.606-.015 2.925-2.933 2.918-7.682-.015-10.606-21.464-21.406-51.304-46.923-71.566-46.923-24.162 0-61.681 36.066-81.895 57.564-11.2 11.912-26.888 30.077-38.1 46.443-10.052-4.995-21.194-7.396-32.571-6.986-34.237 1.272-62.063 27.98-64.726 62.124-.437 5.596-.185 11.182.748 16.669-11.445 8.967-18.137 22.572-18.137 37.341 0 .844.022 1.687.066 2.527-11.891.583-21.385 10.44-21.385 22.473 0 12.406 10.093 22.5 22.5 22.5h76v46.845c0 12.564 8.47 23.188 20 26.461v33.55c0 4.143 3.358 7.5 7.5 7.5s7.5-3.357 7.5-7.5v-40.011c0-4.143-3.358-7.5-7.5-7.5-6.893 0-12.5-5.607-12.5-12.5v-81c0-6.341 5.159-11.5 11.5-11.5h22c6.341 0 11.5 5.159 11.5 11.5v22c0 14.612 11.888 26.5 26.5 26.5h22c14.612 0 26.5-11.888 26.5-26.5v-22c0-6.341 5.159-11.5 11.5-11.5h22c6.341 0 11.5 5.159 11.5 11.5v22c0 14.612 11.888 26.5 26.5 26.5h22c14.612 0 26.5-11.888 26.5-26.5v-22c0-6.341 5.159-11.5 11.5-11.5h22c6.341 0 11.5 5.159 11.5 11.5v81c0 6.893-5.607 12.5-12.5 12.5-4.143 0-7.5 3.357-7.5 7.5v157c0 6.893-5.607 12.5-12.5 12.5h-220c-6.893 0-12.5-5.607-12.5-12.5v-86.989c0-4.143-3.358-7.5-7.5-7.5s-7.5 3.357-7.5 7.5v86.989c0 15.163 12.336 27.5 27.5 27.5h220c15.163 0 27.5-12.337 27.5-27.5v-59.787h96c12.406 0 22.5-10.094 22.5-22.5 0-12.032-9.495-21.89-21.385-22.473zm-392.115-153.24v19.155h-76c-4.136 0-7.5-3.364-7.5-7.5s3.364-7.5 7.5-7.5h7.579c2.318 0 4.507-1.072 5.927-2.904 1.42-1.833 1.914-4.219 1.336-6.464-.68-2.641-1.024-5.377-1.024-8.132 0-11.34 5.77-21.68 15.435-27.659 2.777-1.718 4.124-5.035 3.329-8.203-1.389-5.537-1.867-11.25-1.42-16.98 2.071-26.547 23.707-47.312 50.329-48.301 8.365-.316 16.568 1.339 24.038 4.797-3.664 6.685-5.925 12.562-5.925 16.868 0 8.805 5.836 16.34 17.396 22.534v43.789h-14.5c-14.612 0-26.5 11.888-26.5 26.5zm240 0v22c0 6.341-5.159 11.5-11.5 11.5h-22c-6.341 0-11.5-5.159-11.5-11.5v-22c0-14.612-11.888-26.5-26.5-26.5h-22c-14.612 0-26.5 11.888-26.5 26.5v22c0 6.341-5.159 11.5-11.5 11.5h-22c-6.341 0-11.5-5.159-11.5-11.5v-22c0-12.008-8.03-22.169-19-25.412v-38.62c3.516 1.162 7.306 2.257 11.389 3.281 23.788 5.966 55.79 9.251 90.111 9.251s66.323-3.285 90.111-9.251c4.083-1.024 7.873-2.12 11.389-3.281v38.62c-10.97 3.243-19 13.404-19 25.412zm151 183.213h-96v-75.752c11.53-3.272 20-13.896 20-26.461v-30.93c24.05 3.424 42.911 23.106 44.837 47.801.447 5.728-.03 11.441-1.42 16.979-.795 3.168.552 6.485 3.328 8.203 9.666 5.98 15.437 16.32 15.437 27.659 0 2.754-.345 5.489-1.024 8.132-.577 2.245-.084 4.631 1.336 6.464 1.421 1.832 3.609 2.904 5.928 2.904h7.579c4.136 0 7.5 3.364 7.5 7.5s-3.365 7.501-7.501 7.501z"/></g></svg>