<svg id="Capa_1" enable-background="new 0 0 512 512" height="512" viewBox="0 0 512 512" width="512" xmlns="http://www.w3.org/2000/svg"><g><g><path d="m7.5 256v216.101c0 17.893 14.506 32.399 32.399 32.399 15.906 0 29.459-11.546 31.987-27.25l35.614-221.25z" fill="#282d35"/></g><g><path d="m504.5 256v216.101c0 17.893-14.506 32.399-32.399 32.399-15.906 0-29.459-11.546-31.987-27.25l-35.614-221.25z" fill="#282d35"/></g><g><path d="m432.001 27.532c-6.281-.248-12.255.954-17.616 3.299-12.051 5.27-26.001 4.206-36.586-3.602-8.29-6.114-18.536-9.729-29.629-9.729-7.565 0-14.737 1.68-21.164 4.688-11.711 5.48-25.557 4.094-36.057-3.451-9.839-7.072-21.906-11.237-34.949-11.237s-25.11 4.165-34.949 11.237c-10.5 7.546-24.346 8.932-36.057 3.451-6.427-3.008-13.599-4.688-21.164-4.688-11.093 0-21.338 3.614-29.628 9.729-10.585 7.808-24.535 8.872-36.587 3.602-5.361-2.344-11.334-3.546-17.616-3.299-20.209.797-36.88 16.934-38.282 37.11-1.625 23.383 16.863 42.858 39.9 42.858 5.797 0 11.304-1.234 16.275-3.453 11.911-5.318 25.808-4.022 36.305 3.722 8.291 6.116 18.538 9.732 29.632 9.732 7.565 0 14.737-1.68 21.164-4.688 11.711-5.48 25.557-4.095 36.057 3.451 9.84 7.071 21.907 11.236 34.95 11.236s25.11-4.165 34.949-11.237c10.5-7.546 24.346-8.932 36.057-3.451 6.427 3.008 13.599 4.688 21.164 4.688 11.095 0 21.342-3.615 29.632-9.732 10.497-7.744 24.394-9.039 36.305-3.722 4.971 2.219 10.479 3.453 16.275 3.453 23.037 0 41.526-19.475 39.9-42.859-1.401-20.175-18.072-36.311-38.281-37.108z" fill="#89d47f"/></g><g><g><path d="m196 67.5c0-20.262 10.054-38.165 25.434-49.028-.127.09-.257.174-.383.265-10.5 7.546-24.346 8.932-36.057 3.451-6.427-3.008-13.599-4.688-21.164-4.688-11.093 0-21.339 3.614-29.628 9.729-10.585 7.808-24.535 8.872-36.587 3.602-5.36-2.344-11.334-3.546-17.616-3.298-20.209.797-36.88 16.934-38.282 37.109-1.625 23.383 16.863 42.858 39.9 42.858 5.797 0 11.304-1.234 16.275-3.453 11.911-5.318 25.808-4.022 36.305 3.722 8.291 6.116 18.538 9.732 29.632 9.732 7.565 0 14.737-1.68 21.164-4.688 11.711-5.48 25.557-4.094 36.057 3.451.125.09.255.174.38.262-15.378-10.864-25.43-28.765-25.43-49.026z" fill="#5ec783"/></g></g><g><path d="m43.271 127.5c-22.701 37.494-35.771 81.469-35.771 128.5 0 137.243 111.257 248.5 248.5 248.5s248.5-111.257 248.5-248.5c0-47.031-13.07-91.006-35.771-128.5z" fill="#383c43"/></g><g><path d="m140.266 256c0-23.761 3.341-46.74 9.57-68.5h345.094c-6.1-21.309-14.97-41.449-26.201-60h-425.458c-22.701 37.494-35.771 81.469-35.771 128.5 0 137.243 111.257 248.5 248.5 248.5 22.993 0 45.25-3.137 66.383-8.981-105.01-29.041-182.117-125.269-182.117-239.519z" fill="#282d35"/></g><g><path d="m484.5 107.5h-457c-11.046 0-20-8.954-20-20 0-11.046 8.954-20 20-20h457c11.046 0 20 8.954 20 20 0 11.046-8.954 20-20 20z" fill="#4e5660"/></g><g><path d="m130.819 87.5c0-11.046 8.954-20 20-20h-123.319c-11.046 0-20 8.954-20 20 0 11.046 8.954 20 20 20h123.319c-11.046 0-20-8.954-20-20z" fill="#383c43"/></g><g><path d="m484.5 147.5h-457c-11.046 0-20-8.954-20-20 0-11.046 8.954-20 20-20h457c11.046 0 20 8.954 20 20 0 11.046-8.954 20-20 20z" fill="#383c43"/></g><g><path d="m327.915 54.149v146.298c0 11.046 8.954 20 20 20 11.046 0 20-8.954 20-20v-32.947c0-11.046 8.954-20 20-20 11.046 0 20 8.954 20 20v148.011c0 11.046 8.954 20 20 20 11.046 0 20-8.954 20-20v-261.362z" fill="#89d47f"/></g><g><g><g><ellipse cx="177.623" cy="323.898" fill="#eda1ab" rx="28.919" ry="23.03"/></g><g><ellipse cx="334.377" cy="323.898" fill="#eda1ab" rx="28.92" ry="23.03"/></g></g><g><path d="m208.243 306.337c-4.142 0-7.5-3.357-7.5-7.5 0-3.454-2.811-6.265-6.265-6.265s-6.265 2.811-6.265 6.265c0 4.143-3.358 7.5-7.5 7.5s-7.5-3.357-7.5-7.5c0-11.726 9.54-21.265 21.265-21.265s21.265 9.539 21.265 21.265c0 4.142-3.358 7.5-7.5 7.5z"/></g><g><path d="m331.287 306.337c-4.143 0-7.5-3.357-7.5-7.5 0-3.454-2.811-6.265-6.265-6.265s-6.265 2.811-6.265 6.265c0 4.143-3.357 7.5-7.5 7.5s-7.5-3.357-7.5-7.5c0-11.726 9.539-21.265 21.265-21.265s21.265 9.539 21.265 21.265c0 4.142-3.357 7.5-7.5 7.5z"/></g><g><path d="m256 329.078c-7.763 0-15.145-3.362-20.255-9.225-2.722-3.122-2.396-7.86.726-10.581 3.122-2.723 7.86-2.398 10.582.726 2.26 2.593 5.521 4.08 8.947 4.08s6.687-1.487 8.948-4.081c2.721-3.122 7.458-3.447 10.582-.725 3.122 2.722 3.446 7.459.725 10.582-5.11 5.862-12.492 9.224-20.255 9.224z"/></g></g><path d="m512 127.5c0-7.875-3.333-14.982-8.655-20 5.323-5.018 8.655-12.125 8.655-20 0-15.163-12.336-27.5-27.5-27.5h-7.207c-3.482-22.176-22.151-39.061-44.996-39.962-7.276-.285-14.311 1.03-20.917 3.921-9.83 4.296-20.99 3.238-29.129-2.767-9.929-7.322-21.713-11.192-34.081-11.192-8.502 0-16.692 1.814-24.343 5.395-9.219 4.314-20.139 3.262-28.501-2.749-11.512-8.273-25.111-12.646-39.326-12.646-14.216 0-27.814 4.373-39.326 12.646-8.361 6.011-19.282 7.062-28.501 2.749-7.652-3.581-15.842-5.395-24.343-5.395-12.368 0-24.152 3.87-34.08 11.192-8.141 6.004-19.303 7.065-29.131 2.766-6.606-2.889-13.651-4.2-20.916-3.92-22.844.901-41.514 17.786-44.996 39.962h-7.207c-15.164 0-27.5 12.337-27.5 27.5 0 7.875 3.332 14.982 8.655 20-5.323 5.018-8.655 12.125-8.655 20 0 12.944 8.992 23.821 21.056 26.73-13.963 32.128-21.056 66.312-21.056 101.77v216.101c0 22.001 17.898 39.899 39.899 39.899 19.695 0 36.262-14.113 39.392-33.558l5.211-32.373c47.115 42.612 107.514 65.931 171.498 65.931 40.168 0 78.626-9.042 114.305-26.875 20.657-10.325 39.955-23.575 57.184-39.119l5.221 32.436c3.13 19.444 19.697 33.558 39.392 33.558 22 0 39.898-17.898 39.898-39.899v-216.101c0-35.462-7.094-69.644-21.057-101.77 12.064-2.908 21.057-13.786 21.057-26.73zm-15-40c0 6.893-5.607 12.5-12.5 12.5h-29.085v-25h29.085c6.893 0 12.5 5.607 12.5 12.5zm-416.705-52.474c4.992-.198 9.805.703 14.314 2.675 14.725 6.441 31.602 4.739 44.044-4.437 7.331-5.407 16.036-8.264 25.177-8.264 6.289 0 12.34 1.34 17.986 3.98 14.131 6.611 30.843 5.021 43.612-4.154 8.945-6.428 19.517-9.826 30.572-9.826s21.627 3.398 30.572 9.827c12.77 9.177 29.48 10.768 43.612 4.153 5.646-2.641 11.697-3.98 17.986-3.98 9.141 0 17.847 2.857 25.177 8.265 12.442 9.176 29.317 10.875 44.043 4.438 4.511-1.972 9.327-2.872 14.315-2.676 14.542.573 26.969 11.163 30.292 24.973h-14.082c-4.143 0-7.5 3.357-7.5 7.5v248.011c0 6.893-5.607 12.5-12.5 12.5s-12.5-5.607-12.5-12.5v-148.011c0-15.163-12.337-27.5-27.5-27.5s-27.5 12.337-27.5 27.5v32.947c0 6.893-5.607 12.5-12.5 12.5s-12.5-5.607-12.5-12.5v-132.947c0-4.143-3.357-7.5-7.5-7.5h-277.912c3.324-13.811 15.751-24.4 30.292-24.974zm-65.295 92.474c0-6.893 5.607-12.5 12.5-12.5h207.782c4.142 0 7.5-3.357 7.5-7.5s-3.358-7.5-7.5-7.5h-207.782c-6.893 0-12.5-5.607-12.5-12.5s5.607-12.5 12.5-12.5h292.915v25h-55.133c-4.143 0-7.5 3.357-7.5 7.5s3.357 7.5 7.5 7.5h55.133v25h-292.915c-6.893 0-12.5-5.607-12.5-12.5zm49.481 348.558c-1.953 12.134-12.291 20.942-24.582 20.942-13.73 0-24.899-11.17-24.899-24.899v-129.371c12.019 33.467 31.061 64.263 56.362 90.582zm400.824-85.838c1.209.727 2.54 1.072 3.855 1.072 2.546 0 5.029-1.297 6.436-3.639 8.635-14.373 15.786-29.522 21.404-45.207v129.654c0 13.73-11.17 24.9-24.899 24.9-12.29 0-22.629-8.808-24.583-20.941l-6.885-42.779c6.171-6.413 12.021-13.129 17.48-20.141 2.545-3.269 1.958-7.98-1.311-10.525-3.267-2.545-7.98-1.959-10.525 1.311-46.054 59.15-115.408 93.075-190.277 93.075-132.888 0-241-108.112-241-241 0-35.306 7.466-69.264 22.152-101h283.263v45.447c0 15.163 12.337 27.5 27.5 27.5s27.5-12.337 27.5-27.5v-32.947c0-6.893 5.607-12.5 12.5-12.5s12.5 5.607 12.5 12.5v148.011c0 15.163 12.337 27.5 27.5 27.5s27.5-12.337 27.5-27.5v-160.511h19.432c14.687 31.734 22.153 65.691 22.153 101 0 43.767-11.848 86.621-34.262 123.929-2.134 3.55-.984 8.158 2.567 10.291zm19.195-250.22h-29.085v-25h29.085c6.893 0 12.5 5.607 12.5 12.5s-5.607 12.5-12.5 12.5z"/></g></svg>