<svg id="Capa_1" enable-background="new 0 0 512 512" height="512" viewBox="0 0 512 512" width="512" xmlns="http://www.w3.org/2000/svg"><g><g><path d="m399.5 27.5c0-11.046-8.954-20-20-20h-247c-11.046 0-20 8.954-20 20 0 11.046 8.954 20 20 20h148.59c11.046 0 20 8.954 20 20 0 11.046 8.954 20 20 20h93.41c11.046 0 20 8.954 20 20v47h40v-87c0-11.046-8.954-20-20-20h-35c-11.046 0-20-8.954-20-20z" fill="#fcf2d0"/></g><g><circle cx="237.5" cy="134.5" fill="#f7ef87" r="40"/></g><g><path d="m222.956 134.537c0-17.66 11.449-32.636 27.326-37.938-4.015-1.354-8.31-2.099-12.782-2.099-22.091 0-40 17.909-40 40s17.909 40 40 40c4.432 0 8.69-.731 12.674-2.062-15.821-5.334-27.218-20.282-27.218-37.901z" fill="#efd176"/></g><g><path d="m337.5 484.5h-200l40-120h120z" fill="#e0bb5f"/></g><g><path d="m367.5 504.5h-260c-11.046 0-20-8.954-20-20 0-11.046 8.954-20 20-20h260c11.046 0 20 8.954 20 20 0 11.046-8.954 20-20 20z" fill="#f7ef87"/></g><g><path d="m186.717 484.5c0-11.046 8.954-20 20-20h-99.217c-11.046 0-20 8.954-20 20 0 11.046 8.954 20 20 20h99.217c-11.046 0-20-8.954-20-20z" fill="#efd176"/></g><g><path d="m424.5 154.5v32.258c0 33.137-26.863 60-60 60h-147v163.819l151.871-36.301c67.508-16.136 115.129-76.48 115.129-145.89v-73.886z" fill="#efd176"/></g><g><path d="m484.5 174.5h-60c-11.046 0-20-8.954-20-20 0-11.046 8.954-20 20-20h60c11.046 0 20 8.954 20 20 0 11.046-8.954 20-20 20z" fill="#f7ef87"/></g><g><path d="m454.5 154.5c0-11.046 8.954-20 20-20h-50c-11.046 0-20 8.954-20 20 0 11.046 8.954 20 20 20h50c-11.046 0-20-8.954-20-20z" fill="#efd176"/></g><g><path d="m87.5 224.5c-44.183 0-80 35.817-80 80s35.817 80 80 80 80-35.817 80-80-35.817-80-80-80zm0 120c-22.056 0-40-17.944-40-40s17.944-40 40-40 40 17.944 40 40-17.944 40-40 40z" fill="#e0bb5f"/></g><g><path d="m405.925 230.139c-10.771 10.288-25.354 16.619-41.425 16.619h-147v163.819l151.871-36.301c18.122-4.332 34.809-11.853 49.528-21.876 5.704-15.409 8.601-31.45 8.601-47.9 0-22.784-5.526-44.79-16.426-65.405-1.608-3.041-3.333-6.023-5.149-8.956z" fill="#e0bb5f"/></g><g><ellipse cx="237.5" cy="304.5" fill="#f7ef87" rx="150" ry="120"/></g><g><path d="m147.483 304.5c0-58.057 51.538-106.482 120.008-117.599-9.691-1.573-19.72-2.401-29.992-2.401-82.843 0-150 53.726-150 120s67.157 120 150 120c10.271 0 20.301-.828 29.992-2.401-68.47-11.117-120.008-59.542-120.008-117.599z" fill="#efd176"/></g><g><path d="m336.717 214.5h-198.434v-30c0-16.569 13.431-30 30-30h138.433c16.569 0 30 13.431 30 30v30z" fill="#efd176"/></g><g><path d="m228.283 154.5h-60c-16.569 0-30 13.431-30 30v30h60v-30c0-16.569 13.432-30 30-30z" fill="#e0bb5f"/></g><g><g><g><ellipse cx="159.123" cy="312.398" fill="#eda1ab" rx="28.919" ry="23.03"/></g><g><ellipse cx="315.877" cy="312.398" fill="#eda1ab" rx="28.92" ry="23.03"/></g></g><g><path d="m189.743 294.837c-4.142 0-7.5-3.357-7.5-7.5 0-3.454-2.811-6.265-6.265-6.265s-6.265 2.811-6.265 6.265c0 4.143-3.358 7.5-7.5 7.5s-7.5-3.357-7.5-7.5c0-11.726 9.54-21.265 21.265-21.265s21.265 9.539 21.265 21.265c0 4.142-3.358 7.5-7.5 7.5z"/></g><g><path d="m312.787 294.837c-4.143 0-7.5-3.357-7.5-7.5 0-3.454-2.811-6.265-6.265-6.265s-6.265 2.811-6.265 6.265c0 4.143-3.357 7.5-7.5 7.5s-7.5-3.357-7.5-7.5c0-11.726 9.539-21.265 21.265-21.265s21.265 9.539 21.265 21.265c0 4.142-3.357 7.5-7.5 7.5z"/></g><g><path d="m237.5 317.578c-7.763 0-15.145-3.362-20.255-9.225-2.722-3.122-2.396-7.86.726-10.581 3.123-2.723 7.859-2.398 10.582.726 2.26 2.593 5.521 4.08 8.947 4.08s6.687-1.487 8.947-4.08c2.722-3.123 7.458-3.448 10.582-.726 3.122 2.721 3.447 7.459.726 10.581-5.11 5.863-12.492 9.225-20.255 9.225z"/></g></g><g><path d="m352.795 67.5c0-11.046 8.954-20 20-20h46.705c-11.046 0-20-8.954-20-20 0-11.046-8.954-20-20-20h-247c-11.046 0-20 8.954-20 20 0 11.046 8.954 20 20 20h148.59c11.046 0 20 8.954 20 20 0 11.046 8.954 20 20 20h51.705c-11.045 0-20-8.954-20-20z" fill="#efdfb4"/></g><path d="m512 154.5c0-15.163-12.337-27.5-27.5-27.5h-2.5v-59.5c0-15.163-12.337-27.5-27.5-27.5h-35c-6.893 0-12.5-5.607-12.5-12.5 0-15.163-12.337-27.5-27.5-27.5h-247c-15.164 0-27.5 12.337-27.5 27.5s12.336 27.5 27.5 27.5h90c4.142 0 7.5-3.357 7.5-7.5s-3.358-7.5-7.5-7.5h-90c-6.893 0-12.5-5.607-12.5-12.5s5.607-12.5 12.5-12.5h247c6.893 0 12.5 5.607 12.5 12.5 0 15.163 12.337 27.5 27.5 27.5h35c6.893 0 12.5 5.607 12.5 12.5v59.5h-25v-19.5c0-15.163-12.337-27.5-27.5-27.5h-93.409c-6.893 0-12.5-5.607-12.5-12.5 0-15.163-12.337-27.5-27.5-27.5h-28.591c-4.142 0-7.5 3.357-7.5 7.5s3.358 7.5 7.5 7.5h28.591c6.893 0 12.5 5.607 12.5 12.5 0 15.163 12.337 27.5 27.5 27.5h93.409c6.893 0 12.5 5.607 12.5 12.5v19.5h-2.5c-15.163 0-27.5 12.337-27.5 27.5 0 12.563 8.472 23.178 20 26.452v5.807c0 25.87-19.349 48.059-44.607 51.897-7.64-10.27-17.088-19.707-28.176-27.974v-26.182c0-20.678-16.822-37.5-37.5-37.5h-23.409c1.105-4.061 1.692-8.267 1.692-12.5 0-26.191-21.309-47.5-47.5-47.5s-47.5 21.309-47.5 47.5c0 4.234.585 8.44 1.69 12.5h-23.407c-20.678 0-37.5 16.822-37.5 37.5v26.179c-4.848 3.614-9.384 7.454-13.599 11.488-9.495-3.428-19.46-5.167-29.684-5.167-48.248 0-87.5 39.252-87.5 87.5s39.252 87.5 87.5 87.5c10.244 0 20.229-1.747 29.744-5.191 10.44 9.965 22.721 18.598 36.39 25.571l-14.873 44.62h-31.261c-15.164 0-27.5 12.337-27.5 27.5s12.336 27.5 27.5 27.5h260c15.163 0 27.5-12.337 27.5-27.5s-12.337-27.5-27.5-27.5h-31.26l-14.839-44.516c9.595-4.899 18.598-10.673 26.85-17.275 4.427-3.541 8.553-7.262 12.386-11.134l10.477-2.504c34.282-8.194 65.188-27.946 87.024-55.616s33.862-62.32 33.862-97.568v-47.435c11.528-3.274 20-13.889 20-26.452zm-307-20c0-17.921 14.58-32.5 32.5-32.5s32.5 14.579 32.5 32.5c0 4.301-.869 8.561-2.507 12.5h-59.986c-1.639-3.939-2.507-8.197-2.507-12.5zm-59.217 50c0-12.406 10.093-22.5 22.5-22.5h138.434c12.406 0 22.5 10.094 22.5 22.5v22.5h-183.434zm-130.783 120c0-39.977 32.523-72.5 72.5-72.5 6.283 0 12.441.801 18.41 2.365-5.841 7.178-10.767 14.813-14.702 22.79-1.233-.095-2.471-.155-3.708-.155-26.191 0-47.5 21.309-47.5 47.5s21.309 47.5 47.5 47.5c1.235 0 2.47-.061 3.701-.156 3.975 8.042 8.929 15.666 14.738 22.781-5.98 1.569-12.148 2.375-18.439 2.375-39.977 0-72.5-32.523-72.5-72.5zm365 180c0 6.893-5.607 12.5-12.5 12.5h-260c-6.893 0-12.5-5.607-12.5-12.5s5.607-12.5 12.5-12.5h260c6.893 0 12.5 5.607 12.5 12.5zm-59.572-27.5h-165.855l12.789-38.368c21.22 8.568 45.075 13.368 70.138 13.368 24.747 0 48.64-4.589 70.173-13.264zm-82.928-40c-71.87 0-132.672-42.418-141.431-98.669-.637-4.093-4.474-6.885-8.564-6.257-4.093.638-6.894 4.473-6.257 8.565.864 5.549 2.175 10.976 3.884 16.265-16.818-1.218-30.132-15.28-30.132-32.404s13.315-31.187 30.133-32.405c-1.719 5.318-3.025 10.743-3.883 16.249-.638 4.093 2.163 7.928 6.255 8.565.392.062.78.091 1.165.091 3.632 0 6.824-2.645 7.401-6.346 4.09-26.239 19.927-50.567 44.639-68.655h193.576c29.073 21.287 45.714 51.251 45.714 82.501 0 62.033-63.925 112.5-142.5 112.5zm139.071-52.459c12.039-18.239 18.429-38.723 18.429-60.041 0-18.251-4.828-36.059-13.859-52.328 12.608-3.197 24.085-9.985 33.041-19.719 11.49-12.487 17.818-28.715 17.818-45.694v-4.759h45v46.387c0 63.1-40.849 117.828-100.429 136.154zm107.929-197.541h-60c-6.893 0-12.5-5.607-12.5-12.5s5.607-12.5 12.5-12.5h60c6.893 0 12.5 5.607 12.5 12.5s-5.607 12.5-12.5 12.5z"/></g></svg>