<svg id="Capa_1" enable-background="new 0 0 512 512" height="512" viewBox="0 0 512 512" width="512" xmlns="http://www.w3.org/2000/svg"><g><g><path d="m376.879 480.707c-4.13-20.729-13.555-39.548-26.802-54.992l-191.032 78.785h198.191c12.566 0 22.098-11.469 19.643-23.793z" fill="#d3596e"/></g><g><path d="m464.578 122.489c38.149-35.586-30.984-108.481-194.062-114.571-4.821-.274-9.751-.418-14.801-.418-1.083 0-2.153.015-3.226.028-1.353-.009-2.694-.028-4.06-.028v.106c-198.776 5.267-211.289 226.299-211.289 340.219 0 31.296 55.568 63.319 128.31 78.786-12.849 15.274-21.997 33.766-26.048 54.097-2.456 12.324 7.076 23.793 19.643 23.793 158.628 0 191.031-78.785 191.031-78.785 70.72-15.782 124.213-47.185 124.213-77.891 0-54.75-3.25-140.599-32.71-212.375 9.66-3.634 17.59-7.915 22.999-12.961z" fill="#e8899e"/></g><g><path d="m255.715 7.5c-205.766 0-218.575 225.027-218.575 340.325 0 31.296 55.568 63.319 128.31 78.786-12.849 15.274-21.997 33.766-26.048 54.097-2.456 12.324 7.076 23.793 19.643 23.793 158.628 0 191.031-78.785 191.031-78.785-303.021-114.971-221.999-418.216-94.361-418.216z" fill="#e26e7e"/></g><g><g><path d="m258.141 43.5c-88.366 0-160 71.634-160 160v15.245h320v-15.245c-.001-88.366-71.635-160-160-160z" fill="#f7ef87"/></g></g><g><path d="m288.14 46.32c-9.719-1.844-19.745-2.82-30-2.82-88.365 0-160 71.634-160 160v15.245h60v-15.245c0-78.11 55.977-143.136 130-157.18z" fill="#efd176"/></g><g><g><circle cx="403.268" cy="251.131" fill="#ffbf9e" r="36.081"/></g></g><g><g><circle cx="113.01" cy="251.131" fill="#f7ab8b" r="36.081"/></g></g><g><path d="m178.206 160.636c-43.661 9.683-60.613 54.714-60.613 54.714-2.905 11.445-4.453 23.43-4.453 35.779 0 80.081 64.919 145 145 145s145-64.919 145-145c0-12.348-1.548-24.334-4.453-35.779-114.24-.001-176.82-64.397-220.481-54.714z" fill="#ffd4be"/></g><g><path d="m163.14 251.128c0-34.447 12.016-66.084 32.081-90.958-5.997-.79-11.65-.724-17.015.466-43.661 9.683-60.613 54.714-60.613 54.714-2.905 11.445-4.453 23.43-4.453 35.779 0 80.081 64.919 145 145 145 8.526 0 16.878-.743 25-2.154-68.166-11.849-120-71.291-120-142.847z" fill="#ffbf9e"/></g><g><g><g><ellipse cx="175.073" cy="299.09" fill="#eda1ab" rx="30.65" ry="24.408"/></g><g><ellipse cx="341.208" cy="298.934" fill="#eda1ab" rx="30.65" ry="24.408"/></g></g><g><path d="m192.899 280.739c-6.251 0-12.195-2.703-16.313-7.418-2.725-3.12-2.403-7.858.716-10.582 3.119-2.725 7.856-2.404 10.583.716 1.268 1.452 3.095 2.285 5.014 2.285h.006c1.921-.002 3.749-.838 5.016-2.294 2.719-3.125 7.457-3.455 10.58-.736 3.126 2.719 3.455 7.456.736 10.581-4.112 4.728-10.06 7.443-16.317 7.449-.008-.001-.015-.001-.021-.001z"/></g><g><path d="m323.308 280.616c-6.253 0-12.197-2.704-16.313-7.42-2.724-3.121-2.402-7.858.719-10.582 3.122-2.723 7.859-2.402 10.582.719 1.267 1.451 3.094 2.283 5.013 2.283h.006c1.92-.002 3.748-.838 5.015-2.294 2.719-3.125 7.457-3.455 10.58-.736 3.126 2.719 3.455 7.456.736 10.581-4.112 4.729-10.061 7.443-16.317 7.449-.008 0-.015 0-.021 0z"/></g><g><path d="m258.14 292.262c-8.478 0-16.539-3.671-22.118-10.073-2.722-3.123-2.396-7.86.727-10.582 3.122-2.721 7.859-2.396 10.582.727 2.729 3.132 6.669 4.928 10.81 4.928s8.08-1.796 10.81-4.928c2.721-3.123 7.457-3.448 10.582-.727 3.122 2.722 3.448 7.459.727 10.582-5.58 6.402-13.642 10.073-22.12 10.073z"/></g></g><g><path d="m469.694 127.974c12.276-11.452 15.775-26.513 9.853-42.409-7.77-20.852-30.854-40.712-65-55.923-38.215-17.023-87.897-27.125-143.68-29.216-5.937-.335-12.018-.476-17.946-.404l-.445.005-1.315-.011c-.908-.008-1.814-.016-2.731-.016-.506 0-1 .05-1.478.146-88.843 2.765-151.307 47.859-185.675 134.046-28.357 71.115-31.637 155.983-31.637 213.633 0 37.496 59.922 68.207 122.774 83.506-9.975 14.404-16.95 30.761-20.368 47.911-1.604 8.047.471 16.312 5.691 22.675 5.257 6.408 13.022 10.083 21.307 10.083h198.191c8.283 0 16.049-3.675 21.306-10.082 5.221-6.363 7.296-14.628 5.692-22.676-3.502-17.575-10.735-34.29-21.095-48.94 31.052-7.879 58.961-18.92 79.492-31.546 25.617-15.755 39.157-33.367 39.157-50.93 0-55.763-3.232-137.187-30.504-208.253 7.734-3.47 13.796-7.294 18.411-11.599zm-2.905 219.851c0 11.906-11.37 25.456-32.016 38.153-21.643 13.311-52.303 24.823-86.331 32.417-2.362.527-4.341 2.201-5.286 4.429-.05.116-5.121 11.81-20.351 25.686-3.062 2.79-3.282 7.534-.492 10.595 2.789 3.062 7.532 3.282 10.596.493 8.5-7.746 14.292-14.978 18.071-20.516 9.105 12.91 15.462 27.625 18.543 43.091.722 3.625-.218 7.354-2.578 10.231-2.396 2.921-5.936 4.596-9.709 4.596h-91.495c15.15-4.963 28.995-11.143 41.469-18.544 3.563-2.113 4.736-6.715 2.623-10.277-2.113-3.563-6.716-4.735-10.277-2.624-35.168 20.865-82.443 31.445-140.511 31.445-3.774 0-7.313-1.675-9.71-4.597-2.36-2.877-3.3-6.606-2.577-10.23 3.706-18.595 12.154-36.139 24.432-50.735 1.696-2.016 2.21-4.774 1.354-7.265-.855-2.492-2.956-4.351-5.533-4.899-69.762-14.833-122.369-45.55-122.369-71.45 0-80.957 0-327.317 203.987-332.721.353-.009.698-.043 1.037-.099.454.003.906.007 1.359.011l1.416.012h.134l.524-.006c5.61-.067 11.374.067 16.992.385.048.003.097.005.145.007 53.918 2.014 101.709 11.672 138.208 27.931 29.995 13.362 50.788 30.66 57.048 47.458 3.775 10.133 1.747 18.95-6.029 26.204-4.414 4.119-11.319 7.962-20.522 11.425-1.898.714-3.426 2.166-4.235 4.025s-.832 3.967-.063 5.842c28.814 70.203 32.146 153.202 32.146 209.527z"/><path d="m425.64 213.748v-10.248c0-92.36-75.141-167.5-167.5-167.5-38.947 0-76.884 13.665-106.821 38.477-3.189 2.643-3.632 7.371-.988 10.561 2.645 3.19 7.372 3.631 10.561.988 27.251-22.587 61.789-35.026 97.248-35.026 84.089 0 152.5 68.411 152.5 152.5v4.686c-2.398-.411-4.859-.636-7.373-.636-1.666 0-3.35.096-5.004.285-.021.002-.041.008-.062.01-63.081-.104-109.708-20.181-147.19-36.326-29.724-12.802-53.203-22.914-74.43-18.205-47.084 10.442-65.257 57.4-66.008 59.394-.098.261-.182.527-.25.797-3.107 12.247-4.684 24.905-4.684 37.624 0 9.627.907 19.045 2.621 28.182-13.507-2.269-23.833-14.038-23.833-28.179 0-11.062 6.48-21.234 16.51-25.916 1.76-.822 3.044-2.243 3.738-3.905.611-1.086.964-2.337.964-3.672v-14.139c0-35.459 12.439-69.996 35.025-97.25 2.644-3.189 2.2-7.917-.988-10.56-3.19-2.643-7.919-2.201-10.561.989-24.81 29.938-38.475 67.875-38.475 106.821v10.228c-13.014 7.809-21.212 22.042-21.212 37.403 0 23.688 19.001 43.009 42.56 43.555 18.789 62.931 77.193 108.942 146.151 108.942s127.362-46.011 146.152-108.943c23.557-.548 42.556-19.868 42.556-43.555.001-15.855-8.513-29.756-21.207-37.382zm-167.5 174.88c-75.817 0-137.5-61.682-137.5-137.5 0-11.313 1.381-22.57 4.104-33.465 1.643-4 17.957-41.471 55.085-49.705 16.499-3.663 38.014 5.606 65.247 17.337 37.671 16.226 84.272 36.3 147.637 37.498 1.943 9.283 2.927 18.789 2.927 28.335 0 75.818-61.682 137.5-137.5 137.5zm149.88-109.319c1.714-9.136 2.621-18.554 2.621-28.181 0-9.474-.877-18.913-2.608-28.174 13.498 2.276 23.816 14.041 23.816 28.176-.001 14.141-10.324 25.909-23.829 28.179z"/></g></g></svg>