<svg id="Capa_1" enable-background="new 0 0 512 512" height="512" viewBox="0 0 512 512" width="512" xmlns="http://www.w3.org/2000/svg"><g><g><path d="m454.533 478.025c-5.502-28.721-19.81-55.157-40.644-77.205 2.835-7.335 4.338-15.333 4.169-23.707-.686-34.058-29.183-61.007-63.248-61.007h-197.621c-34.063 0-62.558 26.945-63.248 61-.17 8.374 1.332 16.371 4.166 23.706-20.787 21.981-35.136 48.385-40.644 77.208-2.624 13.73 7.822 26.479 21.801 26.479h353.467c13.977.001 24.432-12.747 21.802-26.474z" fill="#ffbf9e"/></g><g><path d="m143.942 377.107c.69-34.056 29.185-61 63.248-61h-50c-34.063 0-62.558 26.945-63.248 61-.17 8.374 1.332 16.371 4.166 23.706-20.787 21.981-35.136 48.385-40.644 77.208-2.624 13.73 7.822 26.479 21.801 26.479h25.694c0-39.1 16.14-75.126 43.149-103.687-2.834-7.335-4.336-15.332-4.166-23.706z" fill="#f7ab8b"/></g><g><path d="m257.653 321.216-1.653-5.11h-73.825l-56.239 188.394h130.064 130.064l-21.521-72.093c-1.808-6.057-6.374-10.903-12.312-13.069-44.957-16.394-79.848-52.593-94.578-98.122z" fill="#d2996f"/></g><g><path d="m182.175 316.106-56.239 188.394h40l56.239-188.394z" fill="#c18053"/></g><g><path d="m369.914 218.274c-7.626 18.41 1.117 39.516 19.527 47.142s39.516-1.117 47.142-19.527 13.862-33.466 25.881-62.483c12.02-29.017-74.322-9.138-92.55 34.868z" fill="#ffbf9e"/></g><g><path d="m142.086 218.274c7.626 18.41-1.117 39.516-19.527 47.142s-39.516-1.117-47.142-19.527-13.862-33.466-25.881-62.483 74.323-9.138 92.55 34.868z" fill="#f7ab8b"/></g><g><path d="m256 327.5c-66.546 0-106.861-13.495-126.875-42.47-18.125-26.239-18.125-63.297-18.125-102.53 0-79.953 65.047-145 145-145s145 65.047 145 145c0 39.233 0 76.291-18.125 102.53-20.013 28.975-60.329 42.47-126.875 42.47z" fill="#ffd4be"/></g><g><g><path d="m319.638 170.029c3.255 4.414 3.255 10.426 0 14.839-10.268 13.924-34.893 42.58-63.638 42.58s-53.369-28.656-63.638-42.58c-3.255-4.414-3.255-10.426 0-14.839 10.268-13.924 34.893-42.58 63.638-42.58s53.37 28.656 63.638 42.58z" fill="#fff"/></g></g><g><g><path d="m290.709 214.478c-31.178-14.863-52.85-46.438-53.439-83.138-20.406 8.308-36.958 27.911-44.907 38.69-3.255 4.414-3.255 10.426 0 14.839 10.268 13.924 34.893 42.58 63.638 42.58 12.66 0 24.52-5.56 34.708-12.971z" fill="#fcf2d0"/></g></g><g><g><circle cx="256" cy="177.449" fill="#4e5660" r="20"/></g></g><g><path d="m163.449 182.5c0-71.126 51.214-130.286 118.776-142.629-8.507-1.553-17.27-2.371-26.225-2.371-80.081 0-145 64.919-145 145s0 145 145 145c9.333 0 18.054-.274 26.224-.798-118.765-7.626-118.775-69.275-118.775-144.202z" fill="#ffbf9e"/></g><g><path d="m256 102.357c13.13 0 24.092-5.056 27.961-7.083l-8.864-70.916c-1.204-9.631-9.391-16.858-19.097-16.858s-17.893 7.227-19.096 16.858l-8.864 70.916c3.868 2.027 14.831 7.083 27.96 7.083z" fill="#f7ef87"/></g><g><path d="m244.302 101.083 11.698-93.583c-9.706 0-17.893 7.227-19.096 16.858l-8.865 70.916c2.64 1.383 8.581 4.173 16.263 5.809z" fill="#efd176"/></g><g><path d="m278.151 48.789-3.054-24.431c-1.204-9.631-9.391-16.858-19.097-16.858s-17.893 7.227-19.096 16.858l-3.054 24.431c.004.002 9.808 5.948 22.15 5.948 12.343.001 22.148-5.946 22.151-5.948z" fill="#efd176"/></g><g><path d="m256 7.5c-9.706 0-17.893 7.227-19.096 16.858l-3.054 24.431c.003.002 6.85 4.151 16.3 5.516z" fill="#e0bb5f"/></g><g><path d="m266.81 254.335c-2.729 3.131-6.669 4.927-10.81 4.927s-8.081-1.796-10.81-4.928c-2.722-3.122-7.458-3.448-10.582-.727-3.123 2.722-3.448 7.459-.727 10.582 5.579 6.401 13.641 10.072 22.119 10.072 8.479 0 16.54-3.671 22.118-10.073 2.722-3.122 2.396-7.86-.728-10.581-3.121-2.721-7.861-2.396-10.58.728z"/><path d="m389.046 289.293c3.076-4.453 5.663-9.158 7.843-14.082 2.168.327 4.333.489 6.48.489 17.193 0 33.224-10.237 40.143-26.941l25.881-62.482c4.448-10.736-.857-16.872-3.345-19.013-10.758-9.253-36.213-4.521-57.85 5.742-2.078-33.352-15.048-65.185-37.062-90.509-22.735-26.154-53.636-43.767-87.461-49.979l-1.136-9.089c-1.67-13.357-13.079-23.429-26.539-23.429s-24.869 10.072-26.539 23.428l-1.135 9.08c-25.422 4.667-49.303 15.784-69.348 32.331-3.194 2.637-3.646 7.364-1.01 10.559 1.483 1.797 3.627 2.726 5.789 2.726 1.681 0 3.372-.563 4.77-1.716 16.839-13.899 36.676-23.548 57.838-28.203l-5.767 46.14c-.388 3.104 1.19 6.122 3.961 7.574 4.556 2.387 16.74 7.939 31.442 7.939s26.886-5.553 31.441-7.939c2.771-1.452 4.35-4.471 3.962-7.574l-5.767-46.137c62.107 13.697 107.863 69.848 107.863 134.292 0 79.825 0 137.5-137.5 137.5s-137.5-57.675-137.5-137.5c0-31.555 10.395-61.229 30.06-85.815 2.587-3.234 2.063-7.954-1.172-10.542-3.234-2.586-7.954-2.062-10.542 1.173-19.525 24.412-31.084 54.528-33.045 85.688-21.638-10.266-47.079-14.996-57.845-5.742-2.489 2.14-7.798 8.275-3.35 19.016l25.881 62.482c6.922 16.712 22.942 26.943 40.132 26.943 2.151 0 4.32-.162 6.492-.49 2.18 4.923 4.767 9.628 7.842 14.081 5.493 7.952 12.343 14.815 20.637 20.636-31.896 6.236-56.477 33.915-57.148 67.026-.152 7.535.892 14.939 3.107 22.074-20.478 22.775-34.088 49.51-39.453 77.584-1.677 8.778.621 17.755 6.304 24.627 5.656 6.837 13.989 10.759 22.864 10.759h353.467c8.88 0 17.217-3.925 22.873-10.769 5.682-6.872 7.976-15.845 6.295-24.617-5.377-28.065-18.986-54.796-39.452-77.574 2.217-7.136 3.262-14.542 3.109-22.078-.667-33.115-25.249-60.797-57.147-67.033 8.294-5.821 15.144-12.684 20.637-20.636zm-133.046-274.293c5.911 0 10.921 4.423 11.654 10.289l2.386 19.084c-3.362 1.348-8.394 2.864-14.04 2.864-5.609 0-10.678-1.54-14.038-2.882l2.383-19.067c.734-5.865 5.745-10.288 11.655-10.288zm0 79.856c-7.988 0-15.189-2.226-19.838-4.102l3.892-31.136c4.377 1.417 9.866 2.619 15.946 2.619 6.077 0 11.568-1.203 15.945-2.62l3.892 31.138c-4.647 1.876-11.849 4.101-19.837 4.101zm200.104 83.654c-.024.341-.15 1.018-.568 2.026l-25.881 62.482c-4.711 11.374-15.858 18.171-27.61 17.637 5.896-21.257 6.408-45.566 6.452-70.961 9.752-5.411 20.653-9.503 30.435-11.373 11.111-2.123 16.049-.555 17.172.189zm-373.758 64.509-25.881-62.482c-.418-1.009-.544-1.686-.569-2.026 1.123-.744 6.067-2.314 17.199-.184 9.778 1.873 20.667 5.963 30.409 11.369.044 25.394.556 49.704 6.452 70.961-11.753.536-22.896-6.258-27.61-17.638zm-14.386 248.662c-2.824-3.415-3.965-7.881-3.13-12.253 5.093-26.654 18.485-52.058 38.727-73.462 1.987-2.102 2.589-5.158 1.547-7.855-2.576-6.669-3.809-13.685-3.664-20.852.599-29.584 25.608-53.652 55.75-53.652h13.683c.021 0 .042-.003.063-.003.354.124.707.248 1.064.37l-51.652 173.026h-41.084c-4.388 0-8.508-1.938-11.304-5.319zm286.851-168.075c30.145 0 55.153 24.071 55.75 53.658.145 7.168-1.089 14.184-3.667 20.852-1.042 2.697-.441 5.753 1.545 7.855 20.231 21.411 33.623 46.814 38.729 73.465.836 4.364-.303 8.825-3.124 12.238-2.797 3.385-6.92 5.325-11.312 5.325h-41.08l-19.922-66.738c-2.475-8.288-8.803-15.006-16.93-17.97-13.321-4.857-25.853-11.593-37.246-20.018-3.327-2.463-8.026-1.761-10.489 1.571-2.463 3.33-1.76 8.026 1.571 10.489 12.549 9.28 26.353 16.699 41.024 22.049 3.694 1.348 6.571 4.401 7.696 8.169l18.642 62.449h-239.996l50.417-168.891c18.97 4.556 41.611 6.812 68.295 6.882 7.218 17.688 17.39 33.818 30.291 47.997 1.479 1.626 3.511 2.452 5.549 2.452 1.801 0 3.608-.646 5.046-1.953 3.063-2.787 3.287-7.53.499-10.595-10.378-11.406-18.812-24.203-25.159-38.143 28.122-.933 51.333-4.588 70.116-11.143z"/><path d="m325.674 189.32c5.236-7.101 5.236-16.642 0-23.742-12.567-17.041-38.33-45.629-69.674-45.629-31.345 0-57.107 28.588-69.674 45.629-5.237 7.101-5.237 16.642 0 23.742 12.567 17.041 38.329 45.629 69.674 45.629 31.344 0 57.107-28.588 69.674-45.629zm-69.674 30.629c-25.677 0-48.836-27.646-57.602-39.531-1.31-1.775-1.31-4.162 0-5.938 8.765-11.886 31.924-39.531 57.602-39.531 25.676 0 48.836 27.646 57.602 39.531 1.31 1.776 1.31 4.162 0 5.938-8.766 11.886-31.926 39.531-57.602 39.531z"/><path d="m256 149.949c-15.164 0-27.5 12.337-27.5 27.5s12.336 27.5 27.5 27.5c15.163 0 27.5-12.337 27.5-27.5s-12.337-27.5-27.5-27.5zm0 40c-6.893 0-12.5-5.607-12.5-12.5s5.607-12.5 12.5-12.5 12.5 5.607 12.5 12.5-5.607 12.5-12.5 12.5z"/></g></g></svg>