<svg id="Capa_1" enable-background="new 0 0 512 512" height="512" viewBox="0 0 512 512" width="512" xmlns="http://www.w3.org/2000/svg"><g><g><path d="m358.599 114.164c0 56.498 54.053 69.58 67.208 59.949 13.154-9.631-5.183-29.209-5.183-29.209s41.665-9.627 41.665-30.74-41.665-30.74-41.665-30.74 18.337-19.578 5.183-29.209c-13.155-9.631-67.208 3.451-67.208 59.949z" fill="#e8899e"/></g><g><path d="m153.401 114.164c0-56.498-54.053-69.58-67.208-59.949-13.154 9.631 5.183 29.209 5.183 29.209s-41.665 9.627-41.665 30.74 41.665 30.74 41.665 30.74-18.338 19.578-5.183 29.209c13.155 9.632 67.208-3.451 67.208-59.949z" fill="#e26e7e"/></g><g><circle cx="401.127" cy="163.488" fill="#ffbf9e" r="36.081"/></g><g><circle cx="110.87" cy="163.488" fill="#f7ab8b" r="36.081"/></g><g><path d="m454.533 478.025c-5.502-28.721-19.81-55.157-40.644-77.205 2.835-7.335 4.338-15.333 4.169-23.707-.686-34.058-29.183-61.007-63.248-61.007h-197.621c-34.063 0-62.558 26.945-63.248 61-.17 8.374 1.332 16.371 4.166 23.706-20.787 21.981-35.136 48.385-40.644 77.208-2.624 13.73 7.822 26.479 21.801 26.479h353.467c13.977.001 24.432-12.747 21.802-26.474z" fill="#ffbf9e"/></g><g><path d="m266.001 405.554v-45.368c0-5.523-4.478-10.001-10.001-10.001-5.523 0-10.001 4.478-10.001 10.001v45.368c0 27.032-21.914 48.946-48.946 48.946-27.032 0-48.946 21.914-48.946 48.946v1.054h215.785v-1.054c0-27.032-21.914-48.946-48.946-48.946-27.031 0-48.945-21.914-48.945-48.946z" fill="#f7ab8b"/></g><g><path d="m143.942 377.107c.69-34.056 29.185-61 63.248-61h-50c-34.063 0-62.558 26.945-63.248 61-.17 8.374 1.332 16.371 4.166 23.706-20.787 21.981-35.136 48.385-40.644 77.208-2.624 13.73 7.822 26.479 21.801 26.479h25.694c0-39.1 16.14-75.126 43.149-103.687-2.834-7.335-4.336-15.333-4.166-23.706z" fill="#f7ab8b"/></g><g><path d="m403.874 176.685h-295.748c-21.692 0-39.278 17.585-39.278 39.277 0 17.229 11.098 31.857 26.531 37.151-3.948 6.126-6.248 13.414-6.248 21.243 0 21.232 16.85 38.518 37.905 39.243-.979 3.431-1.514 7.049-1.514 10.795 0 21.692 17.585 39.277 39.278 39.277 2.671 0 5.278-.269 7.799-.777 6.7 12.078 19.575 20.257 34.365 20.257 7.024 0 13.612-1.853 19.317-5.083 7.202 8.332 17.84 13.612 29.718 13.612s22.516-5.28 29.718-13.612c5.705 3.23 12.293 5.083 19.317 5.083 14.79 0 27.666-8.179 34.365-20.257 2.521.508 5.128.777 7.799.777 21.692 0 39.278-17.585 39.278-39.277 0-3.745-.535-7.364-1.514-10.795 21.056-.724 37.905-18.011 37.905-39.243 0-7.83-2.3-15.118-6.248-21.243 15.433-5.294 26.531-19.922 26.531-37.151.001-21.692-17.584-39.277-39.276-39.277z" fill="#e8899e"/></g><g><path d="m223.468 331.346c-24.835-.567-44.797-20.863-44.797-45.834 0-25.328 20.533-45.861 45.861-45.861v-62.966h-116.406c-21.692 0-39.278 17.585-39.278 39.278 0 17.229 11.098 31.857 26.531 37.151-3.948 6.126-6.248 13.414-6.248 21.243 0 21.232 16.85 38.518 37.905 39.243-.979 3.431-1.514 7.049-1.514 10.795 0 21.693 17.585 39.278 39.278 39.278 2.671 0 5.278-.269 7.799-.777 6.699 12.078 19.575 20.257 34.365 20.257 7.024 0 13.612-1.853 19.317-5.083.004.004.008.008.011.012-4.992-7.342-7.911-16.205-7.911-25.752.001-7.565 1.843-14.694 5.087-20.984z" fill="#e26e7e"/></g><g><path d="m256 297.5c-66.545 0-106.861-13.495-126.875-42.47-18.125-26.239-18.125-63.297-18.125-102.53 0-79.953 65.047-145 145-145s145 65.047 145 145c0 39.233 0 76.291-18.125 102.53-20.014 28.975-60.33 42.47-126.875 42.47z" fill="#ffd4be"/></g><g><path d="m163.449 152.5c0-71.126 51.214-130.286 118.776-142.629-8.507-1.553-17.27-2.371-26.225-2.371-80.081 0-145 64.919-145 145s0 145 145 145c9.333 0 18.054-.274 26.224-.798-118.765-7.626-118.775-69.275-118.775-144.202z" fill="#ffbf9e"/></g><g><g><g><ellipse cx="176.355" cy="197.233" fill="#eda1ab" rx="29.387" ry="23.403"/></g><g><ellipse cx="335.645" cy="197.233" fill="#eda1ab" rx="29.387" ry="23.403"/></g><g><path d="m279.694 179.252c0-14.643-10.608-16.019-23.693-16.019-13.086 0-23.694 1.376-23.694 16.019s10.608 26.513 23.694 26.513c13.085 0 23.693-11.87 23.693-26.513z" fill="#4e5660"/></g></g><g><path d="m181.268 176.793c-4.142 0-7.5-3.358-7.5-7.5v-12c0-4.142 3.358-7.5 7.5-7.5s7.5 3.358 7.5 7.5v12c0 4.143-3.358 7.5-7.5 7.5z"/></g><g><path d="m256 213.265c-17.2 0-31.193-15.258-31.193-34.013 0-23.519 21.859-23.519 31.193-23.519s31.193 0 31.193 23.519c0 18.755-13.993 34.013-31.193 34.013zm0-42.532c-15.539 0-16.193 2.612-16.193 8.519 0 10.483 7.264 19.013 16.193 19.013s16.193-8.529 16.193-19.013c0-5.907-.654-8.519-16.193-8.519z"/></g><g><path d="m330.732 176.793c-4.142 0-7.5-3.358-7.5-7.5v-12c0-4.142 3.358-7.5 7.5-7.5s7.5 3.358 7.5 7.5v12c0 4.143-3.358 7.5-7.5 7.5z"/></g></g><path d="m422.447 399.041c2.217-7.136 3.262-14.542 3.11-22.079-.465-23.09-12.278-44.061-31.772-56.757-.005-.06-.007-.12-.013-.18 21.092-4.619 36.596-23.264 36.596-45.668 0-6.104-1.185-12.095-3.466-17.675 14.482-8.187 23.75-23.65 23.75-40.719 0-11.82-4.416-22.622-11.672-30.865 3.758-6.547 5.729-13.912 5.729-21.609 0-6.251-1.333-12.193-3.713-17.572 18.873-8.154 28.793-19.038 28.793-31.751 0-19.184-22.644-30.02-36.802-34.92 2.947-4.994 5.577-11.396 4.984-17.746-.503-5.388-3.177-10-7.733-13.335-11.084-8.115-35.762-5.005-54.402 10.12-27.949-35.472-71.278-58.285-119.836-58.285-48.557 0-91.885 22.813-119.833 58.282-18.635-15.109-43.356-18.208-54.404-10.118-4.557 3.336-7.23 7.947-7.733 13.335-.593 6.35 2.037 12.751 4.984 17.746-14.159 4.9-36.802 15.736-36.802 34.919 0 12.705 9.921 23.592 28.791 31.749-2.381 5.38-3.715 11.323-3.715 17.575 0 7.696 1.971 15.063 5.73 21.612-7.255 8.243-11.67 19.044-11.67 30.863 0 17.068 9.267 32.532 23.75 40.719-2.282 5.581-3.466 11.571-3.466 17.675 0 22.404 15.504 41.049 36.596 45.668-.005.058-.007.116-.012.174-19.479 12.699-31.306 33.733-31.773 56.756-.152 7.535.892 14.94 3.107 22.075-20.478 22.774-34.088 49.508-39.453 77.583-1.677 8.778.621 17.754 6.304 24.627 5.655 6.838 13.988 10.76 22.863 10.76h87.004c4.142 0 7.5-3.358 7.5-7.5s-3.358-7.5-7.5-7.5h-87.004c-4.388 0-8.509-1.939-11.304-5.319-2.824-3.415-3.965-7.881-3.13-12.252 5.094-26.655 18.485-52.059 38.727-73.462 1.987-2.102 2.589-5.158 1.547-7.856-2.576-6.668-3.809-13.684-3.664-20.852.311-15.324 7.084-29.532 18.514-39.584 5.739 19.343 23.666 33.497 44.846 33.497 1.353 0 2.707-.059 4.056-.175 8.72 12.239 22.889 19.655 38.108 19.655 6.094 0 12.131-1.198 17.74-3.497 8.546 7.701 19.669 12.025 31.296 12.025s22.75-4.324 31.296-12.025c5.608 2.298 11.645 3.497 17.739 3.497 15.219 0 29.389-7.417 38.108-19.655 1.349.117 2.703.175 4.056.175 21.187 0 39.119-14.163 44.851-33.515 11.44 10.042 18.199 24.235 18.509 39.608.145 7.168-1.089 14.184-3.666 20.853-1.042 2.697-.441 5.753 1.544 7.854 20.23 21.41 33.623 46.814 38.729 73.465.836 4.365-.302 8.825-3.124 12.239-2.797 3.384-6.92 5.325-11.312 5.325h-236.118c-4.142 0-7.5 3.358-7.5 7.5s3.358 7.5 7.5 7.5h236.119c8.88 0 17.217-3.925 22.874-10.768 5.681-6.873 7.975-15.845 6.294-24.618-5.377-28.067-18.987-54.798-39.452-77.574zm-14.883-263.393c12.669 2.928 22.144 14.295 22.144 27.841 0 4.18-.898 8.204-2.598 11.902-5.602-3.221-11.924-5.322-18.667-5.979.055-5.585.057-11.228.057-16.911 0-5.697-.324-11.318-.936-16.853zm13.811-75.381c1.257.92 1.572 1.711 1.659 2.616.409 4.28-4.47 11.735-7.885 15.415-1.834 1.958-2.482 4.745-1.701 7.311s2.873 4.52 5.486 5.124c11.698 2.703 35.854 11.987 35.854 23.433 0 6.467-8.27 13.458-22.345 19.061-7.081-7.325-16.696-12.18-27.421-13.135-3.885-17.881-10.907-34.604-20.473-49.555 14.543-12.322 32.461-13.468 36.826-10.27zm-364.163 53.897c0-11.396 24.16-20.709 35.854-23.432 2.607-.603 4.69-2.555 5.476-5.114.785-2.558.142-5.348-1.679-7.309-3.427-3.691-8.306-11.147-7.896-15.427.086-.905.401-1.696 1.659-2.617 4.346-3.18 22.283-2.041 36.826 10.271-9.565 14.95-16.587 31.673-20.472 49.553-10.725.954-20.34 5.808-27.422 13.133-14.07-5.602-22.346-12.601-22.346-19.058zm27.677 61.227c-1.701-3.699-2.6-7.724-2.6-11.903 0-13.547 9.477-24.914 22.147-27.841-.611 5.536-.936 11.157-.936 16.853 0 5.689.002 11.332.056 16.911-6.743.657-13.065 2.759-18.667 5.98zm292.862 140.266c.814 2.853 1.227 5.793 1.227 8.737 0 17.522-14.255 31.777-31.778 31.777-2.12 0-4.245-.212-6.316-.629-3.204-.646-6.456.856-8.041 3.714-5.609 10.113-16.265 16.396-27.807 16.396-5.472 0-10.874-1.421-15.622-4.109-3.111-1.763-7.033-1.083-9.369 1.622-6.052 7.001-14.816 11.017-24.044 11.017s-17.992-4.015-24.044-11.017c-2.338-2.704-6.257-3.384-9.369-1.622-4.749 2.688-10.15 4.109-15.622 4.109-11.542 0-22.197-6.282-27.807-16.396-1.585-2.857-4.839-4.359-8.041-3.714-2.071.417-4.196.629-6.316.629-17.522 0-31.778-14.255-31.778-31.777 0-2.944.413-5.884 1.227-8.737.633-2.219.21-4.606-1.148-6.472s-3.5-3.002-5.806-3.082c-17.194-.591-30.663-14.536-30.663-31.747 0-6.111 1.747-12.052 5.052-17.18 1.249-1.938 1.537-4.343.782-6.521-.756-2.178-2.471-3.888-4.652-4.636-12.839-4.404-21.465-16.483-21.465-30.057 0-16.083 12.012-29.404 27.533-31.486 1.028 28.27 4.849 54.225 19.072 74.816 21.538 31.184 63.814 45.708 133.044 45.708 39.297 0 69.531-4.641 92.429-14.187 3.823-1.594 5.63-5.985 4.036-9.809-1.594-3.823-5.985-5.631-9.809-4.036-21.033 8.769-49.379 13.032-86.656 13.032-137.5 0-137.5-57.675-137.5-137.5 0-75.818 61.682-137.5 137.5-137.5s137.5 61.682 137.5 137.5c0 46.117 0 85.945-27.363 110.174-3.101 2.746-3.389 7.486-.643 10.587s7.485 3.389 10.587.643c25.04-22.172 30.734-54.085 32.032-89.428 15.524 2.08 27.538 15.402 27.538 31.487 0 13.573-8.626 25.652-21.465 30.057-2.181.748-3.896 2.458-4.652 4.636-.755 2.178-.467 4.583.782 6.521 3.305 5.128 5.052 11.069 5.052 17.18 0 17.211-13.469 31.156-30.663 31.747-2.306.08-4.448 1.216-5.806 3.082-1.358 1.865-1.781 4.252-1.148 6.471z"/></g></svg>