<svg id="Capa_1" enable-background="new 0 0 512 512" height="512" viewBox="0 0 512 512" width="512" xmlns="http://www.w3.org/2000/svg"><g><g><path d="m25.715 138.731v347.345c0 10.175 8.249 18.424 18.424 18.424 10.175 0 18.424-8.249 18.424-18.424v-62.548c0-38.158 30.933-69.091 69.091-69.091h10.288z" fill="#5dc1ed"/></g><g><path d="m340.15 414.881c24.748 0 44.81 20.062 44.81 44.81 0 24.748-20.062 44.81-44.81 44.81h-97.642c-27.094 0-52.003-14.867-64.865-38.714l-158.398-293.702.038-.021c-21.245-37.894-12.824-84.368 17.72-112.63 8.431-7.801 21.848-6.147 28.062 3.513l200.086 311.006c16.412 25.509 44.666 40.928 74.999 40.928z" fill="#a3defe"/></g><g><path d="m217.643 465.786-158.398-293.701.038-.021c-19.132-34.126-14.195-75.204 9.282-103.678l-3.499-5.439c-6.214-9.659-19.632-11.313-28.062-3.513-30.544 28.262-38.965 74.736-17.72 112.63l-.038.021 158.398 293.701c12.861 23.847 37.77 38.714 64.865 38.714h40c-27.095 0-52.005-14.867-64.866-38.714z" fill="#7acefa"/></g><g><path d="m486.285 373.269v-347.345c0-10.175-8.249-18.424-18.424-18.424-10.175 0-18.424 8.249-18.424 18.424v62.548c0 38.158-30.933 69.091-69.091 69.091h-10.288z" fill="#7acefa"/></g><g><path d="m171.85 97.119c-24.748 0-44.81-20.062-44.81-44.81 0-24.748 20.062-44.81 44.81-44.81h97.642c27.094 0 52.003 14.867 64.865 38.714l158.398 293.701-.038.021c21.245 37.894 12.824 84.368-17.72 112.63-8.431 7.801-21.848 6.147-28.062-3.513l-200.086-311.004c-16.412-25.51-44.666-40.929-74.999-40.929z" fill="#a3defe"/></g><g><path d="m261.75 99.248c-16.412-25.51-44.665-40.928-74.998-40.928-22.996 0-41.936-17.326-44.503-39.635-9.32 8.211-15.208 20.228-15.208 33.625 0 24.748 20.062 44.81 44.81 44.81 30.333 0 58.587 15.419 74.998 40.929l200.086 311.006c6.214 9.659 19.632 11.313 28.062 3.512 3.037-2.81 5.845-5.806 8.437-8.95z" fill="#7acefa"/></g><g><path d="m266.018 85.944c6.153 20.413 22.125 36.386 42.538 42.538 9.925 2.991 9.925 17.045 0 20.036-20.413 6.153-36.386 22.125-42.538 42.538-2.991 9.925-17.045 9.925-20.036 0-6.153-20.413-22.125-36.386-42.538-42.538-9.925-2.991-9.925-17.045 0-20.036 20.413-6.153 36.386-22.125 42.538-42.538 2.991-9.925 17.045-9.925 20.036 0z" fill="#f7ef87"/></g><g><path d="m256 138.5c0-15.384 5.796-29.409 15.315-40.029-2.185-3.934-3.97-8.127-5.297-12.528-2.991-9.925-17.045-9.925-20.036 0-6.153 20.413-22.125 36.386-42.538 42.538-9.925 2.991-9.925 17.045 0 20.036 20.413 6.153 36.386 22.125 42.538 42.538 2.991 9.925 17.045 9.925 20.036 0 1.326-4.401 3.112-8.594 5.297-12.528-9.519-10.618-15.315-24.643-15.315-40.027z" fill="#efd176"/></g><g><path d="m266.018 320.944c6.153 20.413 22.125 36.386 42.538 42.538 9.925 2.991 9.925 17.045 0 20.036-20.413 6.153-36.386 22.125-42.538 42.538-2.991 9.925-17.045 9.925-20.036 0-6.153-20.413-22.125-36.386-42.538-42.538-9.925-2.991-9.925-17.045 0-20.036 20.413-6.153 36.386-22.125 42.538-42.538 2.991-9.925 17.045-9.925 20.036 0z" fill="#f7ef87"/></g><g><path d="m256 373.5c0-15.384 5.796-29.409 15.315-40.029-2.185-3.934-3.97-8.127-5.297-12.528-2.991-9.925-17.045-9.925-20.036 0-6.153 20.413-22.125 36.386-42.538 42.538-9.925 2.991-9.925 17.045 0 20.036 20.413 6.153 36.386 22.125 42.538 42.538 2.991 9.925 17.045 9.925 20.036 0 1.326-4.401 3.112-8.594 5.297-12.528-9.519-10.617-15.315-24.643-15.315-40.027z" fill="#efd176"/></g><g><path d="m340.15 407.381c-14.585 0-29.033-4-41.565-11.385 3.779-2.206 7.839-4.001 12.136-5.297 7.644-2.305 12.78-9.217 12.779-17.2 0-7.982-5.136-14.894-12.779-17.197-18.054-5.442-32.081-19.47-37.521-37.522 0 0 0 0 0-.001-2.305-7.644-9.217-12.779-17.2-12.779s-14.895 5.136-17.199 12.78c-.023.078-.054.153-.077.231l-167.35-260.122c-4.154-6.456-10.904-10.714-18.52-11.681-7.647-.973-15.279 1.479-20.944 6.721-16.14 14.934-27.004 35.174-30.589 56.991-3.596 21.888.313 44.606 11.011 64.075.093.22.197.437.312.65l5.571 10.33v.003 300.098c0 14.295 11.629 25.924 25.924 25.924s25.924-11.629 25.924-25.924v-62.548c0-27.406 18.412-51.583 44.373-59.14l22.847 42.363c1.355 2.513 3.939 3.94 6.607 3.94 1.202 0 2.421-.289 3.554-.899 3.646-1.967 5.007-6.516 3.041-10.162l-124.254-230.392c-.116-.285-.252-.566-.406-.843-19.214-34.271-12.522-76.814 16.272-103.457 2.402-2.221 5.635-3.263 8.868-2.85 3.205.406 6.045 2.198 7.793 4.915l172.275 267.778c-7.118 10.174-17.503 17.827-29.754 21.52-7.644 2.304-12.78 9.215-12.78 17.197 0 7.983 5.135 14.896 12.78 17.2 18.054 5.441 32.08 19.468 37.521 37.522 2.305 7.644 9.217 12.78 17.2 12.78s14.895-5.136 17.199-12.779c2.565-8.51 7.055-16.107 12.958-22.35 15.879 10.67 34.833 16.51 53.993 16.51 20.573 0 37.31 16.737 37.31 37.31s-16.737 37.309-37.31 37.309h-97.642c-24.37 0-46.695-13.324-58.264-34.774l-19.515-36.185c-1.965-3.644-6.515-5.007-10.161-3.041-3.646 1.967-5.007 6.516-3.041 10.162l19.515 36.185c14.189 26.309 41.574 42.653 71.466 42.653h97.642c28.844 0 52.31-23.466 52.31-52.31s-23.466-52.309-52.31-52.309zm-285.087 16.147v62.548c0 6.023-4.9 10.924-10.924 10.924-6.023 0-10.924-4.9-10.924-10.924v-272.288l73.974 137.163c-30.664 10.362-52.126 39.589-52.126 72.577zm203.774.364c-.553 1.835-2.015 2.108-2.837 2.108s-2.284-.273-2.837-2.107c-6.896-22.881-24.673-40.658-47.555-47.555-1.834-.554-2.108-2.016-2.108-2.838s.274-2.284 2.108-2.837c22.881-6.897 40.659-24.675 47.554-47.555.553-1.835 2.015-2.108 2.837-2.108s2.284.273 2.837 2.108c6.896 22.88 24.673 40.657 47.555 47.555 1.834.553 2.108 2.015 2.108 2.837s-.274 2.284-2.108 2.838c-22.881 6.896-40.658 24.674-47.554 47.554z"/><path d="m499.668 337.005c-.092-.22-.196-.437-.312-.65l-5.687-10.545c.071-.416.117-.841.117-1.277v-298.609c-.001-14.295-11.63-25.924-25.925-25.924s-25.924 11.629-25.924 25.924v62.548c0 27.411-18.411 51.584-44.373 59.14l-56.606-104.959c-14.189-26.309-41.574-42.653-71.466-42.653h-97.642c-28.844 0-52.31 23.466-52.31 52.31s23.466 52.31 52.31 52.31c14.589 0 29.035 3.999 41.567 11.384-3.78 2.207-7.84 4.002-12.138 5.297-7.644 2.305-12.78 9.217-12.779 17.2 0 7.982 5.136 14.894 12.779 17.197 18.054 5.442 32.081 19.47 37.522 37.523 2.304 7.644 9.216 12.779 17.199 12.779s14.895-5.136 17.199-12.78c.024-.078.054-.153.078-.231l167.35 260.123c4.153 6.456 10.903 10.714 18.519 11.681 1.099.14 2.198.208 3.291.208 6.508 0 12.802-2.44 17.653-6.929 16.14-14.935 27.003-35.174 30.588-56.991 3.597-21.889-.313-44.607-11.01-64.076zm-243.667-146.005c-.823 0-2.285-.273-2.837-2.108-6.896-22.88-24.673-40.657-47.555-47.555-1.834-.553-2.108-2.015-2.108-2.837s.274-2.284 2.108-2.838c22.882-6.896 40.659-24.674 47.555-47.554.552-1.835 2.014-2.108 2.836-2.108s2.284.273 2.837 2.108v-.001c6.896 22.881 24.673 40.658 47.555 47.555 1.834.554 2.108 2.016 2.108 2.838s-.274 2.284-2.108 2.837c-22.881 6.897-40.659 24.675-47.554 47.555-.554 1.835-2.016 2.108-2.837 2.108zm213.902 256.062c-2.402 2.222-5.632 3.265-8.868 2.85-3.205-.406-6.045-2.198-7.793-4.915l-172.275-267.779c7.118-10.173 17.503-17.826 29.754-21.519 7.644-2.304 12.78-9.215 12.78-17.197 0-7.983-5.135-14.896-12.78-17.2-18.054-5.441-32.08-19.468-37.521-37.521 0 0 0 0 0-.001-2.305-7.644-9.217-12.78-17.2-12.78s-14.895 5.136-17.199 12.779c-2.565 8.51-7.055 16.107-12.958 22.35-15.88-10.67-34.829-16.51-53.993-16.51-20.573 0-37.31-16.737-37.31-37.31s16.737-37.309 37.31-37.309h97.642c24.37 0 46.695 13.324 58.264 34.774l89.542 166.03c1.355 2.514 3.939 3.941 6.608 3.94 1.202 0 2.421-.289 3.553-.899 3.646-1.967 5.007-6.516 3.041-10.162l-25.69-47.634c30.666-10.362 52.126-39.583 52.126-72.578v-62.547c0-6.023 4.901-10.924 10.924-10.924s10.924 4.9 10.924 10.924v272.289l-34.041-63.119c-1.966-3.644-6.514-5.007-10.161-3.041-3.646 1.967-5.007 6.516-3.041 10.162l54.227 100.547c.116.285.251.566.406.843 19.215 34.271 12.523 76.814-16.271 103.457z"/></g></g></svg>