<svg id="Capa_1" enable-background="new 0 0 512 512" height="512" viewBox="0 0 512 512" width="512" xmlns="http://www.w3.org/2000/svg"><g><g><path d="m156.885 504.5c-12.566 0-22.098-11.469-19.643-23.793 11.054-55.475 60.014-97.282 118.738-97.282s107.684 41.808 118.738 97.282c2.456 12.324-7.076 23.793-19.643 23.793z" fill="#e8899e"/></g><g><path d="m280.974 386.03c-8.065-1.705-16.426-2.605-24.993-2.605-58.6 0-107.629 41.885-118.724 97.271-2.469 12.326 7.069 23.804 19.64 23.804h28.008c.001-58.166 41.276-106.909 96.069-118.47z" fill="#e26e7e"/></g><g><path d="m355.981 398.695c0 3.081.932 6.09 2.674 8.632l8.716 12.719c3.636 5.306 1.366 12.56-4.602 14.959-17.69 7.109-21.99 27.607-46.789 27.607-30.001 0-30.001-30-60.002-30-30 0-30 30-59.999 30-24.797 0-29.097-20.498-46.785-27.607-5.968-2.399-8.238-9.653-4.602-14.959l8.716-12.719c1.742-2.542 2.674-5.551 2.674-8.632 0-8.433 6.837-15.27 15.27-15.27h169.46c8.432 0 15.269 6.837 15.269 15.27z" fill="#fff"/></g><g><path d="m232.47 383.425h-61.219c-8.433 0-15.27 6.837-15.27 15.27 0 3.081-.932 6.09-2.674 8.632l-8.716 12.719c-3.636 5.306-1.366 12.56 4.602 14.959 17.688 7.109 21.988 27.607 46.785 27.607 30 0 30-30 59.999-30-12.983 0-23.507-10.524-23.507-23.507z" fill="#fcf2d0"/></g><g><circle cx="401.108" cy="251.131" fill="#f7ab8b" r="36.081"/></g><g><circle cx="110.85" cy="251.131" fill="#f7ab8b" r="36.081"/></g><g><g><circle cx="255.981" cy="251.128" fill="#ffd4be" r="145"/></g></g><g><g><path d="m160.981 251.128c0-71.555 51.833-130.998 120-142.846-8.122-1.412-16.474-2.154-25-2.154-80.081 0-145 64.919-145 145s64.919 145 145 145c8.526 0 16.878-.743 25-2.154-68.167-11.848-120-71.29-120-142.846z" fill="#ffbf9e"/></g></g><g><g><g><ellipse cx="176.424" cy="300.122" fill="#eda1ab" rx="29.355" ry="23.377"/></g></g><g><path d="m193.532 285.119c-4.143 0-7.5-3.358-7.5-7.5v-12c0-4.142 3.357-7.5 7.5-7.5s7.5 3.358 7.5 7.5v12c0 4.142-3.358 7.5-7.5 7.5z"/></g><g><path d="m318.429 285.119c-4.143 0-7.5-3.358-7.5-7.5v-12c0-4.142 3.357-7.5 7.5-7.5s7.5 3.358 7.5 7.5v12c0 4.142-3.357 7.5-7.5 7.5z"/></g></g><g><path d="m255.981 7.5c-28.825 0-145.13 90.238-145.13 207.55h145.13 145.131c-.001-117.312-116.306-207.55-145.131-207.55z" fill="#efd176"/></g><g><path d="m225.684 20.413c-44.847 28.931-114.834 103.631-114.834 194.637h130.162v-31.55c-35.346-23.993-60.271-132.852-15.328-163.087z" fill="#e0bb5f"/></g><g><g><path d="m382.352 111.734c-11.766 28.407-10.546 59.03.929 85.553 2.193 5.069 8.142 7.534 13.278 5.5 26.869-10.64 49.385-31.431 61.152-59.838s10.546-59.03-.929-85.553c-2.193-5.069-8.142-7.534-13.278-5.5-26.869 10.64-49.386 31.431-61.152 59.838z" fill="#a3defe"/></g></g><g><path d="m445.981 223.5h-380c-11.046 0-20-8.954-20-20 0-11.046 8.954-20 20-20h380c11.046 0 20 8.954 20 20 0 11.046-8.955 20-20 20z" fill="#f7ef87"/></g><g><path d="m221.013 203.5c0-11.046 8.954-20 20-20h-175.032c-11.046 0-20 8.954-20 20s8.954 20 20 20h175.032c-11.046 0-20-8.954-20-20z" fill="#efd176"/></g><g><path d="m445.981 317.619h-190.006c-11.046 0-20-8.954-20-20 0-11.046 8.954-20 20-20h190.006c11.046 0 20 8.954 20 20 0 11.045-8.955 20-20 20z" fill="#ffbf9e"/></g><g><path d="m298.429 297.619c0-11.046 8.954-20 20-20h-62.455c-11.046 0-20 8.954-20 20s8.954 20 20 20h62.455c-11.045 0-20-8.955-20-20z" fill="#f7ab8b"/></g><g><path d="m255.981 362.619c-8.479 0-16.54-3.671-22.118-10.073-2.722-3.123-2.396-7.86.728-10.582 3.122-2.721 7.86-2.396 10.581.727 2.729 3.132 6.669 4.928 10.81 4.928s8.081-1.796 10.81-4.928c2.721-3.123 7.458-3.448 10.581-.727s3.449 7.458.728 10.582c-5.58 6.402-13.642 10.073-22.12 10.073z"/></g><path d="m473.481 203.5c0-15.042-12.142-27.296-27.138-27.491 7.578-9.012 13.71-19.114 18.298-30.19 12.166-29.37 11.819-61.83-.975-91.401-3.783-8.743-14.064-13.003-22.923-9.495-28.944 11.462-51.577 33.051-64.047 60.989-6.598-11.159-14.134-22.092-22.545-32.636-2.584-3.239-7.304-3.769-10.54-1.187-3.238 2.583-3.77 7.302-1.187 10.54 10.822 13.567 20.118 27.786 27.687 42.283-4.236 16.68-4.682 33.99-1.272 51.088h-246.041c11.993-53.05 45.475-93.943 64.895-114.024 29.639-30.651 58.703-46.976 68.288-46.976 8.927 0 36.287 14.4 66.665 45.31 2.903 2.954 7.652 2.996 10.605.092 2.954-2.903 2.996-7.652.092-10.606-28.814-29.319-60.627-49.796-77.362-49.796-16.933 0-50.188 21.679-79.071 51.548-20.93 21.643-57.317 66.223-69.461 124.452h-41.468c-15.163 0-27.5 12.336-27.5 27.5s12.337 27.5 27.5 27.5h6.218c-3.201 6.143-4.93 13.028-4.93 20.131 0 23.699 19.018 43.027 42.592 43.556 5.7 19.116 15.11 37.08 27.819 52.684 1.482 1.82 3.642 2.764 5.82 2.764 1.664 0 3.34-.552 4.731-1.685 3.212-2.616 3.694-7.34 1.079-10.552-19.881-24.41-30.83-55.225-30.83-86.77 0-6.742.499-13.493 1.47-20.128h272.06c.972 6.634 1.471 13.383 1.471 20.128 0 6.358-.443 12.723-1.307 18.99h-136.199c-15.163 0-27.5 12.336-27.5 27.5s12.337 27.5 27.5 27.5h115.908c-25.167 39.442-68.571 63.51-115.903 63.51-31.55 0-62.369-10.952-86.78-30.839-3.211-2.615-7.936-2.133-10.552 1.078s-2.134 7.936 1.077 10.551c2.869 2.338 5.823 4.557 8.844 6.669-11.296 1.331-20.089 10.959-20.089 22.607 0 1.575-.471 3.093-1.36 4.392l-8.716 12.719c-3.01 4.392-3.852 9.831-2.311 14.922 1.318 4.354 4.23 7.946 8.128 10.165-6.822 11.949-11.639 24.818-14.335 38.348-1.604 8.047.471 16.312 5.691 22.675 5.257 6.408 13.022 10.083 21.307 10.083h198.191c8.284 0 16.05-3.675 21.307-10.083 5.221-6.364 7.295-14.628 5.691-22.675-2.697-13.533-7.515-26.402-14.336-38.349 3.897-2.219 6.81-5.811 8.128-10.165 1.542-5.092.7-10.531-2.31-14.923l-8.716-12.72c-.89-1.298-1.36-2.816-1.36-4.391 0-11.614-8.742-21.218-19.99-22.594 18.627-13.049 34.385-30.345 45.846-50.982h56.644c15.163 0 27.5-12.336 27.5-27.5s-12.337-27.5-27.5-27.5h-5.629c2.834-5.846 4.337-12.3 4.337-18.988 0-7.092-1.726-13.983-4.929-20.131h6.221c15.165.003 27.502-12.333 27.502-27.497zm-108.695 288.903c-2.396 2.921-5.936 4.597-9.71 4.597h-198.191c-3.774 0-7.313-1.676-9.71-4.597-2.36-2.876-3.3-6.605-2.577-10.229 2.32-11.641 6.421-22.726 12.203-33.048 1.273 1.197 2.548 2.463 3.874 3.789 7.662 7.662 17.196 17.197 35.303 17.197s27.642-9.535 35.304-17.197c7.152-7.153 12.803-12.803 24.695-12.803 11.894 0 17.544 5.65 24.698 12.803 7.661 7.662 17.196 17.197 35.304 17.197 18.106 0 27.643-9.535 35.304-17.196 1.327-1.327 2.603-2.594 3.877-3.791 5.782 10.321 9.884 21.407 12.204 33.05.722 3.622-.217 7.351-2.578 10.228zm-47.209-101.478h23.135c4.284 0 7.77 3.486 7.77 7.77 0 4.615 1.379 9.067 3.987 12.872l8.716 12.719c.551.804.481 1.584.326 2.098-.134.444-.513 1.25-1.539 1.662-8.412 3.38-14.193 9.162-19.295 14.263-7.153 7.153-12.804 12.803-24.697 12.803s-17.544-5.65-24.697-12.803c-7.662-7.662-17.197-17.197-35.305-17.197-18.106 0-27.641 9.535-35.303 17.197-7.152 7.153-12.803 12.803-24.696 12.803s-17.543-5.65-24.695-12.803c-5.101-5.101-10.881-10.882-19.292-14.262-1.026-.413-1.405-1.219-1.539-1.663-.155-.513-.225-1.293.326-2.098l8.716-12.718c2.608-3.806 3.987-8.257 3.987-12.873 0-4.284 3.485-7.77 7.77-7.77h23.842c19.092 8.303 39.843 12.704 60.888 12.704 21.463 0 42.198-4.465 61.122-12.727.157.009.313.023.473.023zm71.704-276.321c10.599-25.586 30.836-45.38 56.985-55.735 1.382-.548 3.043.144 3.632 1.505 11.169 25.813 11.482 54.119.885 79.704-5.724 13.817-14.202 25.892-25.197 35.922h-17.592l20.303-49.017c1.586-3.827-.231-8.214-4.059-9.799-3.824-1.583-8.213.231-9.799 4.059l-22.68 54.757h-7.591c-4.739-20.682-2.999-41.813 5.113-61.396zm-335.8 88.896c0-6.893 5.607-12.5 12.5-12.5h380c6.893 0 12.5 5.607 12.5 12.5s-5.607 12.5-12.5 12.5h-380c-6.893 0-12.5-5.607-12.5-12.5zm52.647 75.815c-13.52-2.258-23.86-14.033-23.86-28.184 0-7.585 3.006-14.792 8.308-20.131h14.224c-.876 6.652-1.319 13.396-1.319 20.128 0 9.498.902 18.934 2.647 28.187zm352.353 18.304c0 6.893-5.607 12.5-12.5 12.5h-190.006c-6.893 0-12.5-5.607-12.5-12.5s5.607-12.5 12.5-12.5h190.006c6.892 0 12.5 5.607 12.5 12.5zm-28.792-46.488c0 7.073-2.556 13.751-7.224 18.988h-15.166c.78-6.282 1.182-12.64 1.182-18.99 0-6.735-.447-13.477-1.323-20.128h14.225c5.298 5.338 8.306 12.558 8.306 20.13z"/></g></svg>