<svg id="Capa_1" enable-background="new 0 0 512 512" height="512" viewBox="0 0 512 512" width="512" xmlns="http://www.w3.org/2000/svg"><g><g><circle cx="256" cy="207.5" fill="#a3defe" r="200"/></g><g><path d="m184.681 207.5c0-87.948 56.768-162.635 135.66-189.423-20.192-6.856-41.832-10.577-64.341-10.577-110.457 0-200 89.543-200 200s89.543 200 200 200c22.509 0 44.149-3.721 64.34-10.577-78.891-26.788-135.659-101.475-135.659-189.423z" fill="#7acefa"/></g><g><path d="m378.449 240.358c0-33.137-26.863-60-60-60s-60 26.863-60 60c0 2.444.163 4.848.447 7.215-.963-.034-1.925-.073-2.896-.073-44.183 0-80 35.817-80 80s35.817 80 80 80 80-35.817 80-80c0-10.011-1.855-19.584-5.213-28.417 27.217-5.69 47.662-29.817 47.662-58.725z" fill="#908cd6"/></g><g><path d="m236 327.5c0-44.183 35.817-80 80-80 .971 0 1.933.039 2.896.073-.284-2.367-.447-4.771-.447-7.215 0-22.205 12.071-41.577 30-51.953-8.827-5.108-19.068-8.047-30-8.047-33.137 0-60 26.863-60 60 0 2.444.163 4.848.447 7.215-.963-.034-1.925-.073-2.896-.073-44.183 0-80 35.817-80 80s35.817 80 80 80c10.613 0 20.733-2.085 30-5.837-29.313-11.871-50-40.593-50-74.163z" fill="#6c6cc1"/></g><g><circle cx="196.711" cy="164.529" fill="#908cd6" r="40"/></g><g><path d="m196 164.529c0-14.95 8.207-27.975 20.355-34.84-5.804-3.28-12.503-5.16-19.645-5.16-22.091 0-40 17.908-40 40 0 22.091 17.909 40 40 40 7.142 0 13.841-1.881 19.645-5.16-12.148-6.866-20.355-19.891-20.355-34.84z" fill="#6c6cc1"/></g><g><path d="m446 484.5h-380l28.678-105.258c2.371-8.704 10.276-14.742 19.297-14.742h284.05c9.021 0 16.925 6.039 19.297 14.742z" fill="#383c43"/></g><g><path d="m207.422 364.5h-93.447c-9.021 0-16.925 6.039-19.297 14.742l-28.678 105.258h93.447l28.678-105.258c2.372-8.703 10.276-14.742 19.297-14.742z" fill="#282d35"/></g><g><path d="m484.5 504.5h-457c-11.046 0-20-8.954-20-20 0-11.046 8.954-20 20-20h457c11.046 0 20 8.954 20 20 0 11.046-8.954 20-20 20z" fill="#4e5660"/></g><g><path d="m216 484.5c0-11.046 8.954-20 20-20h-208.5c-11.046 0-20 8.954-20 20 0 11.046 8.954 20 20 20h208.5c-11.045 0-20-8.954-20-20z" fill="#383c43"/></g><g><path d="m412.676 18.666c9.229 30.62 33.187 54.579 63.807 63.807 14.887 4.487 14.887 25.567 0 30.054-30.62 9.229-54.578 33.187-63.807 63.807-4.487 14.887-25.567 14.887-30.054 0-9.229-30.62-33.187-54.578-63.807-63.807-14.887-4.487-14.887-25.567 0-30.054 30.62-9.229 54.578-33.187 63.807-63.807 4.487-14.888 25.567-14.888 30.054 0z" fill="#f7ef87"/></g><g><path d="m397.649 97.5c0-23.076 8.694-44.114 22.972-60.043-3.278-5.901-5.956-12.19-7.945-18.792-4.487-14.887-25.567-14.887-30.054 0-9.229 30.62-33.187 54.578-63.807 63.807-14.887 4.487-14.887 25.567 0 30.054 30.62 9.229 54.578 33.187 63.807 63.807 4.487 14.887 25.567 14.887 30.054 0 1.99-6.601 4.667-12.89 7.945-18.792-14.278-15.927-22.972-36.965-22.972-60.041z" fill="#efd176"/></g><g><g><path d="m193.551 430.077c-4.143 0-7.5-3.357-7.5-7.5v-12c0-4.143 3.357-7.5 7.5-7.5s7.5 3.357 7.5 7.5v12c0 4.143-3.358 7.5-7.5 7.5z"/></g><g><path d="m318.448 430.077c-4.143 0-7.5-3.357-7.5-7.5v-12c0-4.143 3.357-7.5 7.5-7.5s7.5 3.357 7.5 7.5v12c0 4.143-3.357 7.5-7.5 7.5z"/></g><g><path d="m256 437.221c-8.478 0-16.539-3.671-22.118-10.072-2.721-3.122-2.396-7.86.727-10.582 3.122-2.721 7.859-2.396 10.582.727 2.729 3.132 6.669 4.928 10.81 4.928s8.08-1.796 10.81-4.928c2.722-3.123 7.459-3.448 10.582-.727s3.447 7.46.727 10.582c-5.581 6.401-13.642 10.072-22.12 10.072z"/></g></g><g><path d="m244.211 164.529c0-26.191-21.309-47.5-47.5-47.5s-47.5 21.309-47.5 47.5 21.309 47.5 47.5 47.5 47.5-21.308 47.5-47.5zm-80 0c0-17.921 14.579-32.5 32.5-32.5s32.5 14.579 32.5 32.5-14.579 32.5-32.5 32.5-32.5-14.579-32.5-32.5z"/><path d="m484.5 457h-38.219l-21.723-79.729c-3.093-11.35-13.115-19.429-24.729-20.195 40.664-39.044 63.671-92.645 63.671-149.576 0-25.211-4.477-49.808-13.285-73.168 8.375-6.472 17.97-11.47 28.432-14.624 10.024-3.021 16.502-11.738 16.502-22.208s-6.478-19.187-16.502-22.208c-28.286-8.525-50.265-30.503-58.791-58.79-3.021-10.024-11.738-16.502-22.207-16.502-10.47 0-19.187 6.478-22.208 16.502-1.758 5.833-4.097 11.393-6.937 16.627-33.531-21.687-72.301-33.129-112.504-33.129-49.666 0-97.721 17.822-135.313 50.185-3.139 2.702-3.493 7.438-.79 10.577 1.483 1.723 3.579 2.606 5.687 2.606 1.733 0 3.475-.597 4.891-1.816 34.87-30.02 79.449-46.552 125.525-46.552 37.253 0 73.178 10.587 104.253 30.656-10.983 13.908-26.081 24.355-43.603 29.636-10.024 3.021-16.502 11.738-16.502 22.208s6.478 19.187 16.502 22.208c28.286 8.525 50.265 30.503 58.791 58.79 3.022 10.024 11.739 16.502 22.208 16.502s19.186-6.478 22.207-16.502c3.747-12.432 10.094-23.643 18.432-33.031 6.78 19.908 10.212 40.733 10.212 62.033 0 58.245-25.959 112.734-71.221 149.5h-38.872c3.382-9.414 5.093-19.299 5.093-29.5 0-7.918-1.057-15.72-3.148-23.285 26.854-9.229 45.598-34.881 45.598-63.856 0-37.22-30.28-67.5-67.5-67.5-37.149 0-67.386 30.163-67.5 67.285-45.905 2.627-82.449 40.805-82.449 87.356 0 10.198 1.714 20.082 5.097 29.5h-38.876c-45.263-36.766-71.222-91.255-71.222-149.5 0-46.076 16.532-90.655 46.552-125.525 2.703-3.14 2.349-7.875-.79-10.577-3.14-2.702-7.876-2.35-10.577.79-32.363 37.591-50.185 85.646-50.185 135.312 0 56.931 23.008 110.532 63.672 149.576-11.614.766-21.637 8.845-24.73 20.195l-21.723 79.729h-38.219c-15.164 0-27.5 12.336-27.5 27.5s12.336 27.5 27.5 27.5h457c15.164 0 27.5-12.336 27.5-27.5s-12.336-27.5-27.5-27.5zm-79.005-282.83c-1.631 5.409-6.418 5.83-7.846 5.83-1.429 0-6.216-.421-7.847-5.83-9.981-33.115-35.71-58.844-68.824-68.823-5.409-1.631-5.83-6.418-5.83-7.847s.421-6.216 5.83-7.847c33.114-9.979 58.843-35.708 68.824-68.823 1.631-5.409 6.418-5.83 7.847-5.83 1.428 0 6.215.421 7.846 5.83 9.981 33.115 35.71 58.844 68.824 68.823 5.409 1.631 5.83 6.418 5.83 7.847s-.421 6.216-5.83 7.847c-33.114 9.979-58.842 35.708-68.824 68.823zm-221.995 153.33c0-39.977 32.523-72.5 72.5-72.5.772 0 1.538.029 2.305.057l.325.012c2.195.071 4.304-.805 5.787-2.419 1.482-1.613 2.187-3.795 1.925-5.97-.261-2.172-.393-4.298-.393-6.321 0-28.948 23.552-52.5 52.5-52.5s52.5 23.552 52.5 52.5c0 24.722-17.536 46.332-41.697 51.384-2.147.448-3.991 1.815-5.044 3.74-1.054 1.925-1.211 4.215-.432 6.266 3.135 8.246 4.724 16.91 4.724 25.752 0 10.307-2.108 20.216-6.257 29.5h-132.488c-4.149-9.289-6.255-19.199-6.255-29.501zm301 169.5h-457c-6.893 0-12.5-5.607-12.5-12.5s5.607-12.5 12.5-12.5h275.948c4.143 0 7.5-3.357 7.5-7.5s-3.357-7.5-7.5-7.5h-222.182l20.649-75.786c1.478-5.425 6.437-9.214 12.06-9.214h284.051c5.623 0 10.582 3.789 12.06 9.214l20.647 75.786h-97.285c-4.143 0-7.5 3.357-7.5 7.5s3.357 7.5 7.5 7.5h151.052c6.893 0 12.5 5.607 12.5 12.5s-5.607 12.5-12.5 12.5z"/></g></g></svg>