<svg id="Capa_1" enable-background="new 0 0 511.962 511.962" height="512" viewBox="0 0 511.962 511.962" width="512" xmlns="http://www.w3.org/2000/svg"><g><g><g><path d="m255.983 43.462c-88.366 0-160 71.634-160 160v15.245h320v-15.245c0-88.365-71.634-160-160-160z" fill="#4e5660"/></g></g><g><path d="m285.983 46.283c-9.719-1.844-19.745-2.82-30-2.82-88.365 0-160 71.635-160 160v15.245h60v-15.245c0-78.111 55.976-143.136 130-157.18z" fill="#383c43"/></g><g><g><path d="m350.449 19.028c0-6.385-7.395-9.926-12.37-5.923l-25.331 20.386c-5.566 4.48-13.501 4.48-19.067 0l-28.166-22.669c-5.566-4.48-13.501-4.48-19.068 0l-28.164 22.668c-5.566 4.48-13.501 4.48-19.068 0l-25.329-20.385c-4.974-4.004-12.37-.463-12.37 5.923 0 0-.009 75.755 94.462 75.755s94.471-75.755 94.471-75.755z" fill="#f7ef87"/></g></g><g><path d="m411.225 251.093c0 26.67 18.019 26.67 18.019 53.34 0 26.671-18.019 26.671-18.019 53.341 0 26.672 18.019 26.672 18.019 53.344 0 .953-.023 1.871-.067 2.758-1.422 28.458-25.377 50.586-53.871 50.586h-238.648c-28.494 0-52.449-22.127-53.871-50.586-.044-.887-.067-1.806-.067-2.758 0-26.672 18.019-26.672 18.019-53.344 0-26.671-18.019-26.671-18.019-53.341s18.019-26.67 18.019-53.34z" fill="#383c43"/></g><g><circle cx="401.11" cy="251.093" fill="#ffbf9e" r="36.081"/></g><g><circle cx="110.852" cy="251.093" fill="#f7ab8b" r="36.081"/></g><g><path d="m325.983 405.67-29.934 98.792h59.03c12.566 0 22.098-11.469 19.642-23.793-6.144-30.835-24.004-57.442-48.738-74.999z" fill="#ffbf9e"/></g><g><path d="m185.983 405.67 30.066 98.792h-59.161c-12.566 0-22.098-11.469-19.642-23.793 6.143-30.835 24.003-57.442 48.737-74.999z" fill="#f7ab8b"/></g><g><path d="m296.049 424.462h-80c-22.091 0-40 17.909-40 40 0 22.091 17.909 40 40 40h80c22.091 0 40-17.909 40-40-.001-22.091-17.909-40-40-40z" fill="#e26e7e"/></g><g><path d="m226.185 464.462c0-22.091 17.908-40 40-40h-50.136c-22.091 0-40 17.909-40 40 0 22.091 17.909 40 40 40h50.136c-22.092 0-40-17.908-40-40z" fill="#d3596e"/></g><g><path d="m188.981 403.679c8.7 28.762 35.4 49.708 67.002 49.708 31.598 0 58.295-20.94 66.999-49.697-8.118-5.415-16.927-9.9-26.3-13.255-2.538-.91-5.111-1.729-7.72-2.467-10.485-2.978-21.547-4.58-32.978-4.58-24.757-.001-47.801 7.48-67.003 20.291z" fill="#ffbf9e"/></g><g><path d="m283.404 386.549c-8.813-2.055-17.988-3.162-27.421-3.162-24.756 0-47.8 7.481-67.002 20.292 6.132 20.273 21.213 36.65 40.643 44.559 8.131-26.639 51.359-54.302 51.359-54.302z" fill="#f7ab8b"/></g><g><circle cx="326.671" cy="413.462" fill="#e8899e" r="40"/></g><g><circle cx="185.085" cy="413.462" fill="#e8899e" r="40"/></g><g><path d="m176.048 160.598c-43.661 9.683-60.613 54.714-60.613 54.714-2.905 11.445-4.453 23.43-4.453 35.779 0 80.081 64.919 145 145 145s145-64.919 145-145c0-12.348-1.548-24.334-4.453-35.779-114.239 0-176.819-64.397-220.481-54.714z" fill="#ffd4be"/></g><g><path d="m160.983 251.091c0-34.447 12.016-66.084 32.081-90.958-5.997-.79-11.65-.724-17.015.466-43.661 9.683-60.613 54.714-60.613 54.714-2.905 11.445-4.453 23.43-4.453 35.779 0 80.081 64.919 145 145 145 8.526 0 16.878-.743 25-2.154-68.167-11.849-120-71.292-120-142.847z" fill="#ffbf9e"/></g><g><path d="m218.283 33.49c-5.567 4.48-13.501 4.48-19.068 0l-25.329-20.385c-4.974-4.004-12.37-.463-12.37 5.923 0 0-.009 75.755 94.462 75.755-31.387 0-52.867-49.353-37.695-61.293z" fill="#efd176"/></g><g><g><g><ellipse cx="176.338" cy="305.521" fill="#eda1ab" rx="29.387" ry="23.403"/></g><g><ellipse cx="335.628" cy="305.521" fill="#eda1ab" rx="29.387" ry="23.403"/></g><g><path d="m279.676 287.54c0-14.643-10.608-16.019-23.693-16.019s-23.693 1.376-23.693 16.019 10.608 26.513 23.693 26.513 23.693-11.87 23.693-26.513z" fill="#4e5660"/></g></g><g><path d="m181.251 285.081c-4.142 0-7.5-3.358-7.5-7.5v-12c0-4.142 3.358-7.5 7.5-7.5s7.5 3.358 7.5 7.5v12c0 4.142-3.358 7.5-7.5 7.5z"/></g><g><path d="m255.983 321.553c-17.2 0-31.193-15.258-31.193-34.013 0-23.519 21.859-23.519 31.193-23.519s31.193 0 31.193 23.519c0 18.755-13.993 34.013-31.193 34.013zm0-42.532c-15.539 0-16.193 2.612-16.193 8.519 0 10.483 7.264 19.013 16.193 19.013s16.193-8.529 16.193-19.013c0-5.907-.655-8.519-16.193-8.519z"/></g><g><path d="m330.715 285.081c-4.143 0-7.5-3.358-7.5-7.5v-12c0-4.142 3.357-7.5 7.5-7.5s7.5 3.358 7.5 7.5v12c0 4.142-3.357 7.5-7.5 7.5z"/></g></g><path d="m436.744 304.433c0-9.939-2.197-16.792-5.048-22.331 8.016-7.908 12.996-18.886 12.996-31.008 0-15.856-8.514-29.757-21.208-37.383v-10.248c0-57.767-29.988-111.515-78.72-142.038 12.949-20.435 13.186-41.055 13.186-42.398 0-5.868-3.288-11.088-8.581-13.622-5.292-2.534-11.421-1.821-15.99 1.856l-25.331 20.386c-2.801 2.253-6.862 2.253-9.663 0l-28.168-22.668c-8.248-6.64-20.224-6.639-28.473 0l-28.164 22.668c-2.8 2.253-6.864 2.253-9.663 0l-25.328-20.385c-4.572-3.678-10.698-4.39-15.992-1.856-5.292 2.534-8.58 7.754-8.58 13.621 0 .861.145 21.322 12.94 41.846.104.167.217.336.323.503-48.78 30.516-78.797 84.279-78.797 142.086v10.246c-12.696 7.625-21.211 21.527-21.211 37.385 0 12.124 4.981 23.103 12.998 31.011-2.744 5.339-5.05 12.247-5.05 22.329 0 15.631 5.469 23.727 10.295 30.869 4.315 6.388 7.724 11.433 7.724 22.472 0 11.04-3.409 16.085-7.724 22.473-4.826 7.143-10.295 15.239-10.295 30.871 0 1.057.025 2.11.076 3.133 1.534 30.685 25.851 55.05 56.32 57.493-.646 2.464-1.227 4.949-1.727 7.46-1.604 8.047.471 16.312 5.692 22.676 5.257 6.408 13.023 10.083 21.306 10.083h198.191c8.284 0 16.05-3.675 21.307-10.083 5.221-6.364 7.295-14.628 5.691-22.675-.5-2.511-1.082-4.996-1.727-7.46 30.469-2.445 54.784-26.809 56.318-57.496.051-1.026.076-2.079.076-3.129 0-15.632-5.47-23.728-10.295-30.871-4.315-6.388-7.725-11.433-7.725-22.473s3.409-16.084 7.725-22.472c4.826-7.144 10.296-15.24 10.296-30.871zm-7.053-53.34c0 14.14-10.324 25.908-23.829 28.179 1.714-9.137 2.621-18.554 2.621-28.181 0-9.474-.877-18.913-2.608-28.174 13.499 2.276 23.816 14.041 23.816 28.176zm-326.208-47.631c0-53.14 27.852-102.542 73.03-130.182 14.215 15.113 38.438 29.003 79.466 29.003 7.143 0 14.046-.423 20.518-1.257 4.108-.53 7.009-4.289 6.479-8.397-.529-4.107-4.286-7.01-8.397-6.479-5.838.752-12.097 1.134-18.6 1.134-85.529 0-86.943-65.491-86.973-68.3.026-.032.109-.072.179-.035l25.329 20.386c8.25 6.64 20.225 6.639 28.473 0l28.164-22.668c2.799-2.253 6.863-2.253 9.663 0l28.166 22.668c8.248 6.638 20.222 6.639 28.472 0l25.358-20.423c.041 0 .125.041.14.117 0 .419-.474 42.112-41.394 59.968-3.797 1.657-5.531 6.077-3.875 9.874 1.657 3.796 6.081 5.532 9.873 3.875 11.929-5.205 21.029-12.025 27.98-19.413 45.129 27.649 72.95 77.033 72.95 130.133v4.686c-2.398-.411-4.859-.636-7.373-.636-1.629 0-3.271.091-4.881.271-.051.006-.099.018-.149.024-63.1-.096-109.737-20.179-147.227-36.327-29.722-12.802-53.198-22.912-74.429-18.205-38.432 8.524-57.599 41.37-63.755 54.241-2.449.01-4.848.231-7.187.631v-4.689zm-21.212 47.631c0-14.137 10.319-25.902 23.819-28.177-1.73 9.26-2.607 18.7-2.607 28.174 0 9.468.898 18.912 2.638 28.185-13.515-2.262-23.85-14.034-23.85-28.182zm54.197 205.864c-24.703-.098-44.976-19.148-46.19-43.452-.038-.773-.058-1.576-.058-2.387 0-11.04 3.409-16.085 7.724-22.473 4.826-7.143 10.295-15.239 10.295-30.871 0-15.631-5.469-23.727-10.295-30.87-4.315-6.387-7.724-11.433-7.724-22.472 0-5.849.963-10.046 2.555-13.701 5.221 2.391 10.991 3.777 17.066 3.916 2.782 9.369 6.442 18.465 10.97 27.11 1.921 3.669 6.454 5.085 10.124 3.164 3.669-1.922 5.086-6.455 3.164-10.124-10.216-19.503-15.616-41.533-15.616-63.708 0-11.314 1.381-22.571 4.104-33.465 1.642-3.999 17.958-41.471 55.085-49.705 16.499-3.66 38.012 5.606 65.247 17.337 37.671 16.226 84.272 36.3 147.637 37.499 1.943 9.283 2.927 18.788 2.927 28.335 0 75.818-61.683 137.5-137.5 137.5-41.514 0-80.383-18.477-106.641-50.694-2.617-3.21-7.342-3.692-10.552-1.075-3.211 2.617-3.692 7.341-1.075 10.552 7.42 9.104 15.753 17.213 24.808 24.252-15.04 8.071-24.938 23.882-24.938 41.837 0 9.48 2.803 18.313 7.607 25.735-3.375 5.714-6.291 11.643-8.724 17.76zm197.866-75.082c14.501 3.488 24.837 16.473 24.837 31.587 0 17.92-14.579 32.5-32.5 32.5s-32.5-14.58-32.5-32.5c0-5.587 1.432-11.025 4.135-15.852 12.775-3.696 24.864-9.021 36.028-15.735zm-103.259 19.683c8.16 1.34 16.484 2.033 24.908 2.033 8.407 0 16.653-.695 24.693-2.01-.993 3.855-1.505 7.843-1.505 11.881 0 9.036 2.538 17.491 6.937 24.69-9.187 5.073-19.478 7.735-30.125 7.735-10.704 0-21.052-2.694-30.278-7.823 4.365-7.18 6.881-15.603 6.881-24.602-.001-4.047-.514-8.042-1.511-11.904zm-13.49 11.904c0 17.92-14.58 32.5-32.5 32.5s-32.5-14.58-32.5-32.5c0-15.186 10.337-28.13 24.88-31.597 11.249 6.766 23.327 12.049 35.963 15.706 2.718 4.837 4.157 10.289 4.157 15.891zm-60.698 83.5c-3.774 0-7.313-1.675-9.709-4.597-2.36-2.877-3.3-6.606-2.578-10.23 2.187-10.977 5.96-21.467 11.236-31.288 3.931 3.083 8.352 5.566 13.134 7.296-.278 2.088-.422 4.199-.422 6.319 0 12.564 4.912 23.996 12.906 32.5zm139.161 0h-80c-17.92 0-32.5-14.58-32.5-32.5 0-1.186.083-2.363.209-3.534.442.012.883.034 1.328.034 11.706 0 22.428-4.265 30.717-11.311 12.094 7.357 25.883 11.236 40.181 11.236 14.252 0 27.995-3.85 40.06-11.159 8.276 7.001 18.965 11.235 30.629 11.235.559 0 1.113-.023 1.667-.042.127 1.173.21 2.354.21 3.542-.001 17.92-14.58 32.499-32.501 32.499zm68.741-4.597c-2.396 2.922-5.936 4.597-9.71 4.597h-24.437c7.994-8.504 12.906-19.936 12.906-32.5 0-2.16-.148-4.31-.437-6.437 4.718-1.746 9.077-4.228 12.957-7.295 5.308 9.853 9.101 20.383 11.297 31.405.723 3.625-.216 7.354-2.576 10.23zm49.23-165.46c-4.825 7.143-10.295 15.238-10.295 30.87s5.47 23.728 10.295 30.871c4.315 6.388 7.725 11.433 7.725 22.473 0 .804-.02 1.607-.058 2.384-1.215 24.307-21.486 43.356-46.188 43.455-2.458-6.178-5.406-12.164-8.825-17.93 4.738-7.387 7.498-16.157 7.498-25.565 0-17.874-9.899-33.714-24.913-41.811 24.883-19.296 43.652-46.109 52.876-77.003 6.074-.141 11.843-1.529 17.063-3.921 1.48 3.412 2.546 7.665 2.546 13.706.001 11.038-3.408 16.083-7.724 22.471z"/></g></svg>