<svg id="Capa_1" enable-background="new 0 0 512 512" height="512" viewBox="0 0 512 512" width="512" xmlns="http://www.w3.org/2000/svg"><g><g><path d="m316 154.757v-87.257h-120v87.257c-69.909 24.712-120 91.372-120 169.743 0 99.411 80.589 180 180 180s180-80.589 180-180c0-78.371-50.091-145.031-120-169.743z" fill="#7acefa"/></g><g><path d="m196 324.5c0-78.371 50.091-145.031 120-169.743v-87.257h-120v87.257c-69.909 24.712-120 91.372-120 169.743 0 99.411 80.589 180 180 180 21.04 0 41.232-3.622 60-10.257-69.909-24.712-120-91.372-120-169.743z" fill="#5dc1ed"/></g><g><path d="m336 47.5h-160c-11.046 0-20-8.954-20-20 0-11.046 8.954-20 20-20h160c11.046 0 20 8.954 20 20 0 11.046-8.954 20-20 20z" fill="#a3defe"/></g><g><path d="m256 27.5c0-11.046 8.954-20 20-20h-100c-11.046 0-20 8.954-20 20 0 11.046 8.954 20 20 20h100c-11.046 0-20-8.954-20-20z" fill="#7acefa"/></g><g><path d="m336 87.5h-160c-11.046 0-20-8.954-20-20 0-11.046 8.954-20 20-20h160c11.046 0 20 8.954 20 20 0 11.046-8.954 20-20 20z" fill="#7acefa"/></g><g><path d="m124.014 277.802c-5.445 15.339-8.289 31.898-7.993 49.147 1.301 75.639 63.275 136.985 138.922 137.546 77.679.577 141.057-62.447 141.057-139.995 0-16.404-2.839-32.156-8.048-46.795-2.825-7.939-10.391-13.205-18.818-13.205h-226.265c-8.465 0-16.023 5.325-18.855 13.302z" fill="#f7ef87"/></g><g><g><path d="m193.551 227.191c-4.142 0-7.5-3.357-7.5-7.5v-12c0-4.143 3.358-7.5 7.5-7.5s7.5 3.357 7.5 7.5v12c0 4.143-3.358 7.5-7.5 7.5z"/></g><g><path d="m318.449 227.191c-4.142 0-7.5-3.357-7.5-7.5v-12c0-4.143 3.358-7.5 7.5-7.5s7.5 3.357 7.5 7.5v12c0 4.143-3.358 7.5-7.5 7.5z"/></g><g><path d="m256 234.335c-8.477 0-16.539-3.671-22.118-10.072-2.722-3.122-2.397-7.859.726-10.581 3.123-2.723 7.859-2.398 10.582.726 2.73 3.132 6.67 4.928 10.811 4.928s8.081-1.796 10.811-4.928c2.722-3.123 7.459-3.448 10.582-.726s3.447 7.459.726 10.581c-5.581 6.401-13.643 10.072-22.12 10.072z"/></g></g><g><path d="m196 324.5c0-21.04 3.622-41.232 10.257-60h-63.388c-8.465 0-16.023 5.325-18.855 13.302-5.445 15.339-8.289 31.898-7.993 49.147 1.301 75.639 63.275 136.985 138.922 137.546 2.593.019 5.169-.038 7.728-.158-40.671-33.001-66.671-83.379-66.671-139.837z" fill="#efd176"/></g><g><circle cx="221.851" cy="338.572" fill="#efd176" r="30"/></g><g><circle cx="324.5" cy="368.572" fill="#efd176" r="20"/></g><g><path d="m323.5 149.533v-54.533h12.5c15.164 0 27.5-12.337 27.5-27.5 0-7.875-3.332-14.982-8.655-20 5.323-5.018 8.655-12.125 8.655-20 0-15.163-12.336-27.5-27.5-27.5h-160c-15.164 0-27.5 12.337-27.5 27.5 0 7.875 3.332 14.982 8.655 20-5.323 5.018-8.655 12.125-8.655 20 0 15.163 12.336 27.5 27.5 27.5h12.5v54.533c-71.998 27.777-120 97.42-120 174.967 0 103.388 84.112 187.5 187.5 187.5s187.5-84.112 187.5-187.5c0-77.547-48.002-147.189-120-174.967zm-160-82.033c0-6.893 5.607-12.5 12.5-12.5h35.65c4.142 0 7.5-3.357 7.5-7.5s-3.358-7.5-7.5-7.5h-35.65c-6.893 0-12.5-5.607-12.5-12.5s5.607-12.5 12.5-12.5h160c6.893 0 12.5 5.607 12.5 12.5s-5.607 12.5-12.5 12.5h-94.35c-4.142 0-7.5 3.357-7.5 7.5s3.358 7.5 7.5 7.5h94.35c6.893 0 12.5 5.607 12.5 12.5s-5.607 12.5-12.5 12.5h-160c-6.893 0-12.5-5.607-12.5-12.5zm92.5 429.5c-95.117 0-172.5-77.383-172.5-172.5 0-72.984 46.215-138.357 115-162.672 2.997-1.06 5-3.893 5-7.071v-59.757h105v59.757c0 3.179 2.003 6.012 5 7.071 68.785 24.314 115 89.688 115 162.672 0 95.117-77.383 172.5-172.5 172.5z"/><path d="m395.018 275.19c-3.872-10.88-14.273-18.19-25.884-18.19h-226.265c-11.621 0-22.039 7.352-25.923 18.294-5.895 16.605-8.729 34.029-8.424 51.785.664 38.55 16.22 74.819 43.804 102.128 27.582 27.307 64.006 42.503 102.562 42.789.36.003.72.004 1.081.004 33.565 0 66.382-11.581 92.519-32.673 3.224-2.602 3.728-7.323 1.126-10.547-2.602-3.225-7.324-3.728-10.546-1.127-23.728 19.148-53.602 29.581-84.068 29.343-71.272-.529-130.253-58.925-131.479-130.175-.275-15.954 2.27-31.603 7.562-46.51 1.765-4.972 6.502-8.312 11.787-8.312h226.265c5.28 0 10.002 3.303 11.752 8.22 5.052 14.198 7.614 29.097 7.614 44.28 0 30.115-10.422 59.616-29.346 83.066-2.602 3.224-2.097 7.945 1.126 10.547 3.223 2.601 7.945 2.096 10.546-1.127 21.069-26.109 32.673-58.955 32.673-92.486 0-16.9-2.854-33.49-8.482-49.309z"/></g></g></svg>