<svg id="Capa_1" enable-background="new 0 0 512 512" height="512" viewBox="0 0 512 512" width="512" xmlns="http://www.w3.org/2000/svg"><g><g><path d="m123.62 113.567c18.41-7.626 39.516 1.117 47.142 19.527s-1.117 39.516-19.527 47.142-33.466 13.862-62.483 25.881c-29.016 12.019-9.137-74.323 34.868-92.55z" fill="#f7ab8b"/></g><g><path d="m388.361 113.567c-18.41-7.626-39.516 1.117-47.142 19.527s1.117 39.516 19.527 47.142 33.466 13.862 62.483 25.881 9.137-74.323-34.868-92.55z" fill="#ffbf9e"/></g><g><path d="m185.991 405.708-10 61.119 10 37.673h140l10-37.673-10-61.119c-19.764-14.03-43.917-22.283-70-22.283s-50.236 8.253-70 22.283z" fill="#e1b89a"/></g><g><path d="m281.496 386.139c-8.225-1.765-16.753-2.715-25.505-2.715-26.083 0-50.236 8.253-70 22.283l-10 61.119 10 37.673c0-58.093 40.918-106.622 95.505-118.36z" fill="#d2996f"/></g><g><path d="m225.991 423.625v33.202c0 5.523 4.477 10 10 10h40c5.523 0 10-4.477 10-10v-33.202z" fill="#d2996f"/></g><g><path d="m285.991 387.214c-9.596-2.462-19.644-3.789-30-3.789-10.353 0-20.402 1.317-30 3.777v36.423c7.44 8.113 18.125 13.202 30 13.202s22.56-5.089 30-13.202z" fill="#f7ab8b"/></g><g><path d="m325.991 405.708v98.792h29.096c12.566 0 22.098-11.469 19.642-23.793-6.145-30.835-24.004-57.442-48.738-74.999z" fill="#d2996f"/></g><g><path d="m185.991 405.708v98.792h-29.096c-12.566 0-22.098-11.469-19.642-23.793 6.144-30.835 24.003-57.442 48.738-74.999z" fill="#c18053"/></g><g><path d="m255.991 396.128c-66.545 0-106.861-13.495-126.875-42.47-18.125-26.24-18.125-63.297-18.125-102.53 0-79.953 65.047-145 145-145s145 65.047 145 145c0 39.233 0 76.291-18.125 102.53-20.015 28.975-60.33 42.47-126.875 42.47z" fill="#ffd4be"/></g><g><path d="m163.439 251.128c0-71.126 51.214-130.286 118.776-142.629-8.506-1.554-17.269-2.371-26.224-2.371-80.081 0-145 64.919-145 145s0 145 145 145c9.333 0 18.054-.274 26.224-.798-118.765-7.626-118.776-69.275-118.776-144.202z" fill="#ffbf9e"/></g><g><g><path d="m193.542 267.305c-4.142 0-7.5-3.358-7.5-7.5v-12c0-4.142 3.358-7.5 7.5-7.5s7.5 3.358 7.5 7.5v12c0 4.142-3.358 7.5-7.5 7.5z"/></g><g><path d="m318.439 267.305c-4.142 0-7.5-3.358-7.5-7.5v-12c0-4.142 3.358-7.5 7.5-7.5s7.5 3.358 7.5 7.5v12c0 4.142-3.358 7.5-7.5 7.5z"/></g></g><g><path d="m315.991 323.311c0 27.614-26.863 37-60 37s-60-9.386-60-37 26.863-63 60-63 60 35.386 60 63z" fill="#ffbf9e"/></g><g><g><path d="m235.991 323.811c-4.142 0-7.5-3.358-7.5-7.5v-12c0-4.142 3.358-7.5 7.5-7.5s7.5 3.358 7.5 7.5v12c0 4.142-3.358 7.5-7.5 7.5z"/></g><g><path d="m275.991 323.811c-4.142 0-7.5-3.358-7.5-7.5v-12c0-4.142 3.358-7.5 7.5-7.5s7.5 3.358 7.5 7.5v12c0 4.142-3.358 7.5-7.5 7.5z"/></g></g><g><path d="m255.991 7.5c-16.103 0-81.074 46.887-81.074 107.84h81.074 81.074c-.001-60.953-64.972-107.84-81.074-107.84z" fill="#d2996f"/></g><g><path d="m223.826 25.088c-23.112 19.026-48.909 51.844-48.909 90.252h81.074v-20c-31.383 0-47.061-46.042-32.165-70.252z" fill="#c18053"/></g><g><path d="m345.991 135.34h-180c-11.046 0-20-8.954-20-20 0-11.046 8.954-20 20-20h180c11.046 0 20 8.954 20 20 0 11.046-8.955 20-20 20z" fill="#e1b89a"/></g><g><path d="m201.193 115.34c0-11.046 8.954-20 20-20h-55.202c-11.046 0-20 8.954-20 20 0 11.046 8.954 20 20 20h55.202c-11.046 0-20-8.954-20-20z" fill="#d2996f"/></g><g><path d="m428.79 142.634c-2.087-3.579-6.679-4.786-10.257-2.702-3.579 2.086-4.788 6.679-2.702 10.257 13.74 23.567 15.276 45.834 12.311 49.569-.335-.021-1.018-.145-2.044-.57l-32.161-13.322c-8.24-17.424-19.819-33.247-34.338-46.644 7.461-4.269 12.742-11.927 13.722-20.865 4.134-.183 8.265.522 12.169 2.139 4.277 1.771 8.511 4.411 12.586 7.847 1.407 1.187 3.124 1.766 4.831 1.766 2.134 0 4.254-.906 5.738-2.666 2.67-3.167 2.268-7.898-.899-10.568-5.255-4.431-10.813-7.875-16.515-10.237-6.541-2.71-13.502-3.77-20.434-3.16-4.437-9.241-13.888-15.638-24.806-15.638h-5.451c-8.415-28.85-28.074-50.628-39.419-61.32-16.832-15.862-34.968-26.52-45.13-26.52-17.947 0-69.856 37.639-84.551 87.84h-5.449c-10.916 0-20.367 6.394-24.805 15.633-6.93-.612-13.888.452-20.436 3.164-16.984 7.035-32.716 24.085-43.161 46.778-9.34 20.293-12.443 40.486-7.904 51.443 2.653 6.405 7.812 9.873 14.052 9.873 2.487 0 5.146-.551 7.885-1.686l18.844-7.806c-4.574 14.615-6.977 30.043-6.977 45.888 0 41.373 0 80.451 20.891 108.806 1.47 1.996 3.742 3.052 6.044 3.052 1.545 0 3.104-.476 4.443-1.462 3.334-2.457 4.046-7.152 1.589-10.487-17.967-24.387-17.967-59.385-17.967-99.909 0-42.665 19.217-82.015 52.778-108.288h169.446c33.555 26.275 52.777 65.647 52.777 108.288 0 79.825 0 137.5-137.5 137.5-44.85 0-77.13-6.225-98.688-19.029-3.563-2.115-8.164-.942-10.278 2.618-2.115 3.561-.943 8.163 2.618 10.278 10.123 6.013 22.194 10.714 36.347 14.143-28.835 18.728-49.282 48.427-56.092 82.602-1.604 8.047.471 16.312 5.692 22.676 5.257 6.407 13.023 10.083 21.306 10.083h198.191c8.284 0 16.049-3.675 21.306-10.083 5.221-6.364 7.295-14.628 5.692-22.676-6.813-34.191-27.256-63.879-56.094-82.604 29.476-7.153 50.046-19.896 63.046-38.716 19.454-28.164 19.454-66.357 19.454-106.793 0-15.841-2.404-31.271-6.982-45.89l18.85 7.808c2.979 1.234 5.604 1.715 7.888 1.715 5.891 0 9.506-3.207 11.048-4.973 10.753-12.311 3.104-43.812-10.504-67.152zm-207.847-105.003c16.699-15.797 31.29-22.631 35.048-22.631 3.728 0 18.224 6.775 34.842 22.437 9.641 9.086 25.947 27.006 33.978 50.403h-137.638c7.989-23.269 24.161-41.12 33.77-50.209zm-54.952 65.209h180c6.893 0 12.5 5.607 12.5 12.5s-5.607 12.5-12.5 12.5h-180c-6.893 0-12.5-5.607-12.5-12.5s5.607-12.5 12.5-12.5zm-47.958 83.031-32.15 13.317c-1.009.418-1.686.544-2.027.568-.754-1.135-2.342-6.16-.127-17.488 4.546-23.242 21.078-52.79 42.762-61.772 3.907-1.619 8.036-2.322 12.169-2.139.98 8.938 6.261 16.596 13.722 20.864-14.525 13.399-26.109 29.222-34.349 46.65zm115.458 252.844c6.883 3.632 14.609 5.612 22.5 5.612 8.002 0 15.662-1.931 22.5-5.553v18.053c0 1.378-1.122 2.5-2.5 2.5h-40c-1.378 0-2.5-1.122-2.5-2.5zm45-35.66v17.469c-6.143 5.688-14.047 8.802-22.5 8.802-8.459 0-16.358-3.114-22.5-8.803v-17.464c7.16.377 14.652.569 22.5.569 7.849 0 15.334-.196 22.5-.573zm-131.306 89.348c-2.36-2.877-3.3-6.606-2.578-10.23 4.693-23.551 16.723-44.696 33.883-60.713v75.54h-21.596c-3.773 0-7.312-1.675-9.709-4.597zm220.188-10.23c.722 3.624-.217 7.353-2.578 10.23-2.396 2.921-5.936 4.597-9.709 4.597h-21.596v-75.542c17.16 16.013 29.188 37.154 33.883 60.715zm-48.882-72.519v87.346h-125v-87.344c5.018-3.309 10.326-6.242 15.893-8.75 2.966.387 5.997.736 9.107 1.04v54.88c0 9.649 7.851 17.5 17.5 17.5h40c9.649 0 17.5-7.851 17.5-17.5v-54.883c3.108-.303 6.154-.643 9.119-1.029 5.562 2.507 10.867 5.435 15.881 8.74z"/><path d="m323.491 323.311c0-31.932-30.109-70.5-67.5-70.5s-67.5 38.568-67.5 70.5c0 16.619 8.77 44.5 67.5 44.5s67.5-27.881 67.5-44.5zm-120 0c0-24.464 24.719-55.5 52.5-55.5s52.5 31.036 52.5 55.5c0 19.575-17.664 29.5-52.5 29.5s-52.5-9.925-52.5-29.5z"/></g></g></svg>