<svg id="Capa_1" enable-background="new 0 0 512 512" height="512" viewBox="0 0 512 512" width="512" xmlns="http://www.w3.org/2000/svg"><g><g><path d="m156.9 504.5c-12.566 0-22.098-11.469-19.643-23.793 11.054-55.475 60.014-97.282 118.738-97.282s107.684 41.808 118.738 97.282c2.456 12.324-7.076 23.793-19.643 23.793z" fill="#908cd6"/></g><g><path d="m280.988 386.03c-8.065-1.705-16.426-2.605-24.993-2.605-58.6 0-107.629 41.885-118.724 97.271-2.469 12.326 7.069 23.804 19.64 23.804h28.008c.001-58.166 41.276-106.909 96.069-118.47z" fill="#6c6cc1"/></g><g><path d="m105.153 145.2c35.474 14.694 110.5-7.471 84.554-60.216l-127.07-52.634c-35.382-14.656-11.142 90.624 42.516 112.85z" fill="#9aa3b1"/></g><g><path d="m406.838 145.2c-35.474 14.694-110.5-7.471-84.554-60.216l127.069-52.634c35.382-14.656 11.142 90.624-42.515 112.85z" fill="#c6c6c6"/></g><g><circle cx="346.684" cy="396.128" fill="#b49cdc" r="40"/></g><g><circle cx="165.098" cy="396.128" fill="#b49cdc" r="40"/></g><g><path d="m256.026 365.702c-62.371 0-76.813 59.672-66.181 74.194s32.246-5.722 32.246-5.722 10.628 45.996 33.935 45.996 33.935-45.996 33.935-45.996 21.613 20.244 32.246 5.722c10.632-14.522-3.81-74.194-66.181-74.194z" fill="#c6c6c6"/></g><g><path d="m105.995 187.204v158.925c0 6.149 2.78 11.644 7.146 15.313h285.708c4.366-3.669 7.146-9.164 7.146-15.313v-160.36z" fill="#c6c6c6"/></g><g><path d="m214.955 251.128c0-23.181 5.449-45.085 15.121-64.518l-124.081.594v158.925c0 6.149 2.78 11.644 7.146 15.313h152.716c-31.148-26.596-50.902-66.145-50.902-110.314z" fill="#9aa3b1"/></g><g><path d="m352.448 366.128h33.547c4.927 0 9.431-1.79 12.917-4.744l-71.087-35.614c-7.364-3.69-11.848-11.271-11.829-19.508 0-.045 0-.089 0-.134 0-33.137-26.863-60-60-60s-60 26.863-60 60v.148c.02 8.23-4.458 15.807-11.813 19.5l-71.041 35.665c3.477 2.922 7.957 4.687 12.854 4.687h33.547c3.999 0 7.929 1.167 11.218 3.442 24.206 16.746 53.574 26.558 85.236 26.558s61.03-9.812 85.236-26.558c3.287-2.275 7.216-3.442 11.215-3.442z" fill="#fff"/></g><g><path d="m215.36 261.995c-11.902 10.964-19.364 26.675-19.364 44.134v.148c.02 8.23-4.458 15.807-11.813 19.5l-71.041 35.665c3.477 2.922 7.957 4.687 12.854 4.687h33.547c3.999 0 7.929 1.167 11.218 3.442 24.206 16.746 53.574 26.558 85.236 26.558 18.449 0 36.117-3.337 52.441-9.431-51.421-19.552-88.841-67.506-93.078-124.703z" fill="#fcf2d0"/></g><g><path d="m280.991 248.806c0 13.807-11.193 25-25 25s-25-11.193-25-25 50-13.807 50 0z" fill="#4e5660"/></g><g><path d="m255.991 248.806v-10.355c-12.5 0-25 3.452-25 10.355 0 13.807 11.193 25 25 25 4.555 0 8.822-1.224 12.5-3.353-7.471-4.323-12.5-12.395-12.5-21.647z" fill="#383c43"/></g><g><path d="m284.906 292.271c-4.143 0-7.5 3.358-7.5 7.5 0 3.835-3.12 6.956-6.956 6.956-3.835 0-6.955-3.12-6.955-6.956 0-4.142-3.357-7.5-7.5-7.5s-7.5 3.358-7.5 7.5c0 3.835-3.12 6.956-6.955 6.956-3.836 0-6.956-3.12-6.956-6.956 0-4.142-3.357-7.5-7.5-7.5s-7.5 3.358-7.5 7.5c0 12.106 9.85 21.956 21.956 21.956 5.533 0 10.59-2.061 14.455-5.451 3.865 3.39 8.922 5.451 14.455 5.451 12.106 0 21.956-9.849 21.956-21.956 0-4.143-3.357-7.5-7.5-7.5z"/><path d="m202.311 230.039-24.065-6.448c-4.002-1.069-8.114 1.302-9.186 5.304-1.072 4.001 1.302 8.113 5.303 9.186l7.079 1.897c-.252.75-.394 1.551-.394 2.386v10.366c0 4.142 3.357 7.5 7.5 7.5s7.5-3.358 7.5-7.5v-8.839l2.381.638c.65.174 1.304.257 1.946.257 3.312 0 6.342-2.21 7.239-5.561 1.072-4.001-1.302-8.114-5.303-9.186z"/><path d="m342.931 228.895c-1.071-4.001-5.185-6.373-9.186-5.304l-24.065 6.448c-4.001 1.072-6.375 5.185-5.303 9.186.897 3.351 3.928 5.561 7.239 5.561.643 0 1.296-.083 1.946-.257l2.381-.638v8.839c0 4.142 3.357 7.5 7.5 7.5s7.5-3.358 7.5-7.5v-10.366c0-.835-.142-1.636-.394-2.386l7.079-1.897c4.001-1.073 6.375-5.185 5.303-9.186z"/></g><g><path d="m396.229 97.819c1.693-5.172 2.62-10.691 2.62-16.429 0-29.158-23.637-52.796-52.796-52.796-10.841 0-20.915 3.272-29.299 8.876-15.499-18.324-38.646-29.97-64.525-29.97-24.476 0-46.51 10.419-61.94 27.049-7.288-3.797-15.566-5.955-24.352-5.955-29.159 0-52.796 23.638-52.796 52.796 0 5.738.928 11.257 2.62 16.429-17.132 4.521-29.766 20.114-29.766 38.667 0 22.091 17.909 40 40 40h260c22.091 0 40-17.909 40-40 0-18.553-12.634-34.145-29.766-38.667z" fill="#908cd6"/></g><g><g><path d="m167.736 91.993c0-22.188 8.564-42.367 22.553-57.444-7.288-3.797-15.566-5.955-24.352-5.955-29.159 0-52.796 23.638-52.796 52.796 0 5.738.928 11.257 2.62 16.429-17.132 4.521-29.766 20.114-29.766 38.667 0 22.091 17.909 40 40 40h126.234c-46.664 0-84.493-37.829-84.493-84.493z" fill="#6c6cc1"/></g></g><g><path d="m415.995 206.486h-320c-11.046 0-20-8.954-20-20 0-11.046 8.954-20 20-20h320c11.046 0 20 8.954 20 20 0 11.046-8.954 20-20 20z" fill="#b49cdc"/></g><g><path d="m199.974 186.486c0-11.046 8.954-20 20-20h-123.979c-11.046 0-20 8.954-20 20 0 11.046 8.954 20 20 20h123.979c-11.046 0-20-8.954-20-20z" fill="#908cd6"/></g><path d="m426.587 161.11c4.461-7.361 6.908-15.87 6.908-24.625 0-.084-.004-.167-.005-.251 32.026-30.34 47.95-85.818 35.933-104.959-4.792-7.631-13.364-9.821-22.94-5.855l-51.208 21.211c-10.931-15.433-28.913-25.537-49.222-25.537-9.776 0-19.288 2.339-27.853 6.811-17.291-17.808-40.994-27.905-65.97-27.905-23.661 0-46.536 9.246-63.584 25.537-7.185-2.918-14.935-4.443-22.708-4.443-20.31 0-38.292 10.103-49.223 25.537l-51.208-21.211c-9.566-3.961-18.138-1.779-22.931 5.841-12.015 19.1 3.902 74.631 35.924 104.972 0 .084-.005.168-.005.253 0 8.757 2.447 17.265 6.908 24.625-9.92 4.156-16.908 13.964-16.908 25.376 0 15.164 12.337 27.5 27.5 27.5h2.5v132.142c0 8.135 3.579 15.81 9.821 21.055 4.271 3.589 9.537 5.777 15.05 6.31-3.734 6.891-5.769 14.667-5.769 22.635 0 19.087 11.322 35.569 27.597 43.113-7.326 12.393-12.465 25.809-15.294 40-1.604 8.047.471 16.312 5.691 22.675 5.259 6.408 13.024 10.083 21.308 10.083h198.191c8.284 0 16.05-3.675 21.307-10.083 5.221-6.364 7.295-14.628 5.691-22.675-2.834-14.219-7.989-27.661-15.338-40.074 16.188-7.578 27.433-24.016 27.433-43.039 0-8.03-1.985-15.753-5.712-22.618 5.443-.497 10.657-2.615 14.92-6.102.096-.073.189-.148.281-.226 6.242-5.244 9.822-12.918 9.822-21.055v-132.142h2.5c15.163 0 27.5-12.336 27.5-27.5.001-11.411-6.987-21.219-16.907-25.376zm25.637-121.831c3.58-1.483 4.132-.608 4.496-.027 2.956 4.708 2.607 19.173-3.776 37.71-5.382 15.625-13.543 30.119-23.085 41.313-4.629-11.13-13.392-20.259-24.645-25.231.754-3.83 1.135-7.729 1.135-11.654 0-7.56-1.412-14.793-3.964-21.468zm-393.203 37.605c-6.361-18.507-6.7-32.942-3.748-37.636.365-.579.919-1.452 4.494.031l49.838 20.644c-2.552 6.674-3.964 13.907-3.964 21.468 0 3.925.381 7.823 1.136 11.654-11.252 4.972-20.016 14.101-24.644 25.231-9.559-11.216-17.734-25.742-23.112-41.392zm73.577 319.244c0-8.389 3.282-16.473 9.059-22.5h17.885c2.552 0 4.956.729 6.95 2.11 7.948 5.498 16.318 10.2 25.005 14.108-7.902 11.536-11.905 24.555-12.266 35.536-4.385 2.12-9.207 3.246-14.133 3.246-17.921 0-32.5-14.579-32.5-32.5zm173.505-.66c12.708 16.228 13.426 35.39 10.053 39.997-1.258 1.718-2.398 2.047-3.444 2.147-5.468.521-14.255-5.784-17.622-8.912-1.956-1.831-4.738-2.479-7.307-1.7-2.564.779-4.519 2.869-5.126 5.479-3.052 13.113-13.576 40.19-26.63 40.19s-23.578-27.077-26.628-40.185c-.603-2.608-2.556-4.692-5.114-5.477-2.56-.785-5.349-.141-7.31 1.681-3.377 3.138-12.129 9.446-17.633 8.922-1.046-.1-2.187-.429-3.444-2.147-3.374-4.608-2.656-23.757 10.038-39.981 15.996 5.359 32.847 8.144 50.059 8.144 17.229.002 34.097-2.788 50.108-8.158zm61.275 86.705c.723 3.624-.217 7.353-2.577 10.23-2.396 2.921-5.936 4.597-9.71 4.597h-198.192c-3.774 0-7.313-1.675-9.71-4.597-2.36-2.877-3.3-6.606-2.577-10.23 2.763-13.865 8.025-26.895 15.643-38.79 1.592.162 3.208.245 4.842.245 5.703 0 11.315-1.036 16.595-3.004.596 1.357 1.295 2.6 2.101 3.702 3.547 4.845 8.445 7.688 14.165 8.222 7.169.671 14.43-2.503 19.941-5.885 5.188 15.375 17.003 41.007 38.126 41.007s32.938-25.632 38.126-41.007c5.512 3.382 12.769 6.554 19.941 5.885 5.72-.534 10.618-3.377 14.165-8.222.791-1.08 1.476-2.297 2.064-3.624 5.216 1.911 10.754 2.925 16.361 2.925 1.701 0 3.38-.094 5.036-.27 7.628 11.904 12.895 24.942 15.66 38.816zm-20.694-53.545c-4.812 0-9.549-1.077-13.859-3.109-.333-11.017-4.34-24.106-12.283-35.695 8.67-3.904 17.025-8.598 24.958-14.086 1.994-1.38 4.397-2.109 6.949-2.109h17.674c5.844 6.081 9.062 14.041 9.062 22.5-.001 17.92-14.58 32.499-32.501 32.499zm51.811-82.5c0 2.091-.537 4.108-1.505 5.905l-65.807-32.968c-4.755-2.382-7.701-7.281-7.688-12.803v-.134c0-24.668-13.665-47.474-35.138-59.238-1.375-9.885-13.51-15.939-32.366-15.939-18.859 0-30.994 6.056-32.366 15.943-21.473 11.765-35.13 34.557-35.13 59.235v.167c.014 5.498-2.929 10.394-7.679 12.779l-7.93 3.981c-3.701 1.858-5.196 6.366-3.338 10.068 1.316 2.622 3.962 4.136 6.709 4.136 1.131 0 2.279-.257 3.359-.799l7.93-3.981c9.865-4.952 15.977-15 15.948-26.203v-.148c0-17.519 8.852-33.815 23.096-43.487 5.207 11.019 16.425 18.664 29.4 18.664 12.976 0 24.196-7.647 29.402-18.669 14.245 9.673 23.102 25.979 23.102 43.491v.117c-.025 11.232 6.094 21.283 15.97 26.231l52.202 26.152h-24.219c-5.616 0-10.971 1.651-15.483 4.774-23.855 16.503-51.854 25.226-80.97 25.226s-57.114-8.723-80.969-25.226c-4.514-3.123-9.869-4.774-15.484-4.774h-24.081l17.961-9.017c3.701-1.858 5.196-6.366 3.338-10.068s-6.366-5.197-10.068-3.337l-31.654 15.891c-.991-1.813-1.541-3.853-1.541-5.969v-132.142h285v132.142zm-125.018-96.611c-.374 9.322-8.074 16.789-17.485 16.789s-17.111-7.467-17.485-16.789c1.668-1.389 7.804-3.566 17.485-3.566s15.817 2.177 17.485 3.566zm142.518-50.531h-320c-6.893 0-12.5-5.607-12.5-12.5s5.607-12.5 12.5-12.5h212.448c4.143 0 7.5-3.358 7.5-7.5s-3.357-7.5-7.5-7.5h-205.884c-5.781-6.029-9.064-14.1-9.064-22.5 0-14.739 9.943-27.658 24.18-31.415 1.996-.527 3.688-1.854 4.674-3.667.987-1.814 1.183-3.954.54-5.917-1.491-4.559-2.248-9.302-2.248-14.097 0-24.976 20.32-45.296 45.297-45.296 7.355 0 14.382 1.718 20.887 5.106 2.994 1.561 6.665.926 8.963-1.55 14.534-15.665 35.107-24.65 56.442-24.65 22.685 0 44.116 9.956 58.799 27.313 2.466 2.913 6.723 3.511 9.895 1.392 7.448-4.979 16.139-7.611 25.131-7.611 24.976 0 45.295 20.32 45.295 45.296 0 4.796-.756 9.54-2.247 14.097-.643 1.963-.447 4.103.54 5.917.986 1.813 2.678 3.14 4.674 3.667 14.236 3.757 24.18 16.675 24.18 31.415 0 8.399-3.283 16.471-9.063 22.5h-70.989c-4.143 0-7.5 3.358-7.5 7.5s3.357 7.5 7.5 7.5h77.552c6.893 0 12.5 5.607 12.5 12.5s-5.609 12.5-12.502 12.5z"/></g></svg>