<svg id="Capa_1" enable-background="new 0 0 512 512" height="512" viewBox="0 0 512 512" width="512" xmlns="http://www.w3.org/2000/svg"><g><g><path d="m156.914 504.5c-12.566 0-22.098-11.469-19.643-23.793 11.054-55.475 60.014-97.282 118.738-97.282s107.684 41.808 118.738 97.282c2.456 12.324-7.076 23.793-19.643 23.793z" fill="#f7ef87"/></g><g><path d="m281.003 386.03c-8.065-1.705-16.426-2.605-24.993-2.605-58.6 0-107.629 41.885-118.724 97.271-2.469 12.326 7.069 23.804 19.64 23.804h28.008c.001-58.166 41.276-106.909 96.069-118.47z" fill="#efd176"/></g><g><g><path d="m489.907 241.407c0-12.419-5.49-23.551-14.174-31.11-6.959-6.057-8.932-15.976-4.821-24.236 5.131-10.307 5.942-22.693 1.19-34.166-4.752-11.474-14.084-19.658-25-23.318-8.748-2.933-14.366-11.342-13.729-20.546.796-11.486-3.194-23.239-11.976-32.021-8.781-8.781-20.535-12.771-32.021-11.976-9.204.638-17.613-4.981-20.546-13.729-3.66-10.916-11.844-20.248-23.318-25s-23.859-3.941-34.166 1.19c-8.26 4.111-18.178 2.138-24.236-4.821-7.559-8.684-18.691-14.174-31.11-14.174s-23.551 5.49-31.11 14.174c-6.057 6.959-15.976 8.932-24.236 4.821-10.307-5.131-22.693-5.942-34.166-1.19-11.474 4.753-19.658 14.084-23.318 25-2.933 8.748-11.342 14.366-20.546 13.729-11.486-.796-23.239 3.194-32.021 11.976-8.782 8.781-12.771 20.535-11.976 32.021.638 9.204-4.981 17.613-13.729 20.546-10.916 3.66-20.248 11.844-25 23.318-4.753 11.474-3.941 23.859 1.19 34.166 4.111 8.26 2.138 18.178-4.821 24.236-8.684 7.559-14.174 18.691-14.174 31.11s5.49 23.551 14.174 31.11c6.959 6.057 8.932 15.976 4.821 24.236-5.131 10.307-5.942 22.693-1.19 34.166 4.752 11.474 14.084 19.658 25 23.318 8.748 2.933 14.366 11.342 13.729 20.546-.796 11.486 3.194 23.239 11.976 32.021 8.781 8.781 20.535 12.771 32.021 11.976 9.204-.638 17.613 4.981 20.546 13.729 3.66 10.916 11.844 20.248 23.318 25 11.474 4.753 23.859 3.941 34.166-1.19 8.26-4.111 18.178-2.138 24.236 4.821 7.559 8.684 18.691 14.174 31.11 14.174s23.551-5.49 31.11-14.174c6.057-6.959 15.976-8.932 24.236-4.821 10.307 5.131 22.693 5.942 34.166 1.19 11.474-4.753 19.658-14.084 23.318-25 2.933-8.748 11.342-14.366 20.546-13.729 11.486.796 23.239-3.194 32.021-11.976 8.782-8.781 12.771-20.535 11.976-32.021-.638-9.204 4.981-17.613 13.729-20.546 10.916-3.66 20.248-11.844 25-23.318 4.753-11.474 3.941-23.859-1.19-34.166-4.111-8.26-2.138-18.179 4.821-24.236 8.685-7.559 14.174-18.691 14.174-31.11z" fill="#d2996f"/></g></g><g><path d="m430.283 372.738c-11.474 4.752-23.859 3.941-34.166-1.19-8.26-4.111-18.178-2.138-24.236 4.821-7.559 8.684-18.691 14.174-31.11 14.174s-23.551-5.49-31.11-14.174c-6.057-6.959-15.976-8.932-24.236-4.821-10.307 5.131-22.693 5.942-34.166 1.19-11.473-4.753-19.658-14.084-23.318-25-2.933-8.748-11.342-14.366-20.546-13.729-11.486.796-23.239-3.194-32.021-11.976-8.781-8.781-12.771-20.535-11.976-32.021.638-9.204-4.981-17.613-13.729-20.546-10.916-3.66-20.248-11.844-25-23.318-4.753-11.473-3.941-23.859 1.19-34.166 4.111-8.26 2.138-18.178-4.821-24.236-8.684-7.559-14.174-18.691-14.174-31.11s5.49-23.551 14.174-31.11c6.959-6.057 8.932-15.976 4.821-24.236-5.13-10.307-5.942-22.693-1.19-34.166.449-1.085.952-2.13 1.481-3.155-1.156.121-2.333.148-3.526.065-11.486-.796-23.239 3.194-32.021 11.976s-12.771 20.535-11.976 32.021c.638 9.204-4.981 17.613-13.729 20.546-10.916 3.66-20.248 11.844-25 23.318-4.753 11.474-3.941 23.859 1.19 34.166 4.111 8.26 2.138 18.178-4.821 24.236-8.684 7.559-14.174 18.691-14.174 31.11s5.49 23.551 14.174 31.11c6.959 6.058 8.932 15.976 4.821 24.236-5.13 10.307-5.942 22.693-1.19 34.166 4.752 11.474 14.084 19.658 25 23.318 8.748 2.933 14.366 11.342 13.729 20.546-.796 11.486 3.194 23.239 11.976 32.021 8.781 8.781 20.535 12.771 32.021 11.976 9.204-.638 17.613 4.981 20.546 13.729 3.66 10.916 11.844 20.248 23.318 25 11.474 4.753 23.859 3.941 34.166-1.19 8.26-4.111 18.178-2.138 24.236 4.821 7.559 8.684 18.691 14.174 31.11 14.174s23.551-5.49 31.11-14.174c6.058-6.959 15.976-8.932 24.236-4.821 10.307 5.131 22.693 5.942 34.166 1.19 11.474-4.752 19.658-14.084 23.318-25 2.933-8.748 11.342-14.366 20.546-13.729 11.486.796 23.239-3.194 32.021-11.976s12.771-20.535 11.976-32.021c-.083-1.192-.056-2.37.065-3.526-1.025.529-2.07 1.032-3.155 1.481z" fill="#c18053"/></g><g><path d="m350.507 191.229c-6.534 0-11.319-6.166-9.691-12.494 5.548-21.568 25.126-37.506 48.426-37.506s42.878 15.938 48.426 37.506c1.628 6.328-3.157 12.494-9.691 12.494z" fill="#efd176"/></g><g><path d="m161.493 191.229c6.534 0 11.319-6.166 9.691-12.494-5.549-21.568-25.126-37.506-48.426-37.506s-42.878 15.938-48.426 37.506c-1.628 6.328 3.157 12.494 9.691 12.494z" fill="#e0bb5f"/></g><g><circle cx="256.01" cy="251.128" fill="#f7ef87" r="145"/></g><g><path d="m195.643 251.128c0-65.359 43.247-120.611 102.684-138.72-13.388-4.079-27.594-6.28-42.317-6.28-80.081 0-145 64.919-145 145s64.919 145 145 145c14.722 0 28.929-2.201 42.317-6.28-59.437-18.109-102.684-73.36-102.684-138.72z" fill="#efd176"/></g><g><circle cx="256.01" cy="301.128" fill="#fff" r="60"/></g><g><path d="m281.01 245.128c0 13.807-11.193 25-25 25s-25-11.193-25-25 50-13.807 50 0z" fill="#4e5660"/></g><g><path d="m256.01 245.128v-10.355c-12.5 0-25 3.452-25 10.355 0 13.807 11.193 25 25 25 4.555 0 8.822-1.224 12.5-3.353-7.471-4.323-12.5-12.395-12.5-21.647z" fill="#383c43"/></g><g><g><path d="m192.704 250.746c-.002 0-.004 0-.006 0-4.142-.003-7.497-3.363-7.494-7.505l.009-11.876c.003-4.14 3.36-7.495 7.5-7.495h.006c4.142.003 7.497 3.363 7.494 7.505l-.009 11.876c-.003 4.141-3.36 7.495-7.5 7.495z"/></g><g><path d="m319.307 250.87c-.002 0-.004 0-.006 0-4.142-.003-7.497-3.363-7.494-7.505l.009-11.876c.003-4.14 3.36-7.495 7.5-7.495h.006c4.142.003 7.497 3.363 7.494 7.505l-.009 11.876c-.003 4.141-3.361 7.495-7.5 7.495z"/></g></g><g><path d="m272.477 306.742c-2.093 0-4.174-.871-5.657-2.573-2.729-3.131-6.669-4.928-10.81-4.928s-8.08 1.796-10.81 4.928c-2.721 3.123-7.459 3.447-10.582.727-3.122-2.722-3.448-7.459-.727-10.582 5.579-6.402 13.641-10.073 22.118-10.073s16.539 3.671 22.118 10.073c2.722 3.123 2.396 7.86-.727 10.582-1.42 1.238-3.175 1.846-4.923 1.846z"/></g><g><path d="m480.657 278.175c10.645-9.265 16.75-22.667 16.75-36.768s-6.105-27.502-16.75-36.767c-4.36-3.796-5.607-10.062-3.031-15.237 6.289-12.633 6.802-27.351 1.405-40.379-5.396-13.026-16.165-23.071-29.545-27.558-5.481-1.838-9.031-7.149-8.631-12.916.544-7.843-.829-15.779-3.97-22.951-1.663-3.794-6.084-5.523-9.879-3.861-3.794 1.662-5.522 6.084-3.861 9.879 2.173 4.962 3.123 10.458 2.745 15.896-.871 12.58 6.87 24.166 18.826 28.175 9.266 3.107 16.722 10.061 20.456 19.077 3.735 9.018 3.38 19.207-.975 27.955-5.619 11.289-2.901 24.956 6.611 33.235 7.37 6.416 11.598 15.693 11.598 25.453s-4.228 19.038-11.598 25.453c-9.512 8.279-12.23 21.946-6.611 33.235 4.354 8.748 4.71 18.937.976 27.954-3.735 9.017-11.191 15.971-20.457 19.077-11.956 4.009-19.697 15.595-18.826 28.176.676 9.748-2.895 19.297-9.797 26.199-6.9 6.901-16.45 10.471-26.198 9.797-12.57-.875-24.167 6.869-28.177 18.826-3.106 9.265-10.06 16.721-19.076 20.456s-19.206 3.38-27.954-.975c-11.288-5.619-24.956-2.901-33.235 6.611-6.415 7.371-15.692 11.598-25.453 11.598-9.76 0-19.037-4.228-25.453-11.599-8.28-9.513-21.947-12.229-33.234-6.611-8.748 4.354-18.938 4.71-27.955.975s-15.97-11.191-19.077-20.456c-4.01-11.957-15.604-19.702-28.175-18.826-9.733.677-19.298-2.895-26.199-9.797-6.902-6.902-10.473-16.451-9.797-26.199.871-12.581-6.87-24.167-18.826-28.176-9.266-3.106-16.721-10.06-20.456-19.077-3.735-9.018-3.38-19.206.975-27.954 5.62-11.29 2.901-24.957-6.61-33.235-7.371-6.417-11.599-15.694-11.599-25.453 0-9.76 4.228-19.037 11.598-25.453 9.513-8.279 12.231-21.946 6.611-33.235-4.354-8.748-4.71-18.937-.975-27.954s11.19-15.97 20.455-19.077c11.957-4.009 19.698-15.595 18.827-28.175-.676-9.748 2.895-19.297 9.796-26.199 6.903-6.902 16.464-10.471 26.2-9.797 12.591.879 24.165-6.871 28.176-18.826 3.106-9.265 10.06-16.721 19.076-20.456 9.018-3.736 19.205-3.379 27.954.975 11.289 5.62 24.954 2.901 33.235-6.61 6.416-7.372 15.693-11.6 25.453-11.6 9.761 0 19.038 4.228 25.453 11.599 8.279 9.512 21.944 12.229 33.236 6.61 8.748-4.355 18.938-4.709 27.953-.975 9.017 3.735 15.97 11.19 19.077 20.456 4.009 11.957 15.607 19.7 28.176 18.826 5.427-.375 10.932.572 15.894 2.745 3.791 1.663 8.216-.065 9.879-3.86 1.662-3.794-.066-8.217-3.861-9.879-7.168-3.141-15.104-4.515-22.948-3.97-5.765.397-11.079-3.15-12.917-8.631-4.487-13.38-14.531-24.149-27.559-29.545s-27.744-4.884-40.378 1.405c-5.175 2.576-11.441 1.331-15.237-3.03-9.265-10.646-22.666-16.751-36.768-16.751-14.101 0-27.501 6.105-36.768 16.75-3.796 4.36-10.06 5.607-15.236 3.031-12.635-6.289-27.353-6.8-40.379-1.405-13.027 5.396-23.072 16.166-27.558 29.545-1.839 5.481-7.168 9.03-12.917 8.631-14.079-.979-27.871 4.184-37.844 14.154-9.971 9.971-15.13 23.765-14.154 37.843.4 5.767-3.149 11.079-8.631 12.917-13.38 4.487-24.148 14.532-29.544 27.559s-4.885 27.745 1.404 40.379c2.576 5.175 1.33 11.441-3.032 15.237-10.645 9.266-16.749 22.667-16.749 36.767s6.104 27.5 16.75 36.767c4.361 3.795 5.607 10.061 3.031 15.237-6.289 12.633-6.802 27.351-1.405 40.378 5.396 13.028 16.165 23.073 29.546 27.559 5.48 1.838 9.03 7.149 8.63 12.917-.976 14.078 4.184 27.872 14.155 37.843 9.971 9.97 23.757 15.123 37.843 14.154 5.763-.406 11.079 3.149 12.916 8.631 1.334 3.979 3.171 7.721 5.421 11.165-5.361 10.488-9.261 21.633-11.563 33.183-1.604 8.047.471 16.312 5.691 22.675 5.257 6.408 13.023 10.083 21.307 10.083h198.191c8.284 0 16.05-3.675 21.307-10.083 5.221-6.364 7.295-14.628 5.691-22.675-2.304-11.56-6.206-22.71-11.572-33.201 2.244-3.44 4.077-7.175 5.409-11.147 1.839-5.482 7.175-9.032 12.918-8.631 14.094.97 27.872-4.184 37.843-14.154 9.971-9.971 15.13-23.765 14.154-37.843-.4-5.767 3.149-11.079 8.631-12.917 13.38-4.486 24.148-14.531 29.546-27.559 5.396-13.027 4.883-27.745-1.406-40.377-2.576-5.177-1.329-11.443 3.031-15.238zm-115.842 214.228c-2.396 2.922-5.936 4.597-9.71 4.597h-198.191c-3.774 0-7.313-1.675-9.71-4.597-2.36-2.876-3.3-6.605-2.577-10.229 1.667-8.364 4.278-16.489 7.773-24.251 3.399 2.637 7.163 4.837 11.217 6.517 13.027 5.396 27.746 4.883 40.38-1.405 5.176-2.576 11.44-1.329 15.235 3.031 9.267 10.645 22.667 16.75 36.768 16.75 14.102 0 27.503-6.105 36.768-16.75 3.795-4.361 10.06-5.606 15.237-3.031 12.633 6.289 27.35 6.801 40.378 1.405 4.06-1.682 7.83-3.886 11.233-6.528 3.497 7.764 6.109 15.893 7.777 24.263.722 3.622-.217 7.351-2.578 10.228z"/><path d="m441.812 191.949c3.341-4.308 4.478-9.805 3.121-15.083-6.534-25.398-29.436-43.137-55.69-43.137-9.851 0-19.395 2.489-27.9 7.222-27.398-26.204-64.517-42.323-105.332-42.323-40.818 0-77.94 16.122-105.338 42.329-8.51-4.737-18.061-7.229-27.914-7.229-26.256 0-49.156 17.739-55.689 43.137-1.357 5.277-.221 10.774 3.119 15.082 3.342 4.309 8.384 6.781 13.835 6.781h28.763c-6 16.347-9.276 33.998-9.276 52.399 0 34.922 12.106 69.053 34.089 96.106 2.611 3.214 7.333 3.703 10.55 1.091 3.215-2.612 3.703-7.336 1.091-10.55-19.816-24.388-30.729-55.16-30.729-86.647 0-75.818 61.683-137.5 137.5-137.5s137.5 61.682 137.5 137.5-61.683 137.5-137.5 137.5c-31.487 0-62.26-10.914-86.647-30.73-3.216-2.612-7.939-2.124-10.55 1.091-2.612 3.214-2.124 7.938 1.091 10.55 27.053 21.982 61.185 34.089 96.106 34.089 84.089 0 152.5-68.411 152.5-152.5 0-18.401-3.276-36.052-9.276-52.399h28.744c5.449.001 10.491-2.47 13.832-6.779zm-357.79-8.22c-1.067 0-1.699-.609-1.98-.972-.28-.362-.712-1.123-.446-2.154 4.827-18.767 21.754-31.874 41.162-31.874 5.977 0 11.801 1.239 17.172 3.615-8.119 9.526-15.087 20.06-20.691 31.385zm288.061-31.393c5.366-2.372 11.185-3.607 17.159-3.607 19.408 0 36.335 13.107 41.163 31.874.265 1.031-.166 1.793-.447 2.155-.281.363-.913.972-1.98.972h-35.198c-5.605-11.33-12.575-21.866-20.697-31.394z"/><path d="m323.51 301.128c0-24.754-13.799-47.683-35.433-59.397-2.337-9.004-14.172-14.459-32.067-14.459-17.894 0-29.729 5.454-32.067 14.458-21.641 11.716-35.433 34.62-35.433 59.397 0 37.22 30.28 67.5 67.5 67.5s67.5-30.279 67.5-67.499zm-67.5-58.855c9.682 0 15.817 2.177 17.485 3.566-.374 9.322-8.074 16.789-17.485 16.789s-17.111-7.467-17.485-16.789c1.667-1.389 7.803-3.566 17.485-3.566zm-52.5 58.855c0-17.321 8.667-33.466 22.642-43.175 4.985 11.56 16.49 19.675 29.858 19.675s24.872-8.114 29.857-19.674c13.972 9.712 22.643 25.87 22.643 43.174 0 28.949-23.552 52.5-52.5 52.5s-52.5-23.551-52.5-52.5z"/></g></g></svg>