<svg id="Capa_1" enable-background="new 0 0 512.659 512.659" height="512" viewBox="0 0 512.659 512.659" width="512" xmlns="http://www.w3.org/2000/svg"><g><g><path d="m191.33 251.788h-80v-224.288c0-11.046 8.954-20 20-20 33.137 0 60 26.863 60 60z" fill="#efdfb4"/></g><g><path d="m191.33 251.788v-184.288c0 22.091-17.909 40-40 40s-40-17.909-40-40v184.288z" fill="#e2cd9c"/></g><g><path d="m321.33 251.788h80v-224.288c0-11.046-8.954-20-20-20-33.137 0-60 26.863-60 60z" fill="#efdfb4"/></g><g><path d="m401.33 251.788v-184.288c0 22.091-17.909 40-40 40s-40-17.909-40-40v184.288z" fill="#e2cd9c"/></g><g><path d="m375.068 481.366c-11.054-55.475-60.014-97.282-118.738-97.282s-107.684 41.808-118.738 97.282c-2.456 12.324 7.076 23.793 19.643 23.793h64.216l34.879-20 34.879 20h64.216c12.566 0 22.098-11.469 19.643-23.793z" fill="#e8899e"/></g><g><path d="m221.45 423.439h69.759v81.72h-69.759z" fill="#efd176"/></g><g><path d="m279.264 386.261c-7.427-1.424-15.092-2.177-22.934-2.177-58.724 0-107.684 41.808-118.738 97.282-2.456 12.324 7.076 23.793 19.643 23.793h23.877c-.001-59.03 42.246-108.184 98.152-118.898z" fill="#e26e7e"/></g><g><path d="m223.33 433.439-15.174-58.167h96.335l-15.161 58.167z" fill="#e2cd9c"/></g><g><path d="m287.915 460.24c27.323-23.708 32.641-62.417 32.726-84.968h-16.15l-48.167 58.167 16.663 24.867c3.366 5.026 10.359 5.899 14.928 1.934z" fill="#f7ef87"/></g><g><path d="m224.732 460.24c-27.323-23.708-32.64-62.417-32.726-84.968h16.15l48.167 58.167-16.663 24.867c-3.366 5.026-10.359 5.899-14.928 1.934z" fill="#f7ef87"/></g><g><path d="m302.516 423.024c-16.029 0-46.186 22.709-46.186 22.709s-30.157-22.709-46.186-22.709-16.029 61.28 0 61.28 46.186-22.709 46.186-22.709 30.157 22.709 46.186 22.709c16.029.001 16.029-61.28 0-61.28z" fill="#908cd6"/></g><g><circle cx="256.33" cy="453.664" fill="#b49cdc" r="20.225"/></g><g><circle cx="256.33" cy="251.788" fill="#fcf2d0" r="145"/></g><g><path d="m192.36 251.788c0-66.018 44.122-121.723 104.485-139.256-12.859-3.735-26.452-5.744-40.515-5.744-80.081 0-145 64.919-145 145s64.919 145 145 145c14.064 0 27.656-2.01 40.515-5.744-60.363-17.533-104.485-73.239-104.485-139.256z" fill="#efdfb4"/></g><g><circle cx="256.33" cy="301.788" fill="#fff" r="60"/></g><g><path d="m281.33 245.788c0 13.807-11.193 25-25 25s-25-11.193-25-25c0-13.808 50-13.808 50 0z" fill="#e8899e"/></g><g><path d="m256.33 245.788v-10.355c-12.5 0-25 3.452-25 10.355 0 13.807 11.193 25 25 25 4.555 0 8.822-1.224 12.5-3.353-7.471-4.323-12.5-12.396-12.5-21.647z" fill="#e26e7e"/></g><path d="m285.241 287.945c-4.143 0-7.5 3.357-7.5 7.5 0 3.836-3.12 6.956-6.956 6.956-3.835 0-6.955-3.12-6.955-6.956 0-4.143-3.357-7.5-7.5-7.5s-7.5 3.357-7.5 7.5c0 3.836-3.12 6.956-6.955 6.956-3.836 0-6.956-3.12-6.956-6.956 0-4.143-3.357-7.5-7.5-7.5s-7.5 3.357-7.5 7.5c0 12.106 9.85 21.956 21.956 21.956 5.533 0 10.59-2.062 14.455-5.451 3.865 3.39 8.922 5.451 14.455 5.451 12.106 0 21.956-9.85 21.956-21.956 0-4.142-3.358-7.5-7.5-7.5z"/><g><g><path d="m193.024 251.405c-.002 0-.004 0-.006 0-4.142-.003-7.497-3.363-7.494-7.506l.009-11.876c.003-4.14 3.36-7.494 7.5-7.494h.006c4.142.003 7.497 3.363 7.494 7.506l-.009 11.876c-.003 4.14-3.36 7.494-7.5 7.494z"/></g><g><path d="m319.626 251.529c-.002 0-.004 0-.006 0-4.142-.003-7.497-3.363-7.494-7.506l.009-11.876c.003-4.14 3.36-7.494 7.5-7.494h.006c4.142.003 7.497 3.363 7.494 7.506l-.009 11.876c-.002 4.14-3.36 7.494-7.5 7.494z"/></g></g><g><path d="m323.83 301.787c0-24.759-13.798-47.68-35.433-59.397-2.337-9.004-14.172-14.458-32.067-14.458s-29.73 5.454-32.067 14.458c-21.64 11.715-35.433 34.621-35.433 59.397 0 37.22 30.28 67.5 67.5 67.5s67.5-30.28 67.5-67.5zm-67.5-58.854c9.682 0 15.817 2.177 17.485 3.565-.374 9.322-8.074 16.789-17.485 16.789s-17.111-7.467-17.485-16.789c1.667-1.389 7.803-3.565 17.485-3.565zm-52.5 58.854c0-17.32 8.667-33.465 22.643-43.175 4.985 11.56 16.489 19.675 29.857 19.675 13.367 0 24.872-8.114 29.857-19.673 13.973 9.711 22.643 25.865 22.643 43.173 0 28.948-23.552 52.5-52.5 52.5s-52.5-23.552-52.5-52.5z"/><path d="m401.33 125.659c4.143 0 7.5-3.357 7.5-7.5v-90.659c0-15.163-12.337-27.5-27.5-27.5-37.22 0-67.5 30.28-67.5 67.5v43.052c-17.755-7.255-37.166-11.265-57.5-11.265s-39.745 4.01-57.5 11.265v-43.052c0-37.22-30.28-67.5-67.5-67.5-15.163 0-27.5 12.337-27.5 27.5v224.287c0 34.923 12.106 69.054 34.089 96.106 2.611 3.213 7.335 3.704 10.55 1.091 3.215-2.612 3.703-7.335 1.091-10.55-19.816-24.388-30.729-55.159-30.729-86.647 0-75.817 61.683-137.5 137.5-137.5s137.5 61.683 137.5 137.5-61.683 137.5-137.5 137.5c-31.514 0-62.306-10.929-86.702-30.774-3.213-2.615-7.938-2.127-10.551 1.086s-2.128 7.937 1.086 10.551c7.731 6.289 16.043 11.767 24.785 16.389.244 3.306.619 6.974 1.177 10.896-28.881 18.861-49.158 48.69-55.889 82.465-1.604 8.047.471 16.313 5.691 22.676 5.257 6.408 13.022 10.083 21.307 10.083h198.191c8.284 0 16.05-3.675 21.307-10.083 5.221-6.363 7.295-14.629 5.691-22.676-6.732-33.783-27.011-63.61-55.898-82.47.563-3.95.936-7.625 1.178-10.912 48.217-25.646 81.126-76.414 81.126-134.731v-103.628c0-4.143-3.357-7.5-7.5-7.5s-7.5 3.357-7.5 7.5v37.702c-13.96-28.999-36.829-52.932-65.035-68.229.021-.23.035-.462.035-.697v-49.435c0-28.948 23.552-52.5 52.5-52.5 6.893 0 12.5 5.607 12.5 12.5v90.659c0 4.143 3.357 7.5 7.5 7.5zm-282.5 60.202v-158.361c0-6.893 5.607-12.5 12.5-12.5 28.948 0 52.5 23.552 52.5 52.5v49.436c0 .235.014.467.035.697-28.206 15.296-51.075 39.23-65.035 68.228zm152.509 217.687-15.015 18.132-15.03-18.15c4.983.497 10.001.756 15.036.756 5.064.001 10.07-.253 15.009-.738zm35.7 50.116c0 13.378-3.154 21.512-4.947 23.131-2.669-.113-9.238-1.371-22.101-8.696 2.576-4.207 4.064-9.15 4.064-14.435 0-5.284-1.488-10.227-4.064-14.434 12.861-7.324 19.431-8.583 22.101-8.696 1.792 1.619 4.947 9.753 4.947 23.13zm-96.471-23.13c2.665.113 9.232 1.367 22.101 8.695-2.576 4.207-4.064 9.15-4.064 14.435s1.488 10.228 4.064 14.436c-12.869 7.328-19.436 8.582-22.101 8.695-1.793-1.62-4.947-9.754-4.947-23.131 0-13.376 3.154-21.51 4.947-23.13zm33.037 23.13c0-7.017 5.708-12.725 12.725-12.725s12.725 5.708 12.725 12.725-5.708 12.726-12.725 12.726-12.725-5.709-12.725-12.726zm.716 24.987c3.635 1.754 7.709 2.738 12.009 2.738s8.375-.984 12.011-2.739c5.565 3.37 10.693 6.098 15.368 8.177v10.832h-54.758v-10.833c4.676-2.08 9.803-4.804 15.37-8.175zm-25.848-79.161 22.565 27.249c-12.882-7.44-23.259-11.214-30.894-11.214-1.232 0-2.775.174-4.45.755-2.524-7.91-4.037-15.665-4.933-22.504 5.779 2.26 11.694 4.17 17.712 5.714zm-70.949 93.573c-2.36-2.877-3.3-6.606-2.577-10.23 5.545-27.827 21.512-52.623 44.35-69.356 1.316 5.131 2.988 10.413 5.102 15.686-.12.317-.239.637-.354.968-2.208 6.33-3.425 14.688-3.425 23.534 0 18.438 5.129 38.141 19.522 38.141 1.2 0 2.473-.101 3.808-.287v6.141h-56.717c-3.774-.001-7.313-1.677-9.709-4.597zm220.188-10.231c.723 3.624-.217 7.354-2.577 10.23-2.396 2.921-5.936 4.597-9.71 4.597h-56.717v-6.141c1.334.186 2.607.286 3.808.286 14.394 0 19.522-19.702 19.522-38.141 0-8.613-1.12-17.501-3.781-24.529 2.112-5.27 3.78-10.549 5.092-15.669 22.847 16.735 38.817 41.532 44.363 69.367zm-60.747-66.596c-1.375-.457-2.851-.712-4.448-.712-7.643 0-18.029 3.781-30.92 11.23l22.533-27.211c6.07-1.554 11.995-3.473 17.751-5.732-.892 6.782-2.398 14.519-4.916 22.425z"/></g></g></svg>