<svg id="Capa_1" enable-background="new 0 0 511.962 511.962" height="512" viewBox="0 0 511.962 511.962" width="512" xmlns="http://www.w3.org/2000/svg"><g><g><g><path d="m255.983 43.462c-88.366 0-160 71.634-160 160v15.245h320v-15.245c0-88.366-71.634-160-160-160z" fill="#e8899e"/></g></g><g><path d="m285.983 46.282c-9.719-1.844-19.745-2.82-30-2.82-88.365 0-160 71.635-160 160v15.245h60v-15.245c0-78.11 55.976-143.136 130-157.18z" fill="#e26e7e"/></g><g><circle cx="401.11" cy="251.093" fill="#ffbf9e" r="36.081"/></g><g><circle cx="110.853" cy="251.093" fill="#f7ab8b" r="36.081"/></g><g><path d="m185.983 405.67-10 61.119 10 37.673h140l10-37.673-10-61.119c-19.764-14.03-43.917-22.283-70-22.283s-50.236 8.253-70 22.283z" fill="#908cd6"/></g><g><path d="m294.592 389.695c-12.127-4.08-25.106-6.309-38.609-6.309-26.083 0-50.236 8.253-70 22.283l-10 61.119 10 37.673h26.116c0-53.253 34.598-98.612 82.493-114.766z" fill="#6c6cc1"/></g><g><path d="m255.983 436.789c22.477 0 40.698-18.221 40.698-40.698 0-1.969-.148-3.903-.418-5.798-2.403-.851-4.835-1.628-7.302-2.325-10.485-2.978-21.547-4.581-32.978-4.581-14.115 0-27.672 2.438-40.28 6.902-.271 1.896-.419 3.831-.419 5.801.001 22.478 18.222 40.699 40.699 40.699z" fill="#ffbf9e"/></g><g><path d="m236.416 431.78c14.556-19.325 34.753-34.174 58.123-42.068-1.843-.622-3.697-1.214-5.578-1.745-10.485-2.978-21.547-4.581-32.978-4.581-14.115 0-27.672 2.438-40.28 6.902-.271 1.896-.419 3.831-.419 5.801.001 15.385 8.539 28.772 21.132 35.691z" fill="#f7ab8b"/></g><g><path d="m325.983 405.67v98.792h29.096c12.566 0 22.098-11.469 19.642-23.793-6.144-30.835-24.004-57.442-48.738-74.999z" fill="#6c6cc1"/></g><g><path d="m185.983 405.67v98.792h-29.096c-12.566 0-22.098-11.469-19.642-23.793 6.144-30.835 24.004-57.442 48.738-74.999z" fill="#5353ad"/></g><g><circle cx="326.671" cy="413.462" fill="#b49cdc" r="40"/></g><g><circle cx="185.085" cy="413.462" fill="#b49cdc" r="40"/></g><g><path d="m255.983 174.111c-40.698 0-77.413 41.201-140.547 41.201-2.905 11.445-4.453 23.43-4.453 35.779 0 80.081 64.919 145 145 145s145-64.919 145-145c0-12.348-1.548-24.334-4.453-35.779-63.134 0-99.849-41.201-140.547-41.201z" fill="#ffd4be"/></g><g><path d="m160.983 251.09c0-15.896 2.563-31.191 7.29-45.502-15.619 5.618-32.911 9.724-52.837 9.724-2.905 11.445-4.453 23.43-4.453 35.779 0 80.081 64.919 145 145 145 8.526 0 16.878-.743 25-2.154-68.167-11.848-120-71.291-120-142.847z" fill="#ffbf9e"/></g><g><g><g><ellipse cx="176.426" cy="300.084" fill="#eda1ab" rx="29.355" ry="23.377"/></g><g><ellipse cx="335.54" cy="300.084" fill="#eda1ab" rx="29.355" ry="23.377"/></g></g><g><path d="m193.534 285.081c-4.143 0-7.5-3.358-7.5-7.5v-12c0-4.142 3.357-7.5 7.5-7.5s7.5 3.358 7.5 7.5v12c0 4.142-3.358 7.5-7.5 7.5z"/></g><g><path d="m318.431 285.081c-4.143 0-7.5-3.358-7.5-7.5v-12c0-4.142 3.357-7.5 7.5-7.5s7.5 3.358 7.5 7.5v12c0 4.142-3.357 7.5-7.5 7.5z"/></g><g><path d="m255.983 292.224c-8.478 0-16.539-3.671-22.118-10.073-2.722-3.123-2.396-7.86.727-10.582 3.122-2.721 7.859-2.396 10.582.727 2.729 3.132 6.669 4.928 10.81 4.928s8.08-1.796 10.81-4.928c2.721-3.123 7.457-3.448 10.582-.727 3.122 2.722 3.448 7.459.727 10.582-5.581 6.402-13.642 10.073-22.12 10.073z"/></g></g><g><g><path d="m350.449 19.027c0-6.385-7.395-9.926-12.37-5.923l-25.331 20.386c-5.566 4.48-13.501 4.48-19.067 0l-28.166-22.669c-5.566-4.48-13.501-4.48-19.068 0l-28.164 22.669c-5.566 4.48-13.501 4.48-19.068 0l-25.329-20.385c-4.974-4.004-12.37-.463-12.37 5.923 0 0-.009 75.755 94.462 75.755s94.471-75.756 94.471-75.756z" fill="#f7ef87"/></g></g><g><path d="m218.283 33.49c-5.567 4.48-13.501 4.48-19.068 0l-25.329-20.385c-4.974-4.004-12.37-.463-12.37 5.923 0 0-.009 75.755 94.462 75.755-31.387 0-52.867-49.353-37.695-61.293z" fill="#efd176"/></g><path d="m423.483 213.71v-10.248c0-57.748-29.993-111.517-78.719-142.039 12.948-20.435 13.185-41.054 13.185-42.396 0-5.868-3.288-11.088-8.581-13.622-5.292-2.534-11.421-1.821-15.99 1.856l-25.331 20.386c-2.801 2.253-6.862 2.253-9.663 0l-28.167-22.668c-8.249-6.639-20.224-6.639-28.473 0l-28.164 22.669c-2.799 2.253-6.863 2.253-9.662 0l-25.329-20.386c-4.57-3.679-10.696-4.391-15.992-1.856-5.292 2.534-8.58 7.754-8.58 13.621 0 .861.145 21.322 12.939 41.846.103.165.215.332.32.498-48.761 30.511-78.793 84.347-78.793 142.092v10.246c-12.696 7.625-21.212 21.527-21.212 37.385 0 23.685 18.996 43.003 42.55 43.555 3.239 10.9 7.693 21.431 13.302 31.357 2.037 3.607 6.611 4.877 10.219 2.84 3.606-2.038 4.878-6.613 2.84-10.219-11.579-20.493-17.699-43.846-17.699-67.536 0-9.567.987-19.094 2.939-28.396 33.766-1.323 59.881-13.633 83.07-24.564 18.805-8.864 35.045-16.52 51.49-16.52s32.686 7.655 51.49 16.52c23.189 10.931 49.305 23.241 83.07 24.564 1.952 9.302 2.939 18.829 2.939 28.396 0 75.818-61.683 137.5-137.5 137.5-39.377 0-76.934-16.931-103.039-46.452-2.744-3.104-7.484-3.394-10.587-.65s-3.394 7.483-.649 10.586c6.371 7.204 13.358 13.731 20.844 19.531-15.059 8.062-24.967 23.875-24.967 41.856 0 9.48 2.803 18.313 7.607 25.735-7.336 12.414-12.483 25.85-15.304 40.006-1.604 8.048.472 16.313 5.692 22.676 5.257 6.407 13.022 10.082 21.306 10.082h198.191c8.283 0 16.049-3.675 21.306-10.082 5.221-6.363 7.296-14.628 5.692-22.677-2.834-14.22-8.015-27.715-15.404-40.176 4.738-7.387 7.499-16.157 7.499-25.565 0-17.858-9.903-33.707-24.915-41.809 24.884-19.296 43.654-46.11 52.878-77.005 23.557-.548 42.556-19.868 42.556-43.555.004-15.855-8.51-29.756-21.204-37.382zm-167.5 189.88c8.408 0 16.656-.695 24.698-2.01-.994 3.858-1.51 7.847-1.51 11.882 0 2.027.142 4.021.39 5.982-6.218 6.283-14.655 9.844-23.579 9.844-9.017 0-17.528-3.631-23.764-10.032.232-1.901.366-3.832.366-5.795 0-4.055-.518-8.06-1.52-11.931 8.182 1.358 16.512 2.06 24.919 2.06zm-77.5 93.372h-21.596c-3.773 0-7.313-1.675-9.709-4.596-2.36-2.877-3.3-6.606-2.578-10.231 2.188-10.979 5.961-21.468 11.237-31.288 6.43 5.042 14.182 8.463 22.646 9.646zm-25.897-83.5c0-15.226 10.373-28.181 24.963-31.617 11.222 6.729 23.266 11.993 35.835 15.654 2.743 4.854 4.202 10.334 4.202 15.963 0 17.92-14.579 32.5-32.5 32.5s-32.5-14.58-32.5-32.5zm165.897 83.5h-125v-36.758c14.852-2.662 27.326-12.244 33.959-25.285 8.19 6.032 18.131 9.37 28.541 9.37 10.341 0 20.226-3.298 28.388-9.26 6.679 13.046 19.209 22.61 34.112 25.212zm48.883-14.828c.722 3.625-.218 7.354-2.578 10.231-2.396 2.921-5.936 4.596-9.709 4.596h-21.596v-36.496c8.449-1.219 16.179-4.672 22.585-9.736 5.309 9.854 9.101 20.384 11.298 31.405zm-8.195-68.672c0 17.92-14.579 32.5-32.5 32.5s-32.5-14.58-32.5-32.5c0-5.582 1.439-11.028 4.143-15.855 12.772-3.696 24.858-9.02 36.021-15.733 14.496 3.49 24.836 16.488 24.836 31.588zm-276.9-162.369c0-14.137 10.319-25.903 23.82-28.177-1.73 9.261-2.608 18.701-2.608 28.174 0 9.487.899 18.924 2.636 28.184-13.514-2.262-23.848-14.034-23.848-28.181zm318.839-43.581c-1.556 0-3.126.083-4.668.248-.102.011-.199.033-.3.047-33.153-.096-59.245-12.39-82.274-23.245-19.584-9.231-38.082-17.951-57.886-17.951s-38.302 8.72-57.886 17.951c-23.016 10.849-49.09 23.135-82.217 23.244-.045-.006-.088-.017-.133-.022-1.614-.181-3.262-.273-4.896-.273-2.512 0-4.972.226-7.369.636v-4.686c0-53.082 27.874-102.542 73.035-130.176 14.216 15.111 38.438 28.997 79.461 28.997 7.143 0 14.046-.423 20.518-1.257 4.108-.53 7.009-4.289 6.479-8.397-.529-4.107-4.286-7.01-8.397-6.479-5.838.752-12.096 1.134-18.6 1.134-85.529 0-86.943-65.491-86.974-68.3.027-.031.109-.073.18-.036l25.328 20.386c8.248 6.639 20.224 6.639 28.472 0l28.165-22.668c2.799-2.253 6.864-2.253 9.663 0l28.166 22.668c8.249 6.638 20.223 6.639 28.472 0l25.358-20.423c.041 0 .125.041.14.117 0 .419-.474 42.112-41.394 59.968-3.797 1.657-5.531 6.077-3.875 9.874 1.657 3.796 6.081 5.532 9.873 3.875 11.929-5.205 21.029-12.025 27.98-19.413 45.123 27.647 72.95 77.05 72.95 130.132v4.686c-2.396-.411-4.857-.637-7.371-.637zm4.752 71.759c1.714-9.137 2.621-18.554 2.621-28.181 0-9.473-.877-18.913-2.608-28.174 13.498 2.276 23.816 14.041 23.816 28.176 0 14.141-10.324 25.909-23.829 28.179z"/></g></svg>