<svg id="Capa_1" enable-background="new 0 0 512.029 512.029" height="512" viewBox="0 0 512.029 512.029" width="512" xmlns="http://www.w3.org/2000/svg"><g><g><path d="m422.414 57.387c-14.701-14.701-27.724-4.551-33.823-10.651-6.1-6.1 4.05-19.122-10.651-33.823-21.913-21.913-93.258 30.155-93.258 30.155l107.577 107.577s52.069-71.345 30.155-93.258z" fill="#908cd6"/></g><g><g><path d="m411.629 95.55c-11.766 28.407-10.546 59.03.929 85.553 2.193 5.069 8.142 7.534 13.278 5.5 26.869-10.64 49.385-31.431 61.152-59.838s10.546-59.03-.929-85.553c-2.193-5.069-8.142-7.534-13.278-5.5-26.869 10.64-49.385 31.431-61.152 59.838z" fill="#a3defe"/></g></g><g><ellipse cx="246.758" cy="237.529" fill="#b49cdc" rx="201.887" ry="255.016" transform="matrix(.707 -.707 .707 .707 -95.685 244.055)"/></g><g><path d="m306.755 467.404c-130.951-243.523-134.06-347.009-5.918-435.085-84.472-39.213-176.924-32.592-234.402 24.887-78.842 78.842-62.022 223.489 37.567 323.079 59.398 59.398 134.82 89.343 202.753 87.119z" fill="#908cd6"/></g><g><path d="m147.662 504.529c-12.566 0-22.098-11.469-19.643-23.793 11.054-55.475 60.014-97.282 118.738-97.282s107.684 41.808 118.738 97.282c2.456 12.324-7.076 23.793-19.643 23.793z" fill="#f7ef87"/></g><g><path d="m271.751 386.059c-8.065-1.705-16.426-2.605-24.993-2.605-58.6 0-107.629 41.885-118.724 97.271-2.469 12.326 7.069 23.804 19.64 23.804h28.008c.001-58.166 41.276-106.909 96.069-118.47z" fill="#efd176"/></g><g><path d="m246.789 365.732c-62.371 0-76.813 59.672-66.181 74.194s32.246-5.722 32.246-5.722 10.628 45.996 33.935 45.996 33.935-45.996 33.935-45.996 21.613 20.244 32.246 5.722c10.632-14.522-3.81-74.194-66.181-74.194z" fill="#fcf2d0"/></g><g><path d="m66.758 177.336v-46.178c0-11.046 8.954-20 20-20h46.178c36.549 0 66.178 29.629 66.178 66.178 0 36.549-29.629 66.178-66.178 66.178-36.549-.001-66.178-29.629-66.178-66.178z" fill="#e0bb5f"/></g><g><path d="m132.936 213.514c-19.948 0-36.178-16.229-36.178-36.178v-36.178h36.178c19.948 0 36.178 16.229 36.178 36.178 0 19.948-16.23 36.178-36.178 36.178z" fill="#d3a53d"/></g><g><circle cx="246.758" cy="251.158" fill="#f7ef87" r="145"/></g><g><path d="m298.393 115.633v45.17c0 11.046 8.954 20 20 20 11.046 0 20-8.954 20-20v-22.015c-11.906-9.722-25.386-17.584-40-23.155z" fill="#efd176"/></g><g><path d="m182.788 251.158c0-66.018 44.122-121.723 104.485-139.256-12.859-3.735-26.452-5.744-40.515-5.744-80.081 0-145 64.919-145 145s64.919 145 145 145c14.064 0 27.656-2.01 40.515-5.744-60.362-17.533-104.485-73.239-104.485-139.256z" fill="#efd176"/></g><g><path d="m155.123 138.787v22.015c0 11.046 8.954 20 20 20 11.046 0 20-8.954 20-20v-45.17c-14.613 5.572-28.094 13.434-40 23.155z" fill="#e0bb5f"/></g><g><circle cx="246.758" cy="301.158" fill="#fff" r="60"/></g><g><path d="m271.758 245.158c0 13.807-11.193 25-25 25s-25-11.193-25-25c0-13.808 50-13.808 50 0z" fill="#4e5660"/></g><g><path d="m246.758 245.158v-10.355c-12.5 0-25 3.452-25 10.355 0 13.807 11.193 25 25 25 4.555 0 8.822-1.224 12.5-3.353-7.47-4.323-12.5-12.395-12.5-21.647z" fill="#383c43"/></g><g><g><path d="m183.452 250.775c-.002 0-.004 0-.006 0-4.142-.003-7.498-3.363-7.494-7.506l.009-11.876c.003-4.14 3.36-7.494 7.5-7.494h.006c4.142.003 7.498 3.363 7.494 7.506l-.009 11.876c-.003 4.14-3.36 7.494-7.5 7.494z"/></g><g><path d="m310.054 250.899c-.002 0-.004 0-.006 0-4.142-.003-7.498-3.363-7.494-7.506l.009-11.876c.003-4.14 3.36-7.494 7.5-7.494h.006c4.142.003 7.498 3.363 7.494 7.506l-.009 11.876c-.003 4.14-3.36 7.494-7.5 7.494z"/></g></g><g><g><path d="m232.303 316.771c-12.106 0-21.956-9.85-21.956-21.956 0-4.143 3.358-7.5 7.5-7.5s7.5 3.357 7.5 7.5c0 3.836 3.12 6.956 6.956 6.956s6.956-3.12 6.956-6.956c0-4.143 3.358-7.5 7.5-7.5s7.5 3.357 7.5 7.5c-.001 12.107-9.85 21.956-21.956 21.956z"/></g><g><path d="m261.214 316.771c-12.106 0-21.956-9.85-21.956-21.956 0-4.143 3.358-7.5 7.5-7.5s7.5 3.357 7.5 7.5c0 3.836 3.12 6.956 6.956 6.956s6.956-3.12 6.956-6.956c0-4.143 3.358-7.5 7.5-7.5s7.5 3.357 7.5 7.5c-.001 12.107-9.85 21.956-21.956 21.956z"/></g></g><g><path d="m246.758 106.158c-6.787 0-13.461.477-20 1.379v83.265c0 11.046 8.954 20 20 20 11.046 0 20-8.954 20-20v-83.265c-6.539-.902-13.213-1.379-20-1.379z" fill="#efd176"/></g><g><path d="m246.758 106.158c-6.787 0-13.461.477-20 1.379v39.628c11.621-11.29 25.126-20.648 40-27.56v-12.065c-6.538-.904-13.213-1.382-20-1.382z" fill="#e0bb5f"/></g><g><path d="m493.917 129.635c12.166-29.37 11.819-61.83-.975-91.401-3.782-8.741-14.065-13.003-22.923-9.494-15.276 6.049-28.789 14.924-39.983 26.059-.707-.957-1.473-1.868-2.319-2.715-11.233-11.232-22.113-10.907-29.311-10.686-1.499.045-3.477.105-4.42-.058-.162-.941-.103-2.921-.057-4.42.218-7.199.547-18.078-10.686-29.312-14.068-14.065-41.944-8.608-82.861 16.196-25.66-11.494-52.398-19.045-79.322-22.176-63.349-7.363-120.142 10.489-159.928 50.274-39.787 39.786-57.641 96.583-50.275 159.929 7.29 62.693 38.486 124.401 87.842 173.758 14.619 14.618 30.494 27.767 47.261 39.182-12.519 15.823-21.31 34.499-25.296 54.499-1.604 8.048.471 16.313 5.692 22.677 5.257 6.407 13.022 10.082 21.306 10.082h198.191c8.284 0 16.049-3.675 21.306-10.082 5.221-6.364 7.295-14.629 5.692-22.677-1.076-5.398-2.5-10.698-4.252-15.871 23.621-8.513 44.484-21.455 62.074-38.555 2.97-2.888 3.037-7.636.149-10.606-2.887-2.968-7.635-3.035-10.605-.149-16.184 15.735-35.431 27.624-57.267 35.408-10.468-22.016-27.125-40.938-48.128-54.067-.022-.013-.044-.023-.066-.037-1.135-2.018-2.38-4.008-3.738-5.956 52.065-24.293 88.239-77.136 88.239-138.278 0-84.089-68.411-152.5-152.5-152.5-26 0-50.498 6.547-71.941 18.069-12.326-8.556-26.707-13.069-41.881-13.069h-46.177c-15.164 0-27.5 12.337-27.5 27.5 0 4.143 3.358 7.5 7.5 7.5s7.5-3.357 7.5-7.5c0-6.893 5.607-12.5 12.5-12.5h46.178c9.765 0 19.116 2.347 27.525 6.838-4.705 3.241-9.225 6.732-13.53 10.467-4.492-1.527-9.181-2.305-13.995-2.305h-36.177c-4.142 0-7.5 3.357-7.5 7.5v36.178c0 10.989 4.167 21.536 11.556 29.566-1.65 5.43-3.007 10.986-4.047 16.651-14.088-11.01-22.51-27.929-22.51-46.216v-16.179c0-4.143-3.358-7.5-7.5-7.5s-7.5 3.357-7.5 7.5v16.179c0 25.9 13.451 49.614 35.391 62.955-.254 3.59-.391 7.213-.391 10.867 0 61.162 36.198 114.021 88.291 138.303-1.342 1.932-2.578 3.905-3.701 5.907-.178.093-.356.188-.528.297-8.118 5.114-15.579 11.102-22.285 17.797-16.593-11.139-32.301-24.05-46.73-38.479-96.506-96.509-113.358-236.684-37.567-312.475 36.477-36.478 88.891-52.809 147.589-45.982 59.351 6.901 117.907 36.573 164.883 83.55 86.904 86.903 110.518 212.342 54.927 291.78-2.375 3.394-1.549 8.069 1.845 10.444 3.393 2.373 8.07 1.55 10.445-1.845 28.965-41.392 39.235-95.658 28.919-152.806-4.311-23.878-12.131-47.578-23.03-70.354 16.183-12.422 28.783-28.788 36.601-47.662zm-188.024-2.596c8.903 4.259 17.277 9.45 25 15.443v18.321c0 6.893-5.607 12.5-12.5 12.5s-12.5-5.607-12.5-12.5zm-46.635-12.808v76.571c0 6.893-5.607 12.5-12.5 12.5s-12.5-5.607-12.5-12.5v-76.571c4.119-.373 8.286-.574 12.5-.574s8.381.201 12.5.574zm-96.635 28.25c7.723-5.993 16.097-11.184 25-15.443v33.764c0 6.893-5.607 12.5-12.5 12.5s-12.5-5.607-12.5-12.5zm-58.364 34.854v-28.678h28.678c.327 0 .652.015.977.026-11.002 12.104-20.079 25.985-26.765 41.147-1.875-3.859-2.89-8.123-2.89-12.495zm4.999 73.822c0-36.905 14.619-70.458 38.365-95.181v4.826c0 15.163 12.336 27.5 27.5 27.5s27.5-12.337 27.5-27.5v-39.88c5.403-1.836 10.956-3.343 16.635-4.501v74.381c0 15.163 12.336 27.5 27.5 27.5s27.5-12.337 27.5-27.5v-74.381c5.679 1.157 11.232 2.665 16.635 4.501v39.88c0 15.163 12.336 27.5 27.5 27.5s27.5-12.337 27.5-27.5v-4.826c23.746 24.723 38.365 58.276 38.365 95.181 0 75.817-61.682 137.5-137.5 137.5s-137.5-61.682-137.5-137.5zm137.5 152.5c17.477 0 34.273-2.964 49.923-8.401 12.901 16.28 13.66 35.565 10.238 40.239-1.258 1.718-2.399 2.047-3.444 2.146-5.494.522-14.256-5.784-17.623-8.912-1.958-1.833-4.746-2.481-7.311-1.701-2.566.781-4.52 2.873-5.124 5.486-3.029 13.111-13.524 40.185-26.627 40.185-13.053 0-23.577-27.077-26.627-40.185-.603-2.608-2.555-4.692-5.115-5.477-2.558-.783-5.348-.141-7.309 1.681-3.377 3.138-12.137 9.428-17.634 8.923-1.045-.1-2.187-.429-3.444-2.146-3.376-4.61-2.638-23.945 10.233-40.219 15.632 5.425 32.408 8.381 49.864 8.381zm-76.357 16.814c-1.222 9.805.215 18.502 4.156 23.885 3.547 4.845 8.445 7.688 14.165 8.222 7.173.67 14.43-2.504 19.942-5.886 5.188 15.376 17.004 41.007 38.125 41.007s32.938-25.631 38.125-41.007c5.512 3.381 12.774 6.55 19.942 5.886 5.72-.534 10.618-3.377 14.165-8.222 3.958-5.406 5.416-14.038 4.225-23.769 17.773 16.233 30.161 37.861 34.894 61.614.722 3.624-.217 7.354-2.578 10.23-2.396 2.921-5.936 4.597-9.709 4.597h-198.191c-3.774 0-7.313-1.676-9.709-4.597-2.36-2.877-3.3-6.606-2.578-10.23 4.743-23.796 17.184-45.481 35.026-61.73zm146.233-388.781c27.759-15.534 48.753-20.724 56.003-13.474 6.65 6.649 6.48 12.285 6.299 18.251-.146 4.853-.329 10.891 4.352 15.571 4.681 4.682 10.72 4.498 15.572 4.353 5.966-.182 11.601-.351 18.251 6.3 1.085 1.085 1.876 2.454 2.403 4.137-5.96 7.856-10.947 16.517-14.814 25.854-.686 1.657-1.323 3.336-1.933 5.024-2.597-2.784-5.246-5.531-7.95-8.235-23.642-23.643-50.122-43.105-78.183-57.781zm133.747 131.986c-2.708-4.997-5.565-9.94-8.569-14.821l15.763-38.055c1.585-3.827-.232-8.214-4.059-9.799-3.827-1.589-8.214.232-9.799 4.059l-11.857 28.625c-5.459-7.832-11.3-15.471-17.508-22.878 1.135-4.197 2.536-8.353 4.206-12.385 10.598-25.587 30.835-45.381 56.983-55.735 1.38-.548 3.044.142 3.634 1.505 11.168 25.812 11.481 54.118.883 79.704-6.449 15.57-16.636 29.188-29.677 39.78z"/><path d="m314.258 301.157c0-24.759-13.798-47.682-35.433-59.397-2.337-9.004-14.172-14.457-32.067-14.457s-29.73 5.454-32.067 14.458c-21.641 11.715-35.433 34.621-35.433 59.396 0 37.22 30.28 67.5 67.5 67.5s67.5-30.28 67.5-67.5zm-67.5-58.854c9.682 0 15.817 2.177 17.486 3.565-.374 9.322-8.074 16.789-17.486 16.789s-17.112-7.467-17.486-16.789c1.669-1.389 7.804-3.565 17.486-3.565zm-52.5 58.854c0-17.32 8.667-33.465 22.643-43.175 4.985 11.56 16.49 19.675 29.857 19.675s24.872-8.114 29.857-19.673c13.973 9.711 22.643 25.865 22.643 43.173 0 28.948-23.551 52.5-52.5 52.5s-52.5-23.552-52.5-52.5z"/></g></g></svg>