<svg id="Capa_1" enable-background="new 0 0 512 512" height="512" viewBox="0 0 512 512" width="512" xmlns="http://www.w3.org/2000/svg"><g><g><path d="m300.042 165.481h-96.368l-31.816 202.285h160z" fill="#fff"/></g><g><path d="m203.674 165.481-31.816 202.285h51.575l31.815-202.285z" fill="#fcf2d0"/></g><g><path d="m231.858 27.5h40v137.981h-40z" fill="#efd176"/></g><g><path d="m231.858 27.5h20v137.981h-20z" fill="#e0bb5f"/></g><g><path d="m211.858 27.5c0-11.046 8.954-20 20-20h40c11.046 0 20 8.954 20 20 0 11.046-8.954 20-20 20h-40c-11.046 0-20-8.954-20-20z" fill="#f7ef87"/></g><g><path d="m251.858 27.5c0-11.046 8.954-20 20-20h-40c-11.046 0-20 8.954-20 20 0 11.046 8.954 20 20 20h40c-11.046 0-20-8.954-20-20z" fill="#efd176"/></g><g><path d="m131.858 147.5c0-11.046 8.954-20 20-20h200c11.046 0 20 8.954 20 20 0 11.046-8.954 20-20 20-26.082 0-51.58 7.72-73.282 22.188l-15.624 10.416c-6.718 4.479-15.47 4.479-22.188 0l-15.624-10.416c-21.702-14.468-47.2-22.188-73.282-22.188-11.046 0-20-8.954-20-20z" fill="#f7ef87"/></g><g><path d="m231.922 167.5c-11.046 0-20-8.954-20-20 0-11.046 8.954-20 20-20h-80.064c-11.046 0-20 8.954-20 20 0 11.046 8.954 20 20 20 26.082 0 51.58 7.72 73.282 22.188l15.624 10.416c6.718 4.479 15.47 4.479 22.188 0l15.624-10.416c4.296-2.864 8.745-5.452 13.314-7.78-18.51-9.43-39.049-14.408-59.968-14.408z" fill="#efd176"/></g><g><path d="m464.692 466.586-87.504-71.308c-3.839-3.129-6.844-7.159-8.747-11.732l-13.948-33.526c-6.69-16.08-22.396-26.557-39.812-26.557h-126.667c-17.283 0-32.896 10.319-39.67 26.22l-.517 1.214c-2.68 6.292-7.43 11.479-13.462 14.702l-61.866 33.057c-7.241 3.869-12.579 10.536-14.772 18.447l-17.582 63.438c-3.339 12.047 5.722 23.961 18.223 23.961h392.312c10.319 0 19.515-7.118 21.481-17.248 1.527-7.866-1.438-15.753-7.469-20.668z" fill="#d2996f"/></g><g><path d="m232.053 421.148-53.823-32.981c-8.56-5.245-11.905-16.023-7.819-25.193l17.604-39.511c-17.283 0-32.896 10.319-39.67 26.22l-.517 1.213c-2.68 6.292-7.43 11.478-13.462 14.701l-61.866 33.057c-7.241 3.869-12.579 10.536-14.772 18.447l-17.582 63.438c-3.339 12.047 5.722 23.961 18.223 23.961h183.234v-66.299c0-6.959-3.617-13.417-9.55-17.053z" fill="#c18053"/></g><path d="m469.43 460.771-87.504-71.307c-2.87-2.339-5.138-5.382-6.56-8.8l-13.949-33.526c-5.595-13.449-16.471-23.512-29.65-28.22l-8.409-53.46c-.643-4.092-4.478-6.878-8.574-6.244-4.092.644-6.887 4.482-6.243 8.574l7.581 48.201c-.48-.013-.96-.027-1.442-.027h-55.322v-106.044c2.705-.771 5.324-1.955 7.754-3.575l15.624-10.416c4.289-2.859 8.732-5.419 13.291-7.708l7.735 49.181c.581 3.697 3.771 6.336 7.399 6.336.387 0 .78-.03 1.175-.092 4.092-.644 6.887-4.482 6.243-8.574l-8.324-52.921c13.273-4.705 27.304-7.149 41.602-7.149 15.164 0 27.5-12.337 27.5-27.5s-12.336-27.5-27.5-27.5h-72.5v-66.048c11.528-3.274 20-13.889 20-26.452 0-15.163-12.336-27.5-27.5-27.5h-40c-15.164 0-27.5 12.337-27.5 27.5 0 12.563 8.472 23.178 20 26.452v66.048h-72.5c-15.164 0-27.5 12.337-27.5 27.5s12.336 27.5 27.5 27.5c14.299 0 28.33 2.444 41.603 7.149l-21.454 136.406c-13.521 4.498-24.769 14.59-30.561 28.186l-.518 1.215c-2.003 4.702-5.589 8.618-10.097 11.026l-61.866 33.057c-9.007 4.813-15.737 13.218-18.465 23.06l-4.318 15.581c-1.106 3.991 1.233 8.124 5.224 9.23 3.991 1.103 8.125-1.232 9.231-5.225l4.318-15.581c1.637-5.904 5.675-10.947 11.079-13.835l61.865-33.057c7.513-4.014 13.489-10.54 16.827-18.376l.518-1.215c5.605-13.157 18.468-21.659 32.77-21.659h126.667c14.434 0 27.343 8.611 32.887 21.938l13.949 33.526c2.37 5.696 6.15 10.768 10.934 14.666l87.504 71.307c3.968 3.234 5.824 8.377 4.844 13.424-1.256 6.477-7.194 11.177-14.118 11.177h-392.312c-3.595 0-6.905-1.642-9.082-4.503-2.176-2.862-2.874-6.49-1.914-9.955l5.091-18.367c1.106-3.991-1.232-8.124-5.224-9.23-3.991-1.103-8.125 1.232-9.231 5.225l-5.091 18.367c-2.223 8.02-.608 16.417 4.43 23.041s12.7 10.422 21.021 10.422h392.312c14.091 0 26.221-9.807 28.844-23.318 2.035-10.484-1.833-21.178-10.094-27.911zm-250.072-433.271c0-6.893 5.607-12.5 12.5-12.5h40c6.893 0 12.5 5.607 12.5 12.5s-5.607 12.5-12.5 12.5h-40c-6.892 0-12.5-5.607-12.5-12.5zm45 27.5v65h-25v-65zm-20 260.963h-56.344c-.14 0-.278.007-.417.008l20.093-127.751c4.559 2.289 9.001 4.849 13.29 7.708l15.624 10.416c2.431 1.621 5.05 2.805 7.755 3.575v106.044zm.566-122.1-15.624-10.416c-23.01-15.34-49.789-23.447-77.442-23.447-6.893 0-12.5-5.607-12.5-12.5s5.607-12.5 12.5-12.5h200c6.893 0 12.5 5.607 12.5 12.5s-5.607 12.5-12.5 12.5c-27.653 0-54.432 8.107-77.442 23.447l-15.625 10.416c-4.211 2.809-9.654 2.809-13.867 0z"/><g><g><g><ellipse cx="176.446" cy="430.671" fill="#fff" rx="29.355" ry="23.377"/></g><g><ellipse cx="335.559" cy="430.671" fill="#fff" rx="29.355" ry="23.377"/></g></g><g><path d="m193.554 415.668c-4.142 0-7.5-3.357-7.5-7.5v-12c0-4.143 3.358-7.5 7.5-7.5s7.5 3.357 7.5 7.5v12c0 4.143-3.358 7.5-7.5 7.5z"/></g><g><path d="m318.451 415.668c-4.142 0-7.5-3.357-7.5-7.5v-12c0-4.143 3.358-7.5 7.5-7.5s7.5 3.357 7.5 7.5v12c0 4.143-3.358 7.5-7.5 7.5z"/></g><g><path d="m256.003 422.812c-8.478 0-16.54-3.672-22.119-10.073-2.721-3.123-2.396-7.86.727-10.582 3.123-2.721 7.86-2.396 10.582.727 2.729 3.133 6.669 4.929 10.81 4.929s8.081-1.796 10.81-4.929c2.721-3.123 7.458-3.448 10.582-.727 3.123 2.722 3.448 7.459.727 10.582-5.58 6.401-13.642 10.073-22.119 10.073z"/></g></g></g></svg>