<svg id="Capa_1" enable-background="new 0 0 512.024 512.024" height="512" viewBox="0 0 512.024 512.024" width="512" xmlns="http://www.w3.org/2000/svg"><g><g><path d="m361.548 471.539c-29.214-40.08-65.833-113.227-32.188-200.094l-8.505-184.07c-55.867 20.031-125.64 61.017-171.863 137.197-15.12 24.92-42.333 39.952-71.481 39.952-5.523 0-10 4.477-10 10 0 24.836 41.745 49.776 41.694 50h-51.693c-5.523 0-10 4.477-10 10 0 27.614 22.386 50 50 50h-60c-5.523 0-10 4.477-10 10 0 27.614 22.386 50 50 50h-60c-5.523 0-10 4.477-10 10 0 27.614 22.386 50 50 50h287.265c16.981 0 26.773-19.263 16.771-32.985z" fill="#4e5660"/></g><g><path d="m329.36 271.444-8.505-184.07c-55.867 20.031-125.64 61.017-171.863 137.197-15.12 24.92-42.333 39.952-71.481 39.952-5.523 0-10 4.477-10 10 0 24.836 41.745 49.776 41.694 50h-51.693c-5.523 0-10 4.477-10 10 0 27.614 22.386 50 50 50h-60c-5.523 0-10 4.477-10 10 0 27.614 22.386 50 50 50h-60c-5.523 0-10 4.477-10 10 0 27.614 22.386 50 50 50h168.734c-16.047 0-29.411-12.203-30.998-28.171-9.193-92.507 4.652-164.844 30.796-221.1 4.272 11.267 9.799 22.091 16.541 32.297 17.855 27.028 42.999 48.032 72.714 60.739.263.112.511.246.752.388-.895-23.988 2.736-49.931 13.309-77.232z" fill="#282d35"/></g><g><path d="m249.295 170.696c18.41-7.626 39.516 1.117 47.142 19.527s-1.117 39.516-19.527 47.142-33.466 13.862-62.483 25.881-9.138-74.323 34.868-92.55z" fill="#f7ef87"/></g><g><g><path d="m304.099 101.294v83.034l-205.396-18.86c-11.71-1.075-20.671-10.897-20.671-22.657 0-11.759 8.961-21.581 20.671-22.657z" fill="#efd176"/></g></g><g><path d="m216.74 176.306 87.358 8.021v-83.034l-61.751 5.67c-13.714 20.858-22.47 44.505-25.607 69.343z" fill="#e0bb5f"/></g><g><g><path d="m408.672 78.598-60.476 67.844-182.544-96.026c-10.407-5.475-14.928-17.978-10.428-28.843 4.5-10.864 16.538-16.509 27.768-13.021z" fill="#f7ef87"/></g></g><g><path d="m249.295 170.696c-13.93 5.77-25.438 18.368-33.748 32.508.701 18.932 4.621 37.41 11.563 54.788 21.136-8.755 34.275-14.197 49.799-20.627 18.41-7.626 27.153-28.732 19.527-47.142s-28.731-27.153-47.141-19.527z" fill="#efd176"/></g><g><path d="m310.148 48.019c-17.563 8.27-33.701 19.695-47.651 33.944-4.148 4.237-8.033 8.668-11.666 13.261l97.365 51.218 60.476-67.844z" fill="#efd176"/></g><g><path d="m375.08 72.56c-65.671 2.514-118.453 56.459-119.628 122.167-.935 52.266 30.337 97.337 75.288 116.701 17.161 7.393 28.464 24.064 28.464 42.75v.817c0 40.061 32.043 73.267 72.104 73.564 40.379.299 73.205-32.343 73.205-72.652v-158.901c-.001-70.405-58.423-127.165-129.433-124.446z" fill="#4e5660"/></g><g><path d="m429.884 333.265v-.817c0-18.686-11.303-35.358-28.464-42.75-44.951-19.364-76.222-64.435-75.287-116.701.743-41.561 22.138-78.409 54.377-100.52-1.802-.008-3.61.013-5.429.083-65.671 2.514-118.453 56.459-119.628 122.167-.934 52.266 30.337 97.337 75.287 116.701 17.161 7.393 28.464 24.064 28.464 42.75v.817c0 40.061 32.043 73.267 72.104 73.564 21.519.16 40.889-9.039 54.293-23.766-32.063-7.78-55.717-37.114-55.717-71.528z" fill="#383c43"/></g><g><g><g><ellipse cx="402.505" cy="228.784" fill="#eda1ab" rx="29.355" ry="23.377"/></g></g><g><path d="m419.613 213.781c-4.143 0-7.5-3.357-7.5-7.5v-12c0-4.143 3.357-7.5 7.5-7.5s7.5 3.357 7.5 7.5v12c0 4.142-3.358 7.5-7.5 7.5z"/></g></g><path d="m504.512 265.492c4.143 0 7.5-3.357 7.5-7.5v-60.985c0-36.228-14.379-70.018-40.487-95.146-22.04-21.212-49.949-33.833-79.963-36.405-.131-.049-.259-.102-.394-.144l-205.95-63.922c-15.033-4.675-30.9 2.775-36.922 17.313-6.021 14.537-.062 31.024 13.864 38.35l80.505 42.35-73.73 6.77c-4.125.379-7.162 4.029-6.783 8.154.357 3.892 3.627 6.814 7.46 6.814.229 0 .462-.01.694-.031l96.739-8.883 8.315 4.374c-10.45 13.538-18.095 28.838-22.622 45.111-2.146.528-4.262 1.204-6.314 2.054-4.03 1.669-7.987 3.908-11.822 6.646l-135.214-12.413c-7.899-.726-13.856-7.255-13.856-15.188s5.957-14.462 13.856-15.188l41.043-3.769c4.125-.379 7.162-4.029 6.783-8.154s-4.027-7.172-8.154-6.783l-41.043 3.769c-15.669 1.438-27.485 14.39-27.485 30.125s11.816 28.688 27.485 30.126l74.155 6.809c-10.929 12.836-20.861 26.549-29.591 40.936-13.602 22.417-38.534 36.343-65.068 36.343-9.649 0-17.5 7.851-17.5 17.5 0 15.641 12.145 30.476 26.397 42.5h-28.898c-9.649 0-17.5 7.851-17.5 17.5 0 16.82 7.259 31.976 18.81 42.5h-21.31c-9.649 0-17.5 7.851-17.5 17.5 0 16.82 7.259 31.976 18.81 42.5h-21.31c-9.649 0-17.5 7.851-17.5 17.5 0 31.706 25.794 57.5 57.5 57.5h287.265c10.692 0 20.344-5.918 25.188-15.445 4.846-9.528 3.943-20.816-2.356-29.458-24.552-33.685-51.274-86.566-42.493-150.01.884.404 1.761.818 2.657 1.204 14.537 6.263 23.931 20.34 23.931 35.863v.816c0 44.374 35.685 80.739 79.548 81.064.205.001.408.002.613.002 21.3 0 41.33-8.248 56.459-23.265 15.275-15.163 23.689-35.367 23.689-56.89v-67.915c0-4.143-3.357-7.5-7.5-7.5s-7.5 3.357-7.5 7.5v67.915c0 17.495-6.839 33.918-19.256 46.243-12.415 12.323-28.916 19.042-46.394 18.909-35.653-.264-64.659-29.9-64.659-66.064v-.816c0-21.52-12.952-41.004-32.996-49.639-43.837-18.885-71.61-61.937-70.757-109.68 1.108-62.006 50.487-112.435 112.416-114.806 32.15-1.214 62.624 10.351 85.756 32.614 23.144 22.274 35.89 52.226 35.89 84.338v60.985c-.001 4.144 3.356 7.502 7.499 7.502zm-255.36-86.457c-.703 5.128-1.106 10.321-1.2 15.557-.272 15.226 2.041 30.027 6.61 43.911l-43.006 17.814c-1.009.418-1.686.544-2.027.568-.754-1.136-2.342-6.16-.127-17.488 4.333-22.152 19.558-50.018 39.75-60.362zm61.923 130.634c-11.793 70.772 17.517 129.388 44.412 166.287 3.001 4.117 3.415 9.285 1.107 13.823-2.307 4.536-6.726 7.244-11.818 7.244h-287.264c-23.435 0-42.5-19.065-42.5-42.5 0-1.379 1.121-2.5 2.5-2.5h60c4.143 0 7.5-3.357 7.5-7.5s-3.357-7.5-7.5-7.5c-23.435 0-42.5-19.065-42.5-42.5 0-1.379 1.121-2.5 2.5-2.5h60c4.143 0 7.5-3.357 7.5-7.5s-3.357-7.5-7.5-7.5c-23.435 0-42.5-19.065-42.5-42.5 0-1.379 1.121-2.5 2.5-2.5h51.694c3.502 0 6.538-2.424 7.313-5.839 1.156-5.09-2.86-7.732-4.181-8.602-23.373-15.379-37.327-31.476-37.327-43.06 0-1.379 1.121-2.5 2.5-2.5 31.742 0 61.589-16.691 77.893-43.562 10.164-16.751 22.034-32.548 35.273-47.018l29.202 2.681c-6.34 7.451-11.995 16.382-16.615 26.419-9.341 20.293-12.443 40.486-7.904 51.443 2.652 6.404 7.812 9.873 14.052 9.873 2.487 0 5.146-.551 7.886-1.687l42.768-17.715c10.811 23.445 28.413 43.438 51.009 57.213zm-25.355-204.97c-.087.089-.17.18-.257.269l-116.319-61.19c-7.021-3.693-10.025-12.005-6.99-19.334 3.036-7.331 11.04-11.085 18.616-8.729l169.514 52.613c-24.327 5.61-46.677 18.1-64.564 36.371z"/></g></svg>