<svg id="Capa_1" enable-background="new 0 0 512 512" height="512" viewBox="0 0 512 512" width="512" xmlns="http://www.w3.org/2000/svg"><g><g><ellipse cx="256" cy="256" fill="#efd176" rx="210" ry="248.5"/></g><g><g><path d="m374.536 256.009c0-45.905 17.911-85.867 51.797-115.564 25.234-22.115 50.767-30.775 51.842-31.133 10.48-3.489 21.805 2.177 25.294 12.657 3.483 10.449-2.15 21.75-12.583 25.27-.516.18-20.171 7.128-39.236 24.217-24.627 22.073-37.114 50.521-37.114 84.554 0 82.393 75.514 108.492 76.276 108.746 10.48 3.49 16.147 14.809 12.657 25.295-3.49 10.479-14.814 16.146-25.294 12.656-1.075-.357-26.608-9.019-51.842-31.133-33.886-29.698-51.797-69.659-51.797-115.565z" fill="#f7ef87"/></g></g><g><path d="m236 484.5c0-11.046 8.954-20 20-20v-417c-11.046 0-20-8.954-20-20s8.954-20 20-20c-115.98 0-210 111.257-210 248.5s94.02 248.5 210 248.5c-11.046 0-20-8.954-20-20z" fill="#e0bb5f"/></g><g><g><path d="m137.464 256.01c0 45.905-17.911 85.867-51.797 115.564-25.234 22.116-50.767 30.776-51.842 31.133-10.48 3.489-21.805-2.177-25.294-12.657-3.483-10.449 2.15-21.75 12.583-25.27.516-.18 20.171-7.128 39.236-24.217 24.627-22.073 37.114-50.521 37.114-84.554 0-82.393-75.514-108.492-76.276-108.746-10.48-3.49-16.147-14.809-12.657-25.295 3.49-10.479 14.814-16.146 25.294-12.656 1.075.357 26.608 9.019 51.842 31.133 33.886 29.699 51.797 69.66 51.797 115.565z" fill="#f7ef87"/></g></g><g><ellipse cx="256" cy="256" fill="#a3defe" rx="170" ry="208.5"/></g><g><path d="m160.113 256c0-87.365 38.106-164.188 95.716-208.497-93.66.113-169.829 93.599-169.829 208.497s76.169 208.384 169.829 208.497c-57.61-44.309-95.716-121.132-95.716-208.497z" fill="#7acefa"/></g><g><path d="m486 47.5c0-11.046-8.954-20-20-20h-63.562-.121c-20.662 0-40.007 10.082-51.871 26.999-15.561 22.189-44.936 49.989-94.447 49.989-34.032 0-62.48-12.487-84.554-37.114-3.607-4.024-6.796-8.167-9.58-12.189-11.917-17.222-31.36-27.685-52.303-27.685h-63.562c-11.046 0-20 8.954-20 20 0 11.046 8.954 20 20 20h65.385c6.49 0 12.576 3.188 16.22 8.559 3.647 5.376 7.905 11.011 12.831 16.631 29.697 33.886 69.659 51.797 115.564 51.797s85.866-17.911 115.564-51.797c4.925-5.62 9.183-11.255 12.83-16.631 3.644-5.371 9.73-8.559 16.22-8.559h65.386c11.046 0 20-8.954 20-20z" fill="#f7ef87"/></g><g><path d="m313.016 114.027c-5.592-8.32-4.262-19.249 2.636-26.03-15.433 9.626-35.055 16.49-59.652 16.49-22.003 0-41.669-5.228-58.79-15.573 6.128 6.819 7.121 17.157 1.773 25.113-5.671 8.438-16.514 11.289-25.472 7.214 24.015 15.3 51.932 23.246 82.488 23.246 30.555 0 58.472-7.946 82.487-23.246-8.957 4.074-19.799 1.223-25.47-7.214z" fill="#efd176"/></g><g><circle cx="256" cy="124.487" fill="#f7ef87" r="40"/></g><g><path d="m25.993 464.481c-.001 11.046 8.953 20.001 19.998 20.002l63.562.005h.121c20.662.002 40.008-10.079 51.873-26.994 15.563-22.188 44.941-49.985 94.451-49.981 34.032.003 62.479 12.492 84.551 37.121 3.607 4.025 6.796 8.167 9.579 12.189 11.917 17.223 31.359 27.687 52.302 27.689l63.562.005c11.046.001 20.001-8.953 20.002-19.998.001-11.046-8.953-20.001-19.998-20.002l-65.385-.005c-6.49-.001-12.576-3.189-16.219-8.561-3.647-5.376-7.904-11.012-12.829-16.632-29.694-33.888-69.655-51.803-115.56-51.807s-85.868 17.904-115.569 51.787c-4.926 5.62-9.184 11.254-12.832 16.63-3.644 5.371-9.731 8.558-16.221 8.558l-65.385-.005c-11.047 0-20.002 8.953-20.003 19.999z" fill="#f7ef87"/></g><g><path d="m198.988 397.968c5.591 8.32 4.261 19.249-2.638 26.03 15.433-9.624 35.057-16.487 59.653-16.485 22.003.002 41.668 5.231 58.789 15.578-6.128-6.82-7.119-17.157-1.771-25.113 5.672-8.437 16.514-11.287 25.472-7.212-24.014-15.302-51.93-23.251-82.486-23.253-30.555-.003-58.473 7.941-82.489 23.239 8.959-4.073 19.8-1.221 25.47 7.216z" fill="#efd176"/></g><g><circle cx="255.999" cy="387.513" fill="#f7ef87" r="40"/></g><g><g><g><ellipse cx="172.932" cy="259.219" fill="#eda1ab" rx="30.65" ry="24.408"/></g><g><ellipse cx="339.068" cy="259.062" fill="#eda1ab" rx="30.65" ry="24.408"/></g></g><g><path d="m190.758 240.867c-6.252 0-12.196-2.703-16.313-7.419-2.724-3.121-2.402-7.858.718-10.583 3.121-2.722 7.858-2.401 10.583.718 1.267 1.452 3.094 2.284 5.013 2.284h.006c1.921-.002 3.749-.838 5.016-2.293 2.719-3.126 7.457-3.456 10.58-.736 3.126 2.718 3.455 7.455.736 10.58-4.112 4.729-10.061 7.443-16.318 7.449-.009 0-.015 0-.021 0z"/></g><g><path d="m321.168 240.744c-6.253 0-12.198-2.704-16.313-7.42-2.724-3.121-2.401-7.859.719-10.582 3.121-2.724 7.859-2.402 10.582.719 1.267 1.451 3.094 2.283 5.013 2.283h.006c1.92-.002 3.748-.838 5.015-2.293 2.719-3.126 7.457-3.455 10.58-.736 3.126 2.718 3.455 7.455.736 10.58-4.112 4.729-10.06 7.443-16.317 7.449-.008 0-.015 0-.021 0z"/></g><g><path d="m256 252.391c-8.478 0-16.54-3.672-22.118-10.074-2.722-3.122-2.396-7.86.728-10.581 3.122-2.721 7.86-2.396 10.581.728 2.729 3.132 6.669 4.928 10.81 4.928s8.08-1.796 10.81-4.928c2.721-3.125 7.458-3.449 10.581-.728s3.449 7.459.728 10.581c-5.58 6.402-13.642 10.074-22.12 10.074z"/></g></g><path d="m493.219 357.652c-.258-.088-15.303-5.399-31.474-18.434 7.794-26.712 11.755-54.686 11.755-83.218 0-28.537-3.966-56.529-11.767-83.255 16.15-12.913 31.448-18.363 31.552-18.399 14.316-4.83 22.078-20.418 17.302-34.746-4.791-14.386-20.393-22.195-34.779-17.403-.855.285-16.419 5.562-35.346 18.083-8.729-16.415-18.979-31.584-30.614-45.279h56.152c15.163 0 27.5-12.337 27.5-27.5s-12.337-27.501-27.5-27.501h-63.682c-14.516 0-28.484 4.473-40.151 12.499-32.291-21.274-68.908-32.499-106.167-32.499-37.317 0-73.967 11.255-106.294 32.586-11.703-8.086-25.659-12.586-40.144-12.586h-63.562c-15.163 0-27.5 12.337-27.5 27.5s12.337 27.5 27.5 27.5h56.152c-11.635 13.695-21.883 28.863-30.613 45.279-18.928-12.521-34.49-17.798-35.344-18.083-14.388-4.789-29.989 3.017-34.781 17.404-4.788 14.387 3.019 29.988 17.369 34.767.258.089 15.296 5.396 31.463 18.425-6.383 21.888-10.209 44.735-11.367 67.975-.207 4.137 2.979 7.657 7.117 7.863.127.007.253.01.379.01 3.971 0 7.285-3.117 7.484-7.127.972-19.485 3.919-38.67 8.762-57.188 7.353 7.948 14.2 17.692 19.178 29.49.031.074.075.138.108.21-2.24 13.72-3.407 27.769-3.407 41.975 0 14.287 1.179 28.411 3.441 42.198-4.501 10.76-10.974 20.681-19.287 29.605-4.851-18.512-7.807-37.693-8.787-57.18-.208-4.137-3.742-7.313-7.867-7.113-4.137.208-7.322 3.73-7.113 7.867 1.168 23.218 4.994 46.038 11.377 67.901-16.148 12.91-31.443 18.359-31.547 18.396-14.316 4.83-22.078 20.418-17.302 34.746 3.835 11.515 14.595 18.813 26.114 18.813 2.872 0 5.794-.454 8.665-1.41.856-.285 16.423-5.563 35.354-18.088 8.727 16.409 18.973 31.565 30.601 45.252l-56.152-.005c-.001 0-.002 0-.003 0-15.162 0-27.499 12.335-27.5 27.497-.001 15.164 12.334 27.502 27.497 27.503l63.683.005h.007c14.511 0 28.475-4.471 40.139-12.492 32.29 21.278 68.923 32.505 106.18 32.505 37.307 0 73.964-11.252 106.285-32.577 11.702 8.087 25.658 12.589 40.143 12.59l63.562.005h.003c7.345 0 14.25-2.859 19.443-8.053 5.195-5.193 8.056-12.099 8.057-19.444.001-15.164-12.334-27.502-27.497-27.503l-56.161-.005c11.637-13.696 21.888-28.862 30.619-45.277 18.931 12.525 34.497 17.802 35.351 18.087 2.873.956 5.794 1.411 8.668 1.41 11.519 0 22.278-7.3 26.113-18.814 4.788-14.387-3.019-29.988-17.367-34.767zm-67.217-94.165c-4.138-.249-7.683 2.917-7.923 7.052-2.968 51.06-21.233 97.845-51.616 132.674-19.561-18.624-42.539-31.391-68.516-38.031-2.185-4.091-4.986-7.882-8.358-11.254-8.971-8.972-20.898-13.914-33.586-13.915-.002 0-.003 0-.005 0-12.686 0-24.613 4.939-33.585 13.909-3.372 3.372-6.175 7.163-8.36 11.254-25.976 6.634-48.956 19.398-68.521 38.019-33.14-38.072-52.032-91.265-52.032-147.195 0-55.892 18.901-109.134 52.036-147.203 19.577 18.636 42.57 31.399 68.561 38.03 8.007 14.958 23.784 25.16 41.904 25.16 18.119 0 33.896-10.202 41.903-25.159 25.992-6.63 48.985-19.395 68.563-38.033 30.372 34.839 48.648 81.676 51.613 132.666.231 3.986 3.537 7.064 7.48 7.064.146 0 .294-.004.442-.013 4.135-.24 7.292-3.787 7.052-7.923-.534-9.183-1.544-18.24-3-27.137.252-.372.485-.763.672-1.19 4.459-10.16 10.712-19.56 18.63-28.057 6.07 23.155 9.145 47.257 9.145 71.794 0 24.509-3.07 48.572-9.123 71.694-7.306-7.897-14.112-17.567-19.081-29.261-.048-.114-.107-.22-.16-.33 1.414-8.751 2.393-17.66 2.918-26.692.239-4.136-2.918-7.682-7.053-7.923zm-137.503 124.03c0 8.681-3.382 16.841-9.521 22.979-6.139 6.137-14.298 9.517-22.979 9.517-.001 0-.003 0-.003 0-17.92-.002-32.499-14.582-32.498-32.502.002-17.921 14.582-32.5 32.503-32.498 8.682.001 16.843 3.382 22.98 9.521 6.139 6.139 9.519 14.301 9.518 22.983zm-32.504 47.496h.005c12.686 0 24.613-4.939 33.584-13.909.299-.299.582-.61.872-.916 12.122 3.92 23.234 10.118 33.205 18.494-21.116 12-44.328 18.318-67.661 18.318-23.214 0-46.318-6.257-67.348-18.141 8.875-7.41 19.81-14.15 33.052-18.533 8.652 9.039 20.821 14.686 34.291 14.687zm-32.495-310.526c0-17.921 14.579-32.5 32.5-32.5s32.5 14.579 32.5 32.5-14.579 32.5-32.5 32.5-32.5-14.579-32.5-32.5zm32.5-47.5c-13.545 0-25.775 5.708-34.436 14.834-12.134-3.921-23.254-10.117-33.231-18.497 21.115-12.001 44.335-18.324 67.667-18.324 23.569 0 46.181 6.106 67.348 18.131-8.878 7.414-19.817 14.15-33.06 18.536-8.652-9.036-20.82-14.68-34.288-14.68zm224.544 39.442c6.538-2.176 13.633 1.371 15.811 7.913 2.171 6.512-1.357 13.596-7.936 15.815-.875.305-21.644 7.669-41.774 25.714-8.436 7.56-15.577 15.908-21.366 24.934-2.583-9.969-5.757-19.67-9.497-29.041 4.699-5.51 9.898-10.773 15.494-15.678 24.121-21.14 48.251-29.319 49.268-29.657zm-59.154 18.376c-4.306 3.774-8.398 7.748-12.244 11.874-8.638-17.85-19.45-34.256-32.229-48.727.095-.108.194-.21.289-.318 4.745-5.414 9.252-11.257 13.396-17.364.558-.822 1.209-1.561 1.934-2.208 13.832 15.038 25.8 32.191 35.654 51.093-2.26 1.784-4.532 3.662-6.8 5.65zm44.61-99.805c6.893 0 12.5 5.607 12.5 12.5s-5.607 12.5-12.5 12.5h-65.385c-9.01 0-17.395 4.43-22.427 11.849-3.798 5.598-7.925 10.946-12.265 15.898-17.535 20.008-38.593 34.08-62.716 41.952.188-1.713.292-3.45.292-5.212 0-7.146-1.596-13.924-4.436-20.01 28.279-10.562 46.744-30.303 57.523-45.673 10.455-14.906 27.551-23.804 45.732-23.804zm-115.658 7.731c-2.162 2.333-4.184 4.819-6.036 7.46-2.686 3.83-5.912 7.966-9.708 12.139-24.289-14.621-51.353-22.33-78.598-22.33-27.346 0-54.5 7.764-78.858 22.486-.036-.041-.074-.079-.11-.119-3.123-3.483-6.15-7.336-8.998-11.45-1.991-2.877-4.173-5.577-6.514-8.097 28.983-18.223 61.471-27.82 94.48-27.82 32.948 0 65.397 9.568 94.342 27.731zm-316.842 4.769c0-6.893 5.607-12.5 12.5-12.5h63.563c18.293 0 35.54 9.142 46.137 24.453 3.204 4.628 6.623 8.978 10.162 12.926 13.41 14.962 29.186 25.793 46.983 32.3-2.781 6.034-4.344 12.74-4.344 19.809 0 1.761.104 3.498.292 5.211-24.122-7.871-45.181-21.943-62.716-41.951-4.343-4.955-8.47-10.304-12.265-15.897-5.034-7.421-13.417-11.851-22.427-11.851h-65.385c-6.893 0-12.5-5.607-12.5-12.5zm85.963 30.561c.726.647 1.378 1.387 1.936 2.209 4.141 6.104 8.648 11.945 13.396 17.363.095.108.193.209.288.317-12.721 14.424-23.516 30.892-32.155 48.805-3.867-4.155-7.985-8.154-12.318-11.951-2.268-1.988-4.539-3.864-6.799-5.648 9.854-18.902 21.818-36.056 35.652-51.095zm-95.905 62.086c-6.539-2.177-10.088-9.27-7.911-15.809s9.271-10.086 15.811-7.91c1.016.338 25.144 8.517 49.267 29.657 5.624 4.929 10.85 10.221 15.569 15.763-3.764 9.444-6.948 19.22-9.549 29.24-23.856-37.437-62.742-50.791-63.187-50.941zm7.898 255.444c-6.538 2.176-13.633-1.371-15.811-7.913-2.171-6.512 1.357-13.596 7.936-15.815.875-.305 21.644-7.669 41.774-25.714 8.469-7.591 15.636-15.966 21.436-25.03 2.592 9.954 5.762 19.665 9.503 29.048-4.718 5.541-9.943 10.835-15.571 15.767-24.12 21.139-48.25 29.319-49.267 29.657zm59.154-18.376c4.335-3.801 8.454-7.801 12.322-11.957 8.637 17.902 19.432 34.355 32.151 48.778-.096.109-.195.211-.291.321-4.748 5.418-9.256 11.259-13.398 17.363-.557.822-1.209 1.561-1.934 2.208-13.826-15.032-25.788-32.171-35.641-51.069 2.256-1.783 4.525-3.658 6.791-5.644zm19.069 99.772c-.001 0-.004 0-.005 0l-63.682-.005c-3.339 0-6.479-1.301-8.839-3.662s-3.66-5.5-3.66-8.839 1.301-6.479 3.662-8.839c2.36-2.36 5.499-3.66 8.838-3.66h.001l65.386.006c9.011 0 17.395-4.43 22.427-11.847 3.796-5.594 7.923-10.943 12.266-15.897 17.533-20.001 38.594-34.077 62.718-41.95-.187 1.72-.291 3.459-.291 5.214v.001c0 7.147 1.596 13.924 4.435 20.01-28.3 10.567-46.771 30.331-57.528 45.666-10.455 14.906-27.547 23.802-45.728 23.802zm51.967-7.723c2.163-2.334 4.187-4.822 6.04-7.464 2.682-3.823 5.908-7.958 9.705-12.132 24.294 14.624 51.357 22.332 78.609 22.332 27.349 0 54.494-7.755 78.856-22.478.035.04.072.077.108.117 3.122 3.485 6.148 7.338 8.995 11.452 1.991 2.877 4.172 5.577 6.513 8.097-28.979 18.217-61.472 27.812-94.472 27.812-32.946 0-65.408-9.57-94.354-27.736zm316.847-4.745c0 3.339-1.301 6.479-3.662 8.839-2.36 2.36-5.499 3.66-8.838 3.66-.001 0-.001 0-.001 0l-63.562-.005c-18.294-.002-35.541-9.145-46.136-24.457-3.203-4.628-6.621-8.978-10.161-12.928-13.4-14.953-29.166-25.791-46.948-32.3 2.819-6.136 4.313-12.857 4.313-19.811 0-1.756-.104-3.495-.291-5.215 24.125 7.876 45.183 21.955 62.711 41.959 4.347 4.96 8.473 10.31 12.264 15.899 5.033 7.421 13.417 11.851 22.426 11.851l65.385.006c6.894.002 12.501 5.609 12.5 12.502zm-85.965-30.574c-.724-.646-1.374-1.384-1.931-2.204-4.137-6.1-8.644-11.941-13.396-17.364-.097-.111-.199-.216-.297-.327 12.785-14.469 23.598-30.863 32.237-48.707 3.845 4.125 7.941 8.097 12.248 11.872 2.265 1.985 4.534 3.86 6.791 5.642-9.853 18.898-21.817 36.05-35.652 51.088zm103.826-46.264c-2.178 6.539-9.274 10.086-15.812 7.91-1.016-.338-25.144-8.517-49.267-29.657-5.596-4.904-10.795-10.168-15.491-15.674 3.761-9.426 6.95-19.187 9.542-29.222 23.854 37.335 62.668 50.684 63.115 50.834 6.54 2.177 10.089 9.27 7.913 15.809z"/></g></svg>