<svg id="Capa_1" enable-background="new 0 0 512 512" height="512" viewBox="0 0 512 512" width="512" xmlns="http://www.w3.org/2000/svg"><g><g><g><path d="m384.499 317.283c-.022 30.435-24.699 55.1-55.139 55.1h-140.583v114.117h140.723c63.513 0 115-51.487 115-115v-54.217z" fill="#5ec783"/></g></g><g><path d="m484.5 150.121c-38.66 0-70 31.34-70 70 0-38.66-31.34-70-70-70-11.046 0-20 8.954-20 20v70c0 49.706 40.294 90 90 90 49.706 0 90-40.294 90-90v-70c0-11.046-8.954-20-20-20z" fill="#89d47f"/></g><g><path d="m333.954 233.131c0 26.67 18.019 26.67 18.019 53.34 0 26.671-18.019 26.671-18.019 53.341 0 26.672 18.019 26.672 18.019 53.344 0 .953-.023 1.871-.067 2.758-1.422 28.458-25.377 50.586-53.871 50.586h-218.648c-28.494 0-52.449-22.127-53.871-50.586-.044-.887-.067-1.806-.067-2.758 0-26.672 18.019-26.672 18.019-53.344 0-26.671-18.019-26.671-18.019-53.341s18.019-26.67 18.019-53.34z" fill="#efd176"/></g><g><path d="m308.133 466.5c-9.534-57.349-59.367-101.075-119.421-101.075s-109.887 43.725-119.422 101.075z" fill="#ffbf9e"/></g><g><path d="m143.455 466.5c-6.482-44.767 22.569-88.41 70.25-98.47-8.065-1.705-16.426-2.605-24.993-2.605-59.933 0-109.846 43.816-119.412 101.075z" fill="#f7ab8b"/></g><g><path d="m228.777 406.5h-80c-22.091 0-40 17.909-40 40 0 22.091 17.909 40 40 40h80c22.091 0 40-17.909 40-40 0-22.091-17.909-40-40-40z" fill="#e8899e"/></g><g><path d="m188.357 446.5c0-22.091 17.908-40 40-40h-79.58c-22.091 0-40 17.909-40 40 0 22.091 17.909 40 40 40h79.58c-22.092 0-40-17.909-40-40z" fill="#e26e7e"/></g><g><g><path d="m188.712 25.5c-88.366 0-160 71.634-160 160v15.245h320v-15.245c-.001-88.366-71.635-160-160-160z" fill="#f7ef87"/></g></g><g><path d="m218.711 28.32c-9.719-1.844-19.745-2.82-30-2.82-88.365 0-160 71.634-160 160v15.245h60v-15.245c0-78.11 55.977-143.136 130-157.18z" fill="#efd176"/></g><g><g><circle cx="333.839" cy="233.131" fill="#ffbf9e" r="36.081"/></g></g><g><g><circle cx="43.581" cy="233.131" fill="#f7ab8b" r="36.081"/></g></g><g><path d="m108.777 142.636c-43.661 9.683-60.613 54.714-60.613 54.714-2.905 11.445-4.453 23.43-4.453 35.779 0 80.081 64.919 145 145 145s145-64.919 145-145c0-12.348-1.548-24.334-4.453-35.779-114.24-.001-176.82-64.397-220.481-54.714z" fill="#ffd4be"/></g><g><path d="m93.711 233.128c0-34.447 12.016-66.084 32.081-90.958-5.997-.79-11.65-.724-17.015.466-43.661 9.683-60.613 54.714-60.613 54.714-2.905 11.445-4.453 23.43-4.453 35.779 0 80.081 64.919 145 145 145 8.526 0 16.878-.743 25-2.154-68.166-11.849-120-71.291-120-142.847z" fill="#ffbf9e"/></g><g><path d="m148.777 486.5h-80c-11.046 0-20-8.954-20-20 0-11.046 8.954-20 20-20h79.999c11.046 0 20 8.954 20 20 .001 11.046-8.953 20-19.999 20z" fill="#ffd4be"/></g><g><path d="m308.356 486.5h-79.999c-11.046 0-20-8.954-20-20 0-11.046 8.954-20 20-20h79.999c11.046 0 20 8.954 20 20 0 11.046-8.954 20-20 20z" fill="#ffd4be"/></g><g><g><g><ellipse cx="105.644" cy="281.09" fill="#eda1ab" rx="30.65" ry="24.408"/></g><g><ellipse cx="271.779" cy="280.934" fill="#eda1ab" rx="30.65" ry="24.408"/></g></g><g><path d="m123.47 262.739c-6.25 0-12.194-2.703-16.313-7.418-2.725-3.12-2.403-7.858.716-10.583 3.119-2.724 7.857-2.402 10.583.716 1.268 1.452 3.095 2.285 5.014 2.285h.006c1.92-.002 3.748-.838 5.016-2.295 2.719-3.124 7.456-3.454 10.581-.735s3.454 7.455.735 10.581c-4.113 4.729-10.062 7.443-16.318 7.449-.008 0-.014 0-.02 0z"/></g><g><path d="m253.879 262.616c-6.25 0-12.194-2.703-16.313-7.418-2.725-3.12-2.403-7.858.716-10.583 3.119-2.724 7.857-2.403 10.583.716 1.268 1.452 3.095 2.285 5.014 2.285h.006c1.921-.002 3.748-.838 5.015-2.294 2.718-3.125 7.456-3.454 10.581-.737 3.125 2.718 3.456 7.455.737 10.581-4.112 4.729-10.061 7.444-16.319 7.45-.007 0-.014 0-.02 0z"/></g><g><path d="m188.711 274.262c-8.479 0-16.54-3.671-22.118-10.073-2.722-3.122-2.396-7.86.728-10.581 3.122-2.722 7.86-2.396 10.581.728 2.729 3.131 6.669 4.927 10.81 4.927 4.142 0 8.082-1.796 10.811-4.927 2.72-3.124 7.459-3.449 10.581-.728 3.123 2.721 3.449 7.459.728 10.581-5.58 6.402-13.642 10.073-22.121 10.073z"/></g></g><path d="m484.5 142.621c-30.824 0-57.502 18.086-69.979 44.206-3.651-7.668-8.59-14.754-14.701-20.983-13.203-13.455-30.51-21.499-49.139-22.964-6.163-23.403-17.351-45.383-32.947-64.201-2.645-3.189-7.373-3.631-10.561-.988-3.189 2.644-3.632 7.371-.988 10.561 22.587 27.252 35.026 61.789 35.026 97.249v4.686c-2.398-.411-4.859-.636-7.373-.636-1.501 0-3.014.077-4.496.229-.147.015-.29.044-.434.067-63.151-.075-109.818-20.171-147.327-36.328-29.721-12.802-53.195-22.914-74.429-18.205-38.432 8.524-57.6 41.371-63.756 54.241-2.448.01-4.847.231-7.186.631v-4.686c0-84.089 68.411-152.5 152.5-152.5 35.46 0 69.996 12.438 97.248 35.025 3.19 2.643 7.917 2.2 10.561-.988 2.644-3.189 2.2-7.917-.988-10.561-29.936-24.811-67.873-38.476-106.82-38.476-92.359 0-167.499 75.141-167.499 167.5v10.246c-12.696 7.626-21.212 21.528-21.212 37.385 0 15.555 8.198 29.225 20.494 36.938-1.714 5.004-2.545 10.34-2.545 16.402 0 15.632 5.47 23.728 10.295 30.87 4.316 6.387 7.725 11.432 7.725 22.471 0 11.04-3.409 16.085-7.725 22.474-4.825 7.143-10.295 15.238-10.295 30.871 0 1.051.025 2.104.077 3.132 1.083 21.675 13.556 40.39 31.849 50.266-5.289 5.015-8.598 12.099-8.598 19.946 0 15.163 12.337 27.5 27.5 27.5h260.723c67.547 0 122.5-54.953 122.5-122.5v-41.383c35.201-14.723 60-49.516 60-89.996v-70c0-15.164-12.337-27.501-27.5-27.501zm-136.208 218.346c-3.886-5.802-6.837-10.885-6.837-21.156 0-11.039 3.408-16.084 7.725-22.471.67-.991 1.351-2.005 2.03-3.051 7.353 6.301 15.494 11.403 24.194 15.211-3.74 13.971-13.827 25.686-27.112 31.467zm-3.818-74.496c0 11.039-3.409 16.085-7.725 22.473-4.825 7.142-10.295 15.237-10.295 30.868 0 15.632 5.47 23.728 10.295 30.87 4.315 6.389 7.725 11.434 7.725 22.475 0 .805-.02 1.607-.058 2.384-1.031 20.625-16.439 38.104-36.621 42.424-4.489-11.01-10.482-21.333-17.863-30.745-2.557-3.26-7.27-3.83-10.529-1.273-3.26 2.556-3.83 7.271-1.273 10.529 5.474 6.98 10.074 14.53 13.759 22.524h-16.208c-1.586-10.03-6.327-19.265-13.71-26.478-8.925-8.72-20.712-13.521-33.191-13.521h-80c-12.479 0-24.267 4.802-33.191 13.521-7.385 7.214-12.125 16.449-13.711 26.479h-16.357c12.427-27.043 34.931-48.133 63.012-58.753 12.807 3.502 26.277 5.382 40.179 5.382 13.898 0 27.364-1.88 40.168-5.379 10.501 3.972 20.347 9.468 29.27 16.372 1.366 1.057 2.981 1.568 4.585 1.568 2.241 0 4.458-1 5.937-2.91 2.535-3.275 1.935-7.986-1.342-10.521-5.703-4.413-11.747-8.304-18.062-11.682 40.98-17.8 72.667-53.086 85.596-96.39 2.788-.065 5.512-.387 8.148-.954.988 3.199 1.462 6.689 1.462 10.737zm-36.119 192.529h-79.999c-6.893 0-12.5-5.607-12.5-12.5 0-6.894 5.607-12.501 12.5-12.501h79.999c6.894 0 12.501 5.607 12.501 12.501 0 6.893-5.607 12.5-12.501 12.5zm30.236-217.691c1.714-9.137 2.621-18.555 2.621-28.181 0-9.473-.877-18.912-2.607-28.173 13.498 2.276 23.815 14.041 23.815 28.176 0 14.14-10.324 25.908-23.829 28.178zm-228.19-111.351c16.495-3.661 38.012 5.606 65.247 17.337 37.671 16.227 84.272 36.3 147.637 37.498 1.943 9.283 2.927 18.788 2.927 28.335 0 75.817-61.683 137.5-137.5 137.5s-137.5-61.683-137.5-137.5c0-11.314 1.381-22.571 4.104-33.465 1.642-4 17.957-41.471 55.085-49.705zm-71.582 54.996c-1.73 9.26-2.607 18.699-2.607 28.174 0 9.627.907 19.045 2.621 28.182-13.507-2.269-23.833-14.037-23.833-28.179 0-14.137 10.319-25.902 23.819-28.177zm-5.811 190.589c-.039-.779-.059-1.582-.059-2.387 0-11.041 3.409-16.086 7.725-22.475 4.825-7.143 10.295-15.238 10.295-30.87 0-15.631-5.47-23.727-10.295-30.868-4.315-6.388-7.725-11.434-7.725-22.473 0-4.591.623-8.044 1.454-10.74 2.639.568 5.366.89 8.157.955 12.925 43.289 44.594 78.565 85.553 96.371-26.4 14.078-47.094 36.938-58.485 64.924-20.434-4.296-35.576-21.553-36.62-42.437zm115.768 83.457h-79.999c-6.893 0-12.5-5.607-12.5-12.5s5.607-12.501 12.5-12.501h79.999c6.893 0 12.501 5.608 12.501 12.501s-5.608 12.5-12.501 12.5zm0-40.001h-31.609c3.431-14.27 16.42-24.999 31.61-24.999h80c15.189 0 28.178 10.729 31.609 24.999h-32.03c-15.163 0-27.5 12.337-27.5 27.501 0 4.5 1.094 8.747 3.018 12.5h-30.606c1.923-3.752 3.009-8.002 3.009-12.5 0-15.164-12.337-27.501-27.501-27.501zm288.224-67.499c0 58.148-46.409 105.656-104.132 107.442 1.906-3.739 2.988-7.965 2.988-12.442 0-7.814-3.281-14.871-8.531-19.883 5.58-3.001 10.71-6.857 15.166-11.47 10.176-10.533 16.18-24.334 16.906-38.862.051-1.025.076-2.078.076-3.129 0-8.122-1.482-14.199-3.578-19.176 16.313-7.676 28.719-22.235 33.693-39.55 8.024 2.102 16.377 3.191 24.911 3.191 7.742 0 15.274-.912 22.5-2.625v36.504zm60-131.379c0 45.49-37.01 82.5-82.5 82.5-21.32 0-41.313-8.002-56.691-22.583 1.023-3.83 1.665-8.256 1.665-13.567 0-6.109-.825-11.418-2.54-16.407 12.292-7.714 20.486-21.381 20.486-36.933 0-15.855-8.514-29.756-21.208-37.382v-10.249c0-9.132-.761-18.206-2.231-27.136 29.89 4.623 53.019 30.763 53.019 61.757 0 4.143 3.357 7.5 7.5 7.5s7.5-3.357 7.5-7.5c0-34.463 28.037-62.5 62.5-62.5 6.893 0 12.5 5.607 12.5 12.5z"/></g></svg>