<svg id="Capa_1" enable-background="new 0 0 512 512" height="512" viewBox="0 0 512 512" width="512" xmlns="http://www.w3.org/2000/svg"><g><g><path d="m421 504.5h-80v-497h80c27.614 0 50 22.386 50 50v397c0 27.614-22.386 50-50 50z" fill="#5dc1ed"/></g><g><path d="m421 464.5h-330c-5.523 0-10-4.477-10-10v-397c0-5.523 4.477-10 10-10h330c5.523 0 10 4.477 10 10v397c0 5.523-4.477 10-10 10z" fill="#fff"/></g><g><path d="m91 7.5h250c27.614 0 50 22.386 50 50v397c0 27.614-22.386 50-50 50h-250c-27.614 0-50-22.386-50-50v-397c0-27.614 22.386-50 50-50z" fill="#a3defe"/></g><g><path d="m141 464.5c-27.614 0-50-22.386-50-50v-357c0-27.614 22.386-50 50-50h-50c-27.614 0-50 22.386-50 50v397c0 27.614 22.386 50 50 50h250c24.189 0 44.365-17.178 48.998-40z" fill="#7acefa"/></g><g><path d="m91 376h250c5.523 0 10 4.477 10 10v40c0 5.523-4.477 10-10 10h-250c-5.523 0-10-4.477-10-10v-40c0-5.523 4.477-10 10-10z" fill="#fcf2d0"/></g><g><path d="m122 406 25.818 30h136.364l25.818-30-25.818-30h-136.364z" fill="#efdfb4"/></g><g><path d="m336 270.917h-7.579c.823-3.196 1.26-6.547 1.26-10 0-14.383-7.595-26.988-18.989-34.037 1.541-6.143 2.148-12.656 1.623-19.389-2.354-30.174-27.282-54.088-57.527-55.213-34.18-1.27-62.288 26.061-62.288 59.958v88.681h143.5c8.284 0 15-6.716 15-15s-6.716-15-15-15z" fill="#fff"/></g><g><path d="m96 190.34h7.579c-.823-3.196-1.26-6.547-1.26-10 0-14.383 7.595-26.988 18.989-34.037-1.541-6.143-2.148-12.656-1.623-19.389 2.354-30.174 27.282-54.088 57.527-55.213 34.18-1.27 62.288 26.061 62.288 59.958v88.681h-143.5c-8.284 0-15-6.716-15-15s6.716-15 15-15z" fill="#fff"/></g><g><path d="m161.5 129.644h109v181.935h-109z" fill="#9aa3b1"/></g><g><path d="m216 176c-11.046 0-20 8.954-20 20v30c0 5.523 4.477 10 10 10h20c5.523 0 10-4.477 10-10v-30c0-11.046-8.954-20-20-20z" fill="#67788c"/></g><g><path d="m161.5 129.643h24.5v181.935h-24.5z" fill="#7e8b9e"/></g><g><path d="m216 66c-17.645 0-63.198 52.574-63.198 63.088s29.746 16.912 63.198 16.912 63.198-6.397 63.198-16.912-45.553-63.088-63.198-63.088z" fill="#e8899e"/></g><g><path d="m261 141.267c-51.968 0-78.519-52.514-62.142-67.019-20.283 15.228-46.056 46.931-46.056 54.84 0 10.515 29.746 16.912 63.198 16.912 17.142 0 33.308-1.68 45-4.733z" fill="#e26e7e"/></g><g><path d="m281.5 266h-11c-5.247 0-9.5 4.253-9.5 9.5v11c0 5.247-4.253 9.5-9.5 9.5h-11c-5.247 0-9.5-4.253-9.5-9.5v-11c0-5.247-4.253-9.5-9.5-9.5h-11c-5.247 0-9.5 4.253-9.5 9.5v11c0 5.247-4.253 9.5-9.5 9.5h-11c-5.247 0-9.5-4.253-9.5-9.5v-11c0-5.247-4.253-9.5-9.5-9.5h-11c-5.247 0-9.5 4.253-9.5 9.5v229h150v-229c0-5.247-4.253-9.5-9.5-9.5z" fill="#c6c6c6"/></g><g><path d="m186 316v-20h-5.5c-5.247 0-9.5-4.253-9.5-9.5v-11c0-5.247-4.253-9.5-9.5-9.5h-11c-5.247 0-9.5 4.253-9.5 9.5v229h40v-158.5h110v-20h-95c-5.523 0-10-4.477-10-10z" fill="#9aa3b1"/></g><g><path d="m310 346h-188c-5.523 0-10 4.477-10 10v40c0 5.523 4.477 10 10 10h188c5.523 0 10-4.477 10-10v-40c0-5.523-4.477-10-10-10z" fill="#fff"/></g><g><path d="m421 0h-80-250c-31.706 0-57.5 25.794-57.5 57.5v397c0 31.706 25.794 57.5 57.5 57.5h250 80c31.706 0 57.5-25.794 57.5-57.5v-397c0-31.706-25.794-57.5-57.5-57.5zm-372.5 454.5v-397c0-23.435 19.065-42.5 42.5-42.5h250c23.435 0 42.5 19.065 42.5 42.5v397c0 23.435-19.065 42.5-42.5 42.5h-42.5v-53.5h42.5c9.649 0 17.5-7.851 17.5-17.5v-40c0-9.649-7.851-17.5-17.5-17.5h-13.5v-12.5c0-9.649-7.851-17.5-17.5-17.5h-11.5v-30.083h37.5c12.406 0 22.5-10.094 22.5-22.5 0-12.032-9.495-21.89-21.385-22.473.044-.841.066-1.684.066-2.527 0-14.768-6.691-28.373-18.137-37.341.932-5.486 1.184-11.072.747-16.668-1.989-25.494-18.233-47.502-41.792-57.146v-7.315c5.323-3.349 8.698-7.703 8.698-13.36 0-11.316-22.507-35.826-27.019-40.625-12.851-13.668-30.862-29.962-43.678-29.962-5.665 0-12.346 3.187-19.147 7.92-6.466-1.714-13.158-2.458-19.919-2.213-34.236 1.272-62.063 27.98-64.726 62.124-.437 5.597-.185 11.183.747 16.669-11.445 8.967-18.137 22.572-18.137 37.341 0 .844.022 1.687.066 2.527-11.89.583-21.385 10.44-21.385 22.473 0 12.406 10.094 22.5 22.5 22.5h58v30.659h-3.5c-9.374 0-17 7.626-17 17v63h-11.499c-9.649 0-17.5 7.851-17.5 17.5v12.5h-13.5c-9.649 0-17.5 7.851-17.5 17.5v40c0 9.649 7.851 17.5 17.5 17.5h42.5v53.5h-42.5c-23.435 0-42.5-19.065-42.5-42.5zm73.5-41h11.5v15h-42.5c-1.379 0-2.5-1.121-2.5-2.5v-40c0-1.379 1.121-2.5 2.5-2.5h13.5v12.5c0 9.649 7.851 17.5 17.5 17.5zm26.5 0h32.415c4.143 0 7.5-3.357 7.5-7.5s-3.357-7.5-7.5-7.5h-58.915c-1.379 0-2.5-1.121-2.5-2.5v-40c0-1.379 1.121-2.5 2.5-2.5h188c1.379 0 2.5 1.121 2.5 2.5v40c0 1.379-1.121 2.5-2.5 2.5h-99.085c-4.143 0-7.5 3.357-7.5 7.5s3.357 7.5 7.5 7.5h72.585v83.5h-135zm-37.657-225.027c-.68-2.643-1.024-5.378-1.024-8.132 0-11.34 5.771-21.68 15.436-27.659 2.776-1.718 4.123-5.035 3.328-8.203-1.389-5.536-1.866-11.25-1.419-16.98 2.07-26.547 23.706-47.312 50.328-48.301 1.344-.05 2.681-.044 4.013.006-3.239 3.079-6.338 6.233-9.184 9.26-4.512 4.799-27.019 29.309-27.019 40.625 0 5.657 3.375 10.011 8.698 13.36v70.393h-58c-4.136 0-7.5-3.364-7.5-7.5s3.364-7.5 7.5-7.5h7.579c2.318 0 4.507-1.072 5.927-2.904 1.421-1.834 1.914-4.22 1.337-6.465zm159.657 28.922c4.143 0 7.5-3.357 7.5-7.5v-43.527c15.229 8.469 25.457 24.011 26.837 41.708.447 5.73-.03 11.443-1.419 16.979-.795 3.167.552 6.484 3.328 8.203 9.665 5.98 15.436 16.32 15.436 27.659 0 2.754-.345 5.489-1.024 8.132-.577 2.245-.084 4.631 1.336 6.464 1.421 1.832 3.609 2.904 5.928 2.904h7.578c4.136 0 7.5 3.364 7.5 7.5s-3.364 7.5-7.5 7.5h-37.5v-17.917c0-9.374-7.626-17-17-17h-3.5v-18.605c0-4.143-3.357-7.5-7.5-7.5s-7.5 3.357-7.5 7.5v20.373c-5.618 2.778-9.5 8.553-9.5 15.233v11c0 1.103-.897 2-2 2h-11c-1.103 0-2-.897-2-2v-11c0-9.374-7.626-17-17-17h-11c-9.374 0-17 7.626-17 17v11c0 1.103-.897 2-2 2h-11c-1.103 0-2-.897-2-2v-11c0-6.68-3.882-12.455-9.5-15.233v-111.766c16.72 4.446 37.726 4.998 47 4.998s30.28-.552 47-4.998v61.392c0 4.143 3.357 7.501 7.5 7.501zm-54.5-78.895c-33.196 0-52.106-6.176-55.503-9.724 1.624-4.409 10.388-17.094 23.92-31.271 16.811-17.612 28.098-24.005 31.583-24.005s14.772 6.393 31.583 24.005c13.532 14.178 22.296 26.862 23.92 31.271-3.397 3.548-22.307 9.724-55.503 9.724zm-54.5 135c1.103 0 2 .897 2 2v11c0 9.374 7.626 17 17 17h11c9.374 0 17-7.626 17-17v-11c0-1.103.897-2 2-2h11c1.103 0 2 .897 2 2v11c0 9.374 7.626 17 17 17h11c9.374 0 17-7.626 17-17v-11c0-1.103.897-2 2-2h11c1.103 0 2 .897 2 2v63h-135v-63c0-1.103.897-2 2-2zm166 122.5v-12.5h13.5c1.379 0 2.5 1.121 2.5 2.5v40c0 1.379-1.121 2.5-2.5 2.5h-42.5v-15h11.5c9.649 0 17.5-7.851 17.5-17.5zm136 58.5c0 23.435-19.065 42.5-42.5 42.5h-41.311c7.361-6.707 12.972-15.298 16.079-25h25.232c9.649 0 17.5-7.851 17.5-17.5v-397c0-9.649-7.851-17.5-17.5-17.5h-25.232c-3.107-9.702-8.718-18.293-16.079-25h41.311c23.435 0 42.5 19.065 42.5 42.5zm-65.063-399.5h22.563c1.379 0 2.5 1.121 2.5 2.5v397c0 1.379-1.121 2.5-2.5 2.5h-22.563c.036-.83.063-1.662.063-2.5v-397c0-.838-.028-1.67-.063-2.5z"/><path d="m216 168.5c-15.163 0-27.5 12.337-27.5 27.5v30c0 9.649 7.851 17.5 17.5 17.5h20c9.649 0 17.5-7.851 17.5-17.5v-30c0-15.163-12.337-27.5-27.5-27.5zm12.5 57.5c0 1.379-1.121 2.5-2.5 2.5h-20c-1.379 0-2.5-1.121-2.5-2.5v-30c0-6.893 5.607-12.5 12.5-12.5s12.5 5.607 12.5 12.5z"/></g></g></svg>