<svg id="Capa_1" enable-background="new 0 0 512 512" height="512" viewBox="0 0 512 512" width="512" xmlns="http://www.w3.org/2000/svg"><g><g><path d="m191 104.474h130v194.183h-130z" fill="#7e8b9e"/></g><g><path d="m375.503 504.5h-239.006l-20-231.553h279.006z" fill="#9aa3b1"/></g><g><path d="m116.497 272.947 20 231.553h54.503v-231.553z" fill="#7e8b9e"/></g><g><path d="m216.175 504.5v-102.819c0-22.056 17.944-40 40-40s40 17.944 40 40v102.819z" fill="#67788c"/></g><g><path d="m136.497 504.5h-80c-11.046 0-20-8.954-20-20v-282.935h100z" fill="#c6c6c6"/></g><g><path d="m86.497 484.5v-282.935h-50v282.935c0 11.046 8.954 20 20 20h50c-11.045 0-20-8.954-20-20z" fill="#9aa3b1"/></g><g><path d="m86.497 272.947c-11.046 0-20 8.954-20 20v30c0 5.523 4.477 10 10 10h20c5.523 0 10-4.477 10-10v-30c0-11.046-8.954-20-20-20z" fill="#7e8b9e"/></g><g><path d="m86.497 372.947c-11.046 0-20 8.954-20 20v30c0 5.523 4.477 10 10 10h20c5.523 0 10-4.477 10-10v-30c0-11.046-8.954-20-20-20z" fill="#7e8b9e"/></g><g><path d="m256 173.517c-11.046 0-20 8.954-20 20v30c0 5.523 4.477 10 10 10h20c5.523 0 10-4.477 10-10v-30c0-11.046-8.954-20-20-20z" fill="#67788c"/></g><g><path d="m256 7.5c-27.92 0-100 83.189-100 99.827s47.069 26.76 100 26.76 100-10.122 100-26.76-72.08-99.827-100-99.827z" fill="#908cd6"/></g><g><path d="m86.497 134.087c-22.056 0-78.997 65.717-78.997 78.86s37.183 21.14 78.997 21.14 78.997-7.996 78.997-21.14-56.941-78.86-78.997-78.86z" fill="#908cd6"/></g><g><path d="m455.503 504.5h-80v-302.935h100v282.935c0 11.046-8.955 20-20 20z" fill="#c6c6c6"/></g><g><path d="m425.503 484.5v-282.935h-50v302.935h70c-11.046 0-20-8.954-20-20z" fill="#7e8b9e"/></g><g><path d="m425.503 272.947c-11.046 0-20 8.954-20 20v30c0 5.523 4.477 10 10 10h20c5.523 0 10-4.477 10-10v-30c0-11.046-8.955-20-20-20z" fill="#67788c"/></g><g><path d="m425.503 134.087c-22.056 0-78.997 65.717-78.997 78.86s37.183 21.14 78.997 21.14 78.997-7.996 78.997-21.14-56.942-78.86-78.997-78.86z" fill="#908cd6"/></g><g><path d="m475.491 229.628c-54.497-.008-101.577-56.898-80.98-77.392-23.206 20.469-48.006 52.037-48.006 60.711 0 13.144 37.183 21.14 78.997 21.14 18.516 0 36.116-1.571 49.989-4.459z" fill="#6c6cc1"/></g><g><path d="m425.503 372.947c-11.046 0-20 8.954-20 20v30c0 5.523 4.477 10 10 10h20c5.523 0 10-4.477 10-10v-30c0-11.046-8.955-20-20-20z" fill="#67788c"/></g><g><path d="m228.013 21.206c-31.958 24.337-72.013 73.718-72.013 86.121 0 16.638 47.069 26.76 100 26.76 24.208 0 47.186-2.118 65-6.008-71.83 0-119.285-83.319-92.987-106.873z" fill="#6c6cc1"/></g><g><path d="m136.485 229.627c-54.497-.008-101.577-56.898-80.98-77.392-23.205 20.47-48.005 52.038-48.005 60.712 0 13.144 37.183 21.14 78.997 21.14 18.516-.001 36.115-1.571 49.988-4.46z" fill="#6c6cc1"/></g><g><g><path d="m193.552 326.309c-4.143 0-7.5-3.357-7.5-7.5v-12c0-4.143 3.357-7.5 7.5-7.5s7.5 3.357 7.5 7.5v12c0 4.142-3.358 7.5-7.5 7.5z"/></g><g><path d="m318.448 326.309c-4.143 0-7.5-3.357-7.5-7.5v-12c0-4.143 3.357-7.5 7.5-7.5s7.5 3.357 7.5 7.5v12c0 4.142-3.357 7.5-7.5 7.5z"/></g><g><path d="m256 333.452c-8.478 0-16.54-3.672-22.118-10.074-2.722-3.122-2.396-7.86.728-10.581 3.122-2.721 7.86-2.396 10.581.728 2.729 3.132 6.669 4.928 10.81 4.928s8.08-1.796 10.81-4.928c2.721-3.124 7.458-3.449 10.581-.728s3.449 7.459.728 10.581c-5.58 6.402-13.642 10.074-22.12 10.074z"/></g></g><g><path d="m86.497 265.447c-15.163 0-27.5 12.337-27.5 27.5v30c0 9.649 7.851 17.5 17.5 17.5h20c9.649 0 17.5-7.851 17.5-17.5v-30c0-15.163-12.337-27.5-27.5-27.5zm12.5 57.5c0 1.379-1.121 2.5-2.5 2.5h-20c-1.379 0-2.5-1.121-2.5-2.5v-30c0-6.893 5.607-12.5 12.5-12.5s12.5 5.607 12.5 12.5z"/><path d="m86.497 365.447c-15.163 0-27.5 12.337-27.5 27.5v30c0 9.649 7.851 17.5 17.5 17.5h20c9.649 0 17.5-7.851 17.5-17.5v-30c0-15.163-12.337-27.5-27.5-27.5zm12.5 57.5c0 1.379-1.121 2.5-2.5 2.5h-20c-1.379 0-2.5-1.121-2.5-2.5v-30c0-6.893 5.607-12.5 12.5-12.5s12.5 5.607 12.5 12.5z"/><path d="m228.5 193.517v30c0 9.649 7.851 17.5 17.5 17.5h20c9.649 0 17.5-7.851 17.5-17.5v-30c0-15.163-12.337-27.5-27.5-27.5s-27.5 12.337-27.5 27.5zm40 0v30c0 1.379-1.121 2.5-2.5 2.5h-20c-1.379 0-2.5-1.121-2.5-2.5v-30c0-6.893 5.607-12.5 12.5-12.5s12.5 5.607 12.5 12.5z"/><path d="m425.503 265.447c-15.163 0-27.5 12.337-27.5 27.5v30c0 9.649 7.851 17.5 17.5 17.5h20c9.649 0 17.5-7.851 17.5-17.5v-30c0-15.163-12.337-27.5-27.5-27.5zm12.5 57.5c0 1.379-1.121 2.5-2.5 2.5h-20c-1.379 0-2.5-1.121-2.5-2.5v-30c0-6.893 5.607-12.5 12.5-12.5s12.5 5.607 12.5 12.5z"/><path d="m512 212.947c0-13.438-27.709-43.589-33.264-49.496-12.944-13.768-37.074-36.864-53.233-36.864s-40.289 23.097-53.234 36.863c-5.555 5.908-33.264 36.059-33.264 49.497 0 10.115 9.759 17.732 28.998 22.645v29.855h-39.503v-57.286c0-4.143-3.357-7.5-7.5-7.5s-7.5 3.357-7.5 7.5v57.286h-115v-128.242c23.783 4 48.885 4.382 57.5 4.382s33.717-.383 57.5-4.382v40.957c0 4.143 3.357 7.5 7.5 7.5s7.5-3.357 7.5-7.5v-44.077c19.443-4.958 35-13.168 35-26.758 0-16.604-37.312-56.765-41.566-61.29-16.165-17.194-46.228-46.037-65.934-46.037s-49.769 28.843-65.934 46.036c-4.255 4.525-41.566 44.687-41.566 61.29 0 13.59 15.557 21.801 35 26.758v131.363h-39.503v-29.855c19.239-4.913 28.998-12.529 28.998-22.645 0-13.438-27.709-43.589-33.264-49.497-12.945-13.767-37.075-36.863-53.234-36.863s-40.289 23.097-53.233 36.864c-5.555 5.907-33.264 36.058-33.264 49.496 0 10.115 9.759 17.732 28.997 22.645v248.908c0 15.163 12.337 27.5 27.5 27.5h399.006c15.163 0 27.5-12.337 27.5-27.5v-248.908c19.238-4.913 28.997-12.529 28.997-22.645zm-348.502-105.545c.422-5.115 14.253-26.502 38.154-51.789 26.519-28.055 46.405-40.613 54.348-40.613s27.829 12.558 54.348 40.613c23.901 25.287 37.732 46.674 38.152 51.713 0 1.61-4.496 7.335-24.475 12.345-17.783 4.46-41.941 6.916-68.025 6.916s-50.242-2.456-68.025-6.916c-19.979-5.01-24.475-10.734-24.477-12.269zm-148.462 105.526c1.012-4.619 12.047-21.196 30.151-40.256 20.287-21.357 35.635-31.085 41.31-31.085s21.023 9.728 41.31 31.085c18.104 19.061 29.141 35.637 30.152 40.256-.683 1.353-5.559 5.413-20.592 8.837-13.655 3.109-31.721 4.822-50.87 4.822s-37.215-1.713-50.869-4.822c-15.034-3.424-19.909-7.485-20.592-8.837zm28.961 271.572v-245.906c12.577 1.947 27.176 2.993 42.5 2.993s29.923-1.046 42.5-2.993v34.121c-.002.078-.012.154-.012.232s.009.154.012.232v114.768c0 4.143 3.357 7.5 7.5 7.5s7.5-3.357 7.5-7.5v-107.5h224.006v88.074h-22.5c-4.143 0-7.5 3.357-7.5 7.5s3.357 7.5 7.5 7.5h22.5v113.479h-64.328v-95.319c0-26.191-21.309-47.5-47.501-47.5-26.191 0-47.499 21.309-47.499 47.5v35.776h-22.5c-4.143 0-7.5 3.357-7.5 7.5s3.357 7.5 7.5 7.5h22.5v44.543h-64.678v-79.053c0-4.143-3.357-7.5-7.5-7.5s-7.5 3.357-7.5 7.5v79.053h-72.5c-6.893 0-12.5-5.607-12.5-12.5zm179.678-82.819c0-17.921 14.579-32.5 32.499-32.5 17.921 0 32.501 14.579 32.501 32.5v95.319h-65zm231.828 95.319h-72.5v-258.406c12.577 1.947 27.176 2.993 42.5 2.993s29.923-1.046 42.5-2.993v245.906c0 6.893-5.607 12.5-12.5 12.5zm20.869-275.235c-13.654 3.109-31.72 4.822-50.869 4.822s-37.215-1.713-50.87-4.822c-15.033-3.424-19.909-7.484-20.592-8.837 1.012-4.619 12.048-21.195 30.152-40.256 20.286-21.357 35.635-31.085 41.31-31.085s21.022 9.728 41.31 31.085c18.104 19.06 29.14 35.637 30.151 40.256-.683 1.352-5.558 5.413-20.592 8.837z"/><path d="m425.503 365.447c-15.163 0-27.5 12.337-27.5 27.5v30c0 9.649 7.851 17.5 17.5 17.5h20c9.649 0 17.5-7.851 17.5-17.5v-30c0-15.163-12.337-27.5-27.5-27.5zm12.5 57.5c0 1.379-1.121 2.5-2.5 2.5h-20c-1.379 0-2.5-1.121-2.5-2.5v-30c0-6.893 5.607-12.5 12.5-12.5s12.5 5.607 12.5 12.5z"/></g></g></svg>