<svg id="Capa_1" enable-background="new 0 0 511.984 511.984" height="512" viewBox="0 0 511.984 511.984" width="512" xmlns="http://www.w3.org/2000/svg"><g><g><path d="m154.125 183.539h289.075v60h-289.075z" fill="#d2996f" transform="matrix(.707 -.707 .707 .707 -63.519 273.731)"/></g><g><path d="m143.519 187.933h289.075v30h-289.075z" fill="#c18053" transform="matrix(.707 -.707 .707 .707 -59.125 263.124)"/></g><g><circle cx="464.506" cy="47.696" fill="#89d47f" r="40"/></g><g><path d="m457.435 40.625c11.869-11.869 29.337-14.71 43.898-8.543-1.949-4.603-4.79-8.919-8.543-12.671-15.621-15.621-40.948-15.621-56.569 0s-15.621 40.948 0 56.569c3.752 3.752 8.067 6.593 12.67 8.543-6.166-14.56-3.325-32.029 8.544-43.898z" fill="#5ec783"/></g><g><path d="m443.293 125.478-56.569-56.569c-7.81-7.81-7.81-20.474 0-28.284 7.81-7.81 20.474-7.81 28.284 0l56.569 56.569c7.81 7.81 7.81 20.474 0 28.284-7.81 7.81-20.474 7.81-28.284 0z" fill="#d2996f"/></g><g><path d="m224.223 287.546c-37.176-37.176-110.43-44.473-173.387 38.759-47.728 63.099-45.366 130.175-41.431 158.935 1.219 8.911 8.213 15.904 17.124 17.124 28.759 3.935 95.836 6.297 158.935-41.431 83.232-62.957 75.935-136.211 38.759-173.387z" fill="#f7ef87"/></g><g><path d="m95.09 370.559c50.435-66.679 107.475-75.251 147.285-56.912-4.553-9.883-10.759-18.708-18.153-26.102-37.176-37.176-110.43-44.473-173.387 38.759-47.727 63.1-45.365 130.176-41.43 158.936 1.219 8.911 8.213 15.904 17.124 17.124 6.579.9 15.182 1.71 25.266 1.865-.522-33.995 6.486-85.006 43.295-133.67z" fill="#efd176"/></g><g><path d="m267.17 386.454 14.142-14.142 19.806-3.699c6.323-1.181 9.847-7.916 7.323-13.832-7.482-17.535 3.972-35.07-13.564-52.606-21.214-21.214-42.427-.001-63.641-21.215-21.213-21.213 0-42.426-21.213-63.639-17.534-17.534-35.068-6.08-52.603-13.561-5.916-2.524-12.651 1.001-13.832 7.323l-3.699 19.806-14.142 14.142z" fill="#f7ef87"/></g><g><path d="m179.835 299.118-54.086-54.086 14.142-14.142 3.699-19.806c1.181-6.323 7.916-9.847 13.832-7.323 17.534 7.481 35.069-3.973 52.603 13.561 21.213 21.213 0 42.426 21.213 63.639-9.18-9.18-24.064-9.18-33.244 0z" fill="#efd176"/></g><g><path d="m281.312 372.311-141.421-141.421c-7.81-7.81-20.474-7.81-28.284 0-7.81 7.81-7.81 20.474 0 28.284l141.421 141.421c7.81 7.81 20.474 7.81 28.284 0 7.811-7.81 7.811-20.473 0-28.284z" fill="#e1b89a"/></g><g><path d="m165.693 284.976c-7.811 7.811-7.811 20.474 0 28.284l-54.086-54.086c-7.811-7.811-7.811-20.474 0-28.284 7.811-7.811 20.474-7.811 28.284 0l54.086 54.086c-7.811-7.81-20.474-7.81-28.284 0z" fill="#d2996f"/></g><g><path d="m415.009 153.762-56.569-56.568c-7.81-7.81-7.81-20.474 0-28.284 7.81-7.81 20.474-7.81 28.284 0l56.569 56.569c7.81 7.81 7.81 20.474 0 28.284-7.811 7.81-20.474 7.81-28.284-.001z" fill="#e1b89a"/></g><g><path d="m389.188 99.658c7.811-7.811 20.474-7.811 28.284 0l-30.749-30.749c-7.81-7.81-20.474-7.81-28.284 0-7.81 7.81-7.81 20.474 0 28.284l30.749 30.749c-7.81-7.81-7.81-20.473 0-28.284z" fill="#d2996f"/></g><path d="m498.093 14.108c-18.521-18.52-48.654-18.52-67.175 0-5.619 5.619-9.667 12.526-11.903 20.006-10.788-9.492-27.292-9.094-37.594 1.207-5.569 5.569-8.238 12.951-8.023 20.263-7.312-.216-14.694 2.453-20.262 8.022-5.194 5.193-8.055 12.1-8.055 19.445s2.86 14.252 8.055 19.446l1.767 1.767-13.542 13.542c-2.929 2.93-2.929 7.678 0 10.607 1.464 1.464 3.384 2.196 5.303 2.196s3.839-.732 5.303-2.196l13.542-13.542 31.82 31.82-137.364 137.365c-8.69-.082-15.892-.865-23.426-8.399-7.531-7.531-8.316-14.73-8.398-23.417l102.614-102.614c2.929-2.93 2.929-7.678 0-10.607-2.928-2.928-7.677-2.928-10.606 0l-93.366 93.365c-1.505-6.652-4.695-13.604-11.457-20.366-12.756-12.757-26.189-12.802-37.004-12.802-.087 0-.175 0-.262 0-6.551 0-12.219-.018-17.697-2.354-4.949-2.112-10.499-1.87-15.228.659-4.69 2.511-7.941 6.952-8.919 12.186l-1.727 9.246c-2.782-.93-5.723-1.42-8.742-1.42-7.346 0-14.251 2.861-19.445 8.055s-8.055 12.101-8.055 19.445c0 7.346 2.86 14.252 8.055 19.446l1.774 1.774c-22.694 11.38-43.922 30.011-63.223 55.529-21.48 28.397-35.442 60.56-41.498 95.591-4.986 28.844-3.504 53.381-1.382 68.885 1.668 12.191 11.347 21.87 23.537 23.537 7.72 1.057 17.829 1.972 29.682 1.972 10.547 0 22.476-.725 35.33-2.719 32.906-5.104 63.433-17.164 90.733-35.848 3.418-2.34 4.293-7.007 1.954-10.425-2.339-3.419-7.007-4.293-10.425-1.954-59.337 40.608-121.337 37.384-145.241 34.112-5.546-.759-9.95-5.162-10.709-10.709-3.502-25.598-6.618-91.786 39.982-153.394 19.206-25.391 40.221-43.301 62.519-53.318l114.927 114.927c-8.04 17.878-21.252 35.04-39.324 51.064-3.099 2.748-3.384 7.488-.636 10.587 1.482 1.672 3.543 2.524 5.615 2.524 1.769 0 3.545-.622 4.973-1.889 17.98-15.942 31.594-33.077 40.614-51.045l2.219 2.219c5.194 5.193 12.1 8.055 19.445 8.055s14.251-2.861 19.445-8.055 8.055-12.101 8.055-19.445c0-3.019-.491-5.96-1.42-8.742l9.246-1.727c5.233-.978 9.675-4.229 12.185-8.92 2.53-4.728 2.771-10.277.659-15.228-2.355-5.519-2.355-11.229-2.355-17.842 0-10.836 0-24.32-12.804-37.124-6.761-6.76-13.711-9.949-20.361-11.456l128.118-128.118 1.768 1.768c5.361 5.36 12.403 8.041 19.445 8.041s14.084-2.681 19.445-8.041c5.568-5.569 8.237-12.951 8.022-20.263.272.008.544.02.817.02 7.042 0 14.085-2.681 19.446-8.042 10.298-10.298 10.699-26.795 1.216-37.584 7.478-2.236 14.379-6.295 19.997-11.913 18.522-18.52 18.522-48.654.001-67.175zm-222.084 381.184c-4.874 4.875-12.804 4.875-17.678 0l-141.421-141.421c-2.361-2.36-3.661-5.5-3.661-8.839 0-3.338 1.3-6.478 3.661-8.838 2.361-2.361 5.5-3.662 8.839-3.662s6.478 1.301 8.839 3.662l141.421 141.421c2.361 2.36 3.661 5.5 3.661 8.839 0 3.338-1.3 6.477-3.661 8.838zm21.975-61.296c0 7.214 0 15.39 3.558 23.729.434 1.017.132 1.854-.087 2.263-.253.473-.756 1.074-1.715 1.254l-15.919 2.973-135.832-135.833 2.973-15.921c.179-.959.78-1.462 1.252-1.715.41-.218 1.247-.521 2.263-.087 8.282 3.533 16.402 3.558 23.58 3.558.094.001.189.001.283 0 10.052 0 18.008.037 26.38 8.409 8.41 8.409 8.41 16.399 8.41 26.516 0 10.835 0 24.319 12.803 37.123 12.804 12.803 26.288 12.804 37.124 12.804 10.116 0 18.107 0 26.517 8.411 8.41 8.409 8.41 16.4 8.41 26.516zm140.005-185.537c-4.874 4.875-12.804 4.875-17.678 0l-56.568-56.569c-2.361-2.36-3.661-5.5-3.661-8.839s1.3-6.478 3.661-8.838c2.437-2.438 5.638-3.655 8.839-3.655s6.402 1.218 8.839 3.655l56.568 56.568c4.874 4.874 4.874 12.805 0 17.678zm28.285-28.284c-4.874 4.876-12.804 4.874-17.678 0l-56.568-56.568c-4.874-4.874-4.874-12.804 0-17.678 4.875-4.874 12.805-4.874 17.678 0l56.568 56.568c4.873 4.874 4.873 12.804 0 17.678zm21.213-49.499c-5.938 5.938-13.968 9.325-22.318 9.502l-33.145-33.145c.176-8.35 3.565-16.382 9.502-22.318 12.672-12.672 33.291-12.672 45.962 0 12.67 12.671 12.67 33.291-.001 45.961z"/></g></svg>