<svg id="Capa_1" enable-background="new 0 0 512 512" height="512" viewBox="0 0 512 512" width="512" xmlns="http://www.w3.org/2000/svg"><g><g><path d="m329.769 67.5h-119.799c-27.614 0-50-22.386-50-50 0-5.523 4.477-10 10-10h109.799c27.614 0 50 22.386 50 50z" fill="#d3596e"/></g><g><path d="m361.536 471.515c-29.214-40.08-65.833-113.227-32.188-200.094l-8.505-184.07c-55.867 20.031-125.64 61.017-171.863 137.197-15.12 24.92-42.333 39.952-71.481 39.952-5.523 0-10 4.477-10 10 0 24.836 41.745 49.776 41.694 50h-51.693c-5.523 0-10 4.477-10 10 0 27.614 22.386 50 50 50h-60c-5.523 0-10 4.477-10 10 0 27.614 22.386 50 50 50h-60c-5.523 0-10 4.477-10 10 0 27.614 22.386 50 50 50h287.265c16.981 0 26.773-19.263 16.771-32.985z" fill="#e26e7e"/></g><g><path d="m329.348 271.42-8.505-184.07c-55.867 20.031-125.64 61.017-171.863 137.197-15.12 24.92-42.333 39.952-71.481 39.952-5.523 0-10 4.477-10 10 0 24.836 41.745 49.776 41.694 50h-51.693c-5.523 0-10 4.477-10 10 0 27.614 22.386 50 50 50h-60c-5.523 0-10 4.477-10 10 0 27.614 22.386 50 50 50h-60c-5.523 0-10 4.477-10 10 0 27.614 22.386 50 50 50h168.734c-16.047 0-29.411-12.203-30.998-28.171-9.193-92.507 4.652-164.844 30.796-221.1 4.272 11.267 9.799 22.091 16.541 32.297 17.855 27.028 43 48.032 72.714 60.739.263.112.511.246.752.388-.895-23.988 2.736-49.931 13.309-77.232z" fill="#d3596e"/></g><g><path d="m379.97 52.442h-270c-5.523 0-10 4.477-10 10 0 27.614 22.386 50 50 50h-80c-5.523 0-10 4.477-10 10 0 27.614 22.386 50 50 50h145.56c-.054 1.504-.091 3.013-.091 4.53 0 68.776 55.754 124.53 124.53 124.53s124.53-55.754 124.53-124.53-55.753-124.53-124.529-124.53z" fill="#e8899e"/></g><g><path d="m428.139 253.333c-68.776 0-124.53-55.754-124.53-124.53 0-28.779 9.767-55.273 26.16-76.361h-219.799c-5.523 0-10 4.477-10 10 0 27.614 22.386 50 50 50h-80c-5.523 0-10 4.477-10 10 0 27.614 22.386 50 50 50h145.56c-.054 1.504-.091 3.013-.091 4.53 0 68.776 55.754 124.53 124.53 124.53 46.766 0 87.503-25.784 108.793-63.906-17.942 10.019-38.613 15.737-60.623 15.737z" fill="#e26e7e"/></g><g><path d="m416.5 264.972v37.437c0 11.735-5.153 22.878-14.094 30.478l-21.81 18.539c-2.598 2.209-4.096 5.447-4.096 8.857 0 6.42 5.204 11.624 11.624 11.624h26.376c49.706 0 90-40.294 90-90v-104.935c-48.601 0-88 39.399-88 88z" fill="#f7ef87"/></g><g><path d="m456.5 302.41v-47.231c0-34.042 19.332-63.566 47.614-78.202-48.423.208-87.614 39.523-87.614 87.995v37.437c0 11.735-5.153 22.878-14.094 30.478l-21.81 18.539c-2.598 2.208-4.096 5.447-4.096 8.857 0 6.42 5.204 11.624 11.624 11.624h8.791l45.491-39.02c8.941-7.6 14.094-18.743 14.094-30.477z" fill="#efd176"/></g><g><g><g><ellipse cx="381.328" cy="182.535" fill="#fff" rx="29.355" ry="23.377"/></g></g><g><path d="m398.437 167.532c-4.143 0-7.5-3.357-7.5-7.5v-12c0-4.143 3.357-7.5 7.5-7.5s7.5 3.357 7.5 7.5v12c0 4.143-3.358 7.5-7.5 7.5z"/></g></g><path d="m379.97 44.942h-44.082c-5.787-25.952-29.059-44.942-56.119-44.942h-109.799c-9.649 0-17.5 7.851-17.5 17.5 0 9.693 2.432 19.091 6.974 27.442h-49.474c-9.649 0-17.5 7.851-17.5 17.5 0 16.82 7.259 31.976 18.81 42.5h-41.31c-9.649 0-17.5 7.851-17.5 17.5 0 31.706 25.794 57.5 57.5 57.5h61.988c-10.855 12.775-20.712 26.414-29.39 40.715-13.601 22.417-38.534 36.343-65.068 36.343-9.649 0-17.5 7.851-17.5 17.5 0 15.641 12.145 30.476 26.397 42.5h-28.897c-9.649 0-17.5 7.851-17.5 17.5 0 16.82 7.259 31.976 18.81 42.5h-21.31c-9.649 0-17.5 7.851-17.5 17.5 0 16.82 7.259 31.976 18.81 42.5h-21.31c-9.649 0-17.5 7.851-17.5 17.5 0 31.706 25.794 57.5 57.5 57.5h287.265c10.692 0 20.344-5.918 25.188-15.445 4.846-9.528 3.943-20.816-2.356-29.458-8.888-12.192-16.615-24.97-22.971-37.975-1.818-3.722-6.308-5.264-10.031-3.445-3.722 1.818-5.264 6.31-3.445 10.031 6.738 13.791 14.923 27.324 24.326 40.225 3.001 4.117 3.415 9.285 1.107 13.823-2.307 4.536-6.726 7.244-11.818 7.244h-287.265c-23.435 0-42.5-19.065-42.5-42.5 0-1.379 1.121-2.5 2.5-2.5h60c4.143 0 7.5-3.357 7.5-7.5s-3.357-7.5-7.5-7.5c-23.435 0-42.5-19.065-42.5-42.5 0-1.379 1.121-2.5 2.5-2.5h60c4.143 0 7.5-3.357 7.5-7.5s-3.357-7.5-7.5-7.5c-23.435 0-42.5-19.065-42.5-42.5 0-1.379 1.121-2.5 2.5-2.5h51.694c3.502 0 6.538-2.424 7.313-5.839 1.156-5.09-2.86-7.732-4.181-8.602-23.372-15.378-37.326-31.475-37.326-43.059 0-1.379 1.121-2.5 2.5-2.5 31.742 0 61.589-16.691 77.893-43.562 10.509-17.318 22.834-33.618 36.629-48.496h55.95c.418 19.31 4.922 37.838 13.403 55.122 1.304 2.656 3.968 4.198 6.739 4.198 1.108 0 2.235-.247 3.298-.769 3.719-1.825 5.254-6.319 3.43-10.037-7.898-16.094-11.902-33.416-11.902-51.484 0-1.265.027-2.619.086-4.263.072-2.034-.685-4.011-2.098-5.476-1.414-1.465-3.362-2.292-5.397-2.292h-145.561c-23.435 0-42.5-19.065-42.5-42.5 0-1.379 1.121-2.5 2.5-2.5h80c4.143 0 7.5-3.357 7.5-7.5s-3.357-7.5-7.5-7.5c-23.435 0-42.5-19.065-42.5-42.5 0-1.379 1.121-2.5 2.5-2.5h270c62.116 0 113.077 48.648 116.803 109.844-49.059 3.948-87.773 45.13-87.773 95.187v25.398c-9.44 2.408-19.186 3.633-29.03 3.633-35.055 0-67.972-15.523-90.31-42.591-2.635-3.196-7.363-3.647-10.558-1.011s-3.647 7.363-1.011 10.558c10.434 12.644 22.919 23.046 36.77 30.905-9.907 37.948-8.42 76.622 4.441 115.026 1.051 3.138 3.974 5.12 7.11 5.12.789 0 1.593-.126 2.383-.391 3.928-1.314 6.045-5.565 4.73-9.493-11.58-34.578-13.223-69.357-4.907-103.49 16.034 6.764 33.442 10.366 51.351 10.366 9.75 0 19.418-1.076 28.848-3.178-.869 8.264-4.866 15.905-11.269 21.348l-21.811 18.539c-4.282 3.641-6.738 8.952-6.738 14.572 0 10.545 8.579 19.124 19.124 19.124h26.377c53.762 0 97.5-43.738 97.5-97.5v-104.934c0-72.802-59.229-132.031-132.03-132.031zm-212.5-27.442c0-1.379 1.121-2.5 2.5-2.5h109.799c18.848 0 35.203 12.461 40.605 29.942h-142.853c-6.492-7.668-10.051-17.341-10.051-27.442zm329.53 264.407c0 45.49-37.01 82.5-82.5 82.5h-26.376c-2.274 0-4.124-1.85-4.124-4.124 0-1.212.529-2.358 1.453-3.143l21.811-18.539c10.635-9.04 16.736-22.232 16.736-36.192v-37.438c0-41.859 32.114-76.359 73-80.152z"/></g></svg>